STARTFONT 2.1
COMMENT
COMMENT Converted from OpenType font "didot.ttc" by "otf2bdf 3.0".
COMMENT
FONT -FreeType-Didot-Medium-R-Normal--46-460-72-72-P-216-FontSpecific-0
SIZE 46 72 72
FONTBOUNDINGBOX 73 57 -13 -14
STARTPROPERTIES 19
FOUNDRY "FreeType"
FAMILY_NAME "Didot"
WEIGHT_NAME "Medium"
SLANT "R"
SETWIDTH_NAME "Normal"
ADD_STYLE_NAME ""
PIXEL_SIZE 46
POINT_SIZE 460
RESOLUTION_X 72
RESOLUTION_Y 72
SPACING "P"
AVERAGE_WIDTH 216
CHARSET_REGISTRY "FontSpecific"
CHARSET_ENCODING "0"
FONT_ASCENT 43
FONT_DESCENT 13
COPYRIGHT "Copyright (c) 1981, 1982, 1983, 1989 and 1993, Linotype Library GmbH or its affiliated Linotype-Hell companies. All rights reserved.    The digitally encoded machine readable software for producing the Typefaces licensed to you is now the property of Heidelberger Druckmaschinen AG and its licensors, and may not be reproduced, used, displayed, modified, disclosed or transferred without the express written approval of Heidelberger Druckmaschinen AG.    Copyright (c) 1988, 1990, 1993 Adobe Systems Incorporated. All Rights Reserved."
_OTF_FONTFILE "didot.ttc"
_OTF_PSNAME "Copyright (c) 1981, 1982, 1983, 1989 and 1993, Linotype Library GmbH or its affiliated Linotype-Hell companies. All rights reserved.    The digitally encoded machine readable software for producing the Typefaces licensed to you is now the property of Heidelberger Druckmaschinen AG and its licensors, and may not be reproduced, used, displayed, modified, disclosed or transferred without the express written approval of Heidelberger Druckmaschinen AG.    Copyright (c) 1988, 1990, 1993 Adobe Systems Incorporated. All Rights Reserved."
ENDPROPERTIES
CHARS 473
STARTCHAR 0001
ENCODING 1
SWIDTH 0 0
DWIDTH 0 0
BBX 0 0 0 0
BITMAP
ENDCHAR
STARTCHAR 0002
ENCODING 2
SWIDTH 282 0
DWIDTH 13 0
BBX 0 0 0 0
BITMAP
ENDCHAR
STARTCHAR 0003
ENCODING 3
SWIDTH 282 0
DWIDTH 13 0
BBX 0 0 0 0
BITMAP
ENDCHAR
STARTCHAR 0004
ENCODING 4
SWIDTH 0 0
DWIDTH 0 0
BBX 0 0 0 0
BITMAP
ENDCHAR
STARTCHAR 0005
ENCODING 5
SWIDTH 304 0
DWIDTH 14 0
BBX 5 33 5 0
BITMAP
70
F0
F0
F0
F0
F0
F0
F0
70
70
70
70
70
70
70
60
60
60
60
60
60
60
20
20
20
00
00
00
70
F0
F8
F0
70
ENDCHAR
STARTCHAR 0006
ENCODING 6
SWIDTH 434 0
DWIDTH 20 0
BBX 8 13 6 20
BITMAP
C3
C3
C3
C3
C3
C3
C3
43
43
43
41
41
41
ENDCHAR
STARTCHAR 0007
ENCODING 7
SWIDTH 565 0
DWIDTH 26 0
BBX 26 33 0 0
BITMAP
00020300
00040200
00040200
00040400
00080400
00080400
00080800
00100800
00100800
00201000
00201000
0FFFFFC0
10402000
00402000
00404000
00804000
00804000
00808000
01008000
01008000
02010000
FFFFFC00
02020000
04020000
04020000
04040000
08040000
08040000
08080000
10080000
10080000
20100000
20100000
ENDCHAR
STARTCHAR 0008
ENCODING 8
SWIDTH 673 0
DWIDTH 31 0
BBX 24 40 3 -4
BITMAP
001000
001000
001000
01FF88
0610F8
081078
101038
101018
301018
301008
701008
701000
781000
781000
7E1000
3F9000
3FF800
1FFF00
0FFFE0
03FFF8
007FFC
001FFC
0010FE
00103E
00101F
00101F
80100F
80100F
C0100E
C0100E
C0100E
E0100C
F01018
F01010
FC1040
871180
00FE00
001000
001000
001000
ENDCHAR
STARTCHAR 0009
ENCODING 9
SWIDTH 782 0
DWIDTH 36 0
BBX 31 33 2 0
BITMAP
07C00080
08300100
10080100
300C0200
700E0200
700E0400
F00F0400
F00F0800
F00F0800
700E1000
700E2000
300C2000
181C4000
0C304000
03E08000
00008000
00010000
00010000
000207C0
00020C30
00043818
0004700C
0008700E
0008E00E
0010E00E
0010E00E
0020E00E
0040E00E
0040600E
0080700C
00803008
01001010
01000FE0
ENDCHAR
STARTCHAR 000A
ENCODING 10
SWIDTH 782 0
DWIDTH 36 0
BBX 29 33 3 0
BITMAP
000F0000
00308000
00604000
00604000
00E04000
00F04000
00F04000
00F08000
00F88000
00FB0FF0
007C03C0
007C0180
00BE0080
033E0080
041F0080
081F0080
180F8080
380F8080
3007C080
7007C100
7003E100
7801F100
F801F100
F800FA00
7800FA00
7C007C00
7C007C00
3E003E08
3F003E08
1F003F08
0F804F90
07E18FF0
01FE07C0
ENDCHAR
STARTCHAR 000B
ENCODING 11
SWIDTH 282 0
DWIDTH 13 0
BBX 3 13 5 20
BITMAP
C0
E0
E0
C0
C0
C0
40
40
40
40
40
40
40
ENDCHAR
STARTCHAR 000C
ENCODING 12
SWIDTH 282 0
DWIDTH 13 0
BBX 8 46 4 -13
BITMAP
03
02
04
04
08
08
10
10
20
20
40
40
40
40
80
80
80
80
80
80
80
80
80
80
80
80
80
80
80
80
80
80
40
40
40
40
20
20
10
10
08
08
04
04
02
03
ENDCHAR
STARTCHAR 000D
ENCODING 13
SWIDTH 282 0
DWIDTH 13 0
BBX 8 46 1 -13
BITMAP
80
40
20
20
10
10
08
08
08
04
04
04
02
02
02
02
01
01
01
01
01
01
01
01
01
01
01
01
01
01
02
02
02
02
04
04
04
0C
08
08
10
10
20
20
40
80
ENDCHAR
STARTCHAR 000E
ENCODING 14
SWIDTH 434 0
DWIDTH 20 0
BBX 16 18 2 15
BITMAP
01C0
03C0
03C0
41C2
F187
F08F
F89F
0CB8
0340
01C0
1F3C
F89F
F08F
6187
01C0
03C0
03C0
01C0
ENDCHAR
STARTCHAR 000F
ENCODING 15
SWIDTH 586 0
DWIDTH 27 0
BBX 22 22 3 0
BITMAP
002000
002000
002000
002000
002000
002000
002000
002000
002000
002000
002000
FFFFFC
002000
002000
002000
002000
002000
002000
002000
002000
002000
002000
ENDCHAR
STARTCHAR 0010
ENCODING 16
SWIDTH 282 0
DWIDTH 13 0
BBX 7 13 3 -8
BITMAP
78
FC
FC
FE
76
06
04
04
04
08
10
20
40
ENDCHAR
STARTCHAR 0011
ENCODING 17
SWIDTH 369 0
DWIDTH 17 0
BBX 9 2 4 10
BITMAP
FF80
FF80
ENDCHAR
STARTCHAR 0012
ENCODING 18
SWIDTH 282 0
DWIDTH 13 0
BBX 5 5 4 0
BITMAP
70
F8
F8
F8
70
ENDCHAR
STARTCHAR 0013
ENCODING 19
SWIDTH 304 0
DWIDTH 14 0
BBX 13 33 0 0
BITMAP
0008
0008
0008
0010
0010
0030
0020
0020
0040
0040
0040
0080
0080
0100
0100
0100
0200
0200
0200
0400
0400
0800
0800
0800
1000
1000
3000
2000
2000
4000
4000
4000
8000
ENDCHAR
STARTCHAR 0014
ENCODING 20
SWIDTH 521 0
DWIDTH 24 0
BBX 22 33 1 0
BITMAP
00FC00
030300
0E0180
0C00C0
1C00E0
3C00F0
380070
780070
780078
780078
780078
780078
F80078
F8007C
F8007C
F8007C
F8007C
F8007C
F8007C
F8007C
F80078
780078
780078
780078
780078
780070
380070
3C00F0
1C00E0
0C00C0
0E0180
020100
01FE00
ENDCHAR
STARTCHAR 0015
ENCODING 21
SWIDTH 521 0
DWIDTH 24 0
BBX 16 33 4 0
BITMAP
0060
00E0
01E0
03E0
0DE0
31E0
41E0
81E0
01E0
01E0
01E0
01E0
01E0
01E0
01E0
01E0
01E0
01E0
01E0
01E0
01E0
01E0
01E0
01E0
01E0
01E0
01E0
01E0
01E0
01E0
01E0
01E0
3FFF
ENDCHAR
STARTCHAR 0016
ENCODING 22
SWIDTH 521 0
DWIDTH 24 0
BBX 21 33 1 0
BITMAP
03FC00
0C0300
180380
3001C0
7801E0
7801E0
7800F0
3800F0
0000F0
0000F0
0000F0
0001F0
0001E0
0001E0
0001C0
0003C0
000380
000700
000600
000C00
001800
001000
002000
004000
008000
010008
020008
040018
080038
1FFFF8
3FFFF8
7FFFF8
FFFFF8
ENDCHAR
STARTCHAR 0017
ENCODING 23
SWIDTH 521 0
DWIDTH 24 0
BBX 20 33 1 0
BITMAP
01FC00
060300
0C0180
1801C0
1C01E0
3C01E0
3C01E0
1C01E0
0001E0
0001E0
0003C0
000780
000E00
001800
00F000
070E00
080380
0001C0
0001E0
0000F0
0000F0
0000F0
0000F0
0000F0
0000F0
0000F0
8000F0
8000E0
4001E0
4001C0
200380
100200
0FFC00
ENDCHAR
STARTCHAR 0018
ENCODING 24
SWIDTH 521 0
DWIDTH 24 0
BBX 22 33 1 0
BITMAP
0001E0
0003E0
0007C0
000F80
000F00
001E00
003C00
003800
007000
00E000
00C000
018000
010380
030380
020380
040380
040380
080380
180380
100380
200380
200380
400380
400380
7FFFFC
800380
000380
000380
000380
000380
000380
000380
007FFC
ENDCHAR
STARTCHAR 0019
ENCODING 25
SWIDTH 521 0
DWIDTH 24 0
BBX 19 33 2 0
BITMAP
1C0020
1C0040
1F0040
1F8180
1FFF00
2FFE00
21F800
200000
200000
200000
200000
400000
400000
47F800
580600
600300
400380
4003C0
8001C0
0001E0
0001E0
0001E0
0001E0
0001E0
0001E0
0001E0
7003C0
F003C0
F00380
F00300
700600
380400
0FF800
ENDCHAR
STARTCHAR 001A
ENCODING 26
SWIDTH 521 0
DWIDTH 24 0
BBX 21 33 1 0
BITMAP
003F80
004040
018060
030070
0700F0
0E00F0
0E00F0
1C00E0
1C0000
3C0000
3C0000
380000
780000
79FE00
7A0180
7C00C0
7800E0
F800F0
F80070
F80078
F80078
780078
780078
780078
780078
780078
380078
380070
1C00F0
1C00E0
0C00C0
020100
01FE00
ENDCHAR
STARTCHAR 001B
ENCODING 27
SWIDTH 521 0
DWIDTH 24 0
BBX 18 33 3 0
BITMAP
FFFFC0
FFFFC0
FFFFC0
FFFFC0
E00040
C00080
800080
800080
800080
000100
000100
000100
000100
000200
000200
000200
000400
000400
000C00
000800
001800
003000
003000
006000
00E000
01E000
03C000
07C000
0F8000
1F0000
3F0000
3E0000
1C0000
ENDCHAR
STARTCHAR 001C
ENCODING 28
SWIDTH 521 0
DWIDTH 24 0
BBX 20 33 2 0
BITMAP
01FC00
060300
080180
1801C0
3801C0
3001E0
7001E0
7801E0
7801C0
7801C0
3C0180
3F0380
3F8600
1FEC00
07F800
03FE00
01FF00
063FC0
180FE0
3803E0
7001F0
F001F0
F000F0
F000F0
F000F0
F000F0
F000F0
F000E0
7000E0
7001C0
380180
0C0200
03FC00
ENDCHAR
STARTCHAR 001D
ENCODING 29
SWIDTH 521 0
DWIDTH 24 0
BBX 21 33 1 0
BITMAP
01FC00
020300
0C0180
1C00C0
3800E0
3800E0
7800F0
7800F0
F800F0
F80078
F80078
F80078
F80078
780078
780078
7800F8
3800F8
1C0178
0E0178
070678
01F878
0000F0
0000F0
0000F0
0000F0
3800E0
3C00E0
7C01C0
7801C0
380180
180300
080400
07F800
ENDCHAR
STARTCHAR 001E
ENCODING 30
SWIDTH 282 0
DWIDTH 13 0
BBX 5 20 4 0
BITMAP
70
F8
F8
F8
70
00
00
00
00
00
00
00
00
00
00
70
F8
F8
F8
70
ENDCHAR
STARTCHAR 001F
ENCODING 31
SWIDTH 282 0
DWIDTH 13 0
BBX 7 28 3 -8
BITMAP
38
7C
7C
7C
38
00
00
00
00
00
00
00
00
00
00
78
FC
FC
FE
76
06
04
04
04
08
10
20
40
ENDCHAR
STARTCHAR 0020
ENCODING 32
SWIDTH 586 0
DWIDTH 27 0
BBX 26 22 1 0
BITMAP
000000C0
00000300
00000C00
00007000
00018000
000E0000
00300000
00C00000
07000000
18000000
E0000000
C0000000
38000000
06000000
01C00000
00300000
000C0000
00018000
00006000
00001C00
00000300
000000C0
ENDCHAR
STARTCHAR 0021
ENCODING 33
SWIDTH 586 0
DWIDTH 27 0
BBX 22 9 3 7
BITMAP
FFFFFC
000000
000000
000000
000000
000000
000000
000000
FFFFFC
ENDCHAR
STARTCHAR 0022
ENCODING 34
SWIDTH 586 0
DWIDTH 27 0
BBX 26 22 1 0
BITMAP
80000000
60000000
1C000000
03000000
00C00000
00380000
00060000
0001C000
00003000
00000E00
00000180
000001C0
00000600
00003800
0000C000
00070000
00180000
00E00000
03000000
1C000000
60000000
80000000
ENDCHAR
STARTCHAR 0023
ENCODING 35
SWIDTH 413 0
DWIDTH 19 0
BBX 12 33 4 0
BITMAP
1F80
20C0
60E0
7060
F070
7070
0070
0070
0070
0070
0070
0070
0060
20E0
20C0
3180
2E00
2000
2000
2000
2000
2000
2000
2000
2000
0000
0000
0000
7000
F800
F800
F800
7000
ENDCHAR
STARTCHAR 0024
ENCODING 36
SWIDTH 826 0
DWIDTH 38 0
BBX 34 33 2 0
BITMAP
0001FF0000
001E00E000
0070001000
00C0000C00
0300000200
0600000100
0C00000100
1800000080
1800F8E080
3001C4E040
600702C040
600F03C040
601E01C040
C01C03C040
C03C038040
C038038040
C078038040
C078070040
C078070080
C078070080
C0700F0080
C0780E0100
60380E0200
6038170400
301C230800
3007C1F000
1800000000
0C00000000
0600000200
0300000C00
00C0003000
003801C000
0007FE0000
ENDCHAR
STARTCHAR 0025
ENCODING 37
SWIDTH 739 0
DWIDTH 34 0
BBX 34 33 0 0
BITMAP
0000C00000
0000C00000
0001C00000
0001E00000
0001E00000
0003F00000
0003F00000
0005F00000
0004F80000
0004F80000
00087C0000
00087C0000
00107C0000
00103E0000
00103E0000
00201F0000
00201F0000
00401F0000
00400F8000
007FFF8000
00800F8000
008007C000
008007C000
010003E000
010003E000
020003E000
020001F000
020001F000
040000F800
040000F800
080000F800
0800007C00
FFC00FFFC0
ENDCHAR
STARTCHAR 0026
ENCODING 38
SWIDTH 673 0
DWIDTH 31 0
BBX 27 33 1 0
BITMAP
FFFFE000
07C07800
07C03E00
07C01F00
07C00F00
07C00F80
07C00F80
07C00F80
07C00F80
07C00F80
07C00F00
07C00F00
07C01E00
07C01C00
07C06000
07FFE000
07C03C00
07C01E00
07C00F80
07C00780
07C007C0
07C007C0
07C007E0
07C007E0
07C007E0
07C007C0
07C007C0
07C007C0
07C00780
07C00F00
07C00E00
07C01C00
FFFFE000
ENDCHAR
STARTCHAR 0027
ENCODING 39
SWIDTH 717 0
DWIDTH 33 0
BBX 27 33 4 0
BITMAP
001FFC40
006007C0
018001C0
030001C0
060000C0
0E000040
1C000040
3C000040
3C000040
78000000
78000000
F8000000
F8000000
F8000000
F8000000
F8000000
F8000000
F8000000
F8000000
F8000000
F8000000
F8000000
78000000
78000020
3C000020
3C000020
1C000060
0E000060
060000E0
030000E0
018001E0
004003E0
003FFC20
ENDCHAR
STARTCHAR 0028
ENCODING 40
SWIDTH 804 0
DWIDTH 37 0
BBX 33 33 1 0
BITMAP
FFFFF00000
07C01E0000
07C003C000
07C001E000
07C000F000
07C0007800
07C0003C00
07C0003E00
07C0003E00
07C0001F00
07C0001F00
07C0001F00
07C0001F80
07C0001F80
07C0000F80
07C0000F80
07C0000F80
07C0000F80
07C0000F80
07C0000F80
07C0001F80
07C0001F00
07C0001F00
07C0001F00
07C0003E00
07C0003E00
07C0003C00
07C0007800
07C000F000
07C000E000
07C003C000
07C0070000
FFFFF80000
ENDCHAR
STARTCHAR 0029
ENCODING 41
SWIDTH 695 0
DWIDTH 32 0
BBX 28 33 1 0
BITMAP
FFFFFFE0
07C003E0
07C001E0
07C000E0
07C00060
07C00060
07C00020
07C00020
07C01000
07C01000
07C01000
07C01000
07C03000
07C03000
07C0F000
07FFF000
07C0F000
07C03000
07C03000
07C01000
07C01000
07C01000
07C01000
07C00010
07C00010
07C00010
07C00010
07C00030
07C00030
07C00070
07C000F0
07C001F0
FFFFFFF0
ENDCHAR
STARTCHAR 002A
ENCODING 42
SWIDTH 673 0
DWIDTH 31 0
BBX 27 33 1 0
BITMAP
FFFFFFE0
07C003E0
07C001E0
07C000E0
07C00060
07C00060
07C00020
07C00020
07C00000
07C01000
07C01000
07C01000
07C01000
07C03000
07C03000
07C0F000
07FFF000
07C03000
07C03000
07C01000
07C01000
07C01000
07C01000
07C00000
07C00000
07C00000
07C00000
07C00000
07C00000
07C00000
07C00000
07C00000
FFFE0000
ENDCHAR
STARTCHAR 002B
ENCODING 43
SWIDTH 804 0
DWIDTH 37 0
BBX 32 33 4 0
BITMAP
001FF840
006007C0
018001C0
030001C0
060000C0
0E000040
1C000040
3C000040
3C000040
78000000
78000000
F8000000
F8000000
F8000000
F8000000
F8000000
F8000000
F8000000
F8000000
F8000000
F8000000
F8003FFF
780000F0
780000F0
3C0000F0
3C0001F0
1C0001F0
0E0001F0
060001F0
030003F0
01800790
00400C00
003FF000
ENDCHAR
STARTCHAR 002C
ENCODING 44
SWIDTH 804 0
DWIDTH 37 0
BBX 35 33 1 0
BITMAP
FFFE0FFFE0
07C0007C00
07C0007C00
07C0007C00
07C0007C00
07C0007C00
07C0007C00
07C0007C00
07C0007C00
07C0007C00
07C0007C00
07C0007C00
07C0007C00
07C0007C00
07C0007C00
07C0007C00
07FFFFFC00
07C0007C00
07C0007C00
07C0007C00
07C0007C00
07C0007C00
07C0007C00
07C0007C00
07C0007C00
07C0007C00
07C0007C00
07C0007C00
07C0007C00
07C0007C00
07C0007C00
07C0007C00
FFFE0FFFE0
ENDCHAR
STARTCHAR 002D
ENCODING 45
SWIDTH 391 0
DWIDTH 18 0
BBX 14 33 2 0
BITMAP
FFFC
0780
0780
0780
0780
0780
0780
0780
0780
0780
0780
0780
0780
0780
0780
0780
0780
0780
0780
0780
0780
0780
0780
0780
0780
0780
0780
0780
0780
0780
0780
0780
FFFC
ENDCHAR
STARTCHAR 002E
ENCODING 46
SWIDTH 456 0
DWIDTH 21 0
BBX 19 33 1 0
BITMAP
0FFFE0
003C00
003C00
003C00
003C00
003C00
003C00
003C00
003C00
003C00
003C00
003C00
003C00
003C00
003C00
003C00
003C00
003C00
003C00
003C00
003C00
003C00
003C00
003C00
003C00
703C00
F83C00
F83C00
F83800
F07800
F07000
706000
1FC000
ENDCHAR
STARTCHAR 002F
ENCODING 47
SWIDTH 739 0
DWIDTH 34 0
BBX 33 33 1 0
BITMAP
FFFE0FF800
07C0008000
07C0010000
07C0020000
07C0040000
07C0080000
07C0100000
07C0200000
07C0400000
07C0800000
07C1000000
07C2000000
07C4000000
07C4000000
07CE000000
07DF000000
07FF800000
07CF800000
07C7C00000
07C7E00000
07C3F00000
07C1F80000
07C0FC0000
07C07E0000
07C03F0000
07C03F0000
07C01F8000
07C00FC000
07C007E000
07C003F000
07C001F800
07C000FC00
FFFE0FFF80
ENDCHAR
STARTCHAR 0030
ENCODING 48
SWIDTH 695 0
DWIDTH 32 0
BBX 28 33 1 0
BITMAP
FFFE0000
07C00000
07C00000
07C00000
07C00000
07C00000
07C00000
07C00000
07C00000
07C00000
07C00000
07C00000
07C00000
07C00000
07C00000
07C00000
07C00000
07C00000
07C00000
07C00000
07C00000
07C00000
07C00000
07C00010
07C00010
07C00010
07C00010
07C00030
07C00030
07C00070
07C000F0
07C001F0
FFFFFFF0
ENDCHAR
STARTCHAR 0031
ENCODING 49
SWIDTH 869 0
DWIDTH 40 0
BBX 38 33 1 0
BITMAP
FFE0001FFC
07E0001F80
05E0001F80
05F0002F80
05F0002F80
04F0004F80
04F8004F80
04F8004F80
0478008F80
047C008F80
047C008F80
043C010F80
043E010F80
043E010F80
041E020F80
041F020F80
041F020F80
040F840F80
040F840F80
040F840F80
0407C80F80
0407C80F80
0407C80F80
0403F00F80
0403F00F80
0403F00F80
0401E00F80
0401E00F80
0401E00F80
0400C00F80
0400C00F80
0400400F80
FFE081FFFC
ENDCHAR
STARTCHAR 0032
ENCODING 50
SWIDTH 717 0
DWIDTH 33 0
BBX 31 33 1 0
BITMAP
FFC00FFE
07E00040
07E00040
07F00040
05F80040
04F80040
04FC0040
047C0040
043E0040
043F0040
041F0040
040F8040
040FC040
0407C040
0407E040
0403E040
0401F040
0401F840
0400F840
04007C40
04007E40
04003E40
04001F40
04001F40
04000FC0
04000FC0
040007C0
040003C0
040003C0
040001C0
040000C0
040000C0
FFE00040
ENDCHAR
STARTCHAR 0033
ENCODING 51
SWIDTH 826 0
DWIDTH 38 0
BBX 32 33 3 0
BITMAP
000FF000
00300E00
00C00100
010000C0
03000060
06000070
0E000078
1C000038
3C00003C
3C00003E
7C00003E
7C00001E
7C00001F
FC00001F
F800001F
F800001F
F800001F
F800001F
F800001F
F800001F
7C00001F
7C00001E
7C00003E
3C00003C
3C00003C
1C000038
1E000038
0E000070
07000060
030000C0
00800100
00400200
003FFC00
ENDCHAR
STARTCHAR 0034
ENCODING 52
SWIDTH 652 0
DWIDTH 30 0
BBX 26 33 1 0
BITMAP
FFFFC000
07C07800
07C01E00
07C00F00
07C00F80
07C00780
07C007C0
07C007C0
07C007C0
07C007C0
07C007C0
07C007C0
07C00780
07C00F80
07C00F00
07C01E00
07C07800
07FFC000
07C00000
07C00000
07C00000
07C00000
07C00000
07C00000
07C00000
07C00000
07C00000
07C00000
07C00000
07C00000
07C00000
07C00000
FFFE0000
ENDCHAR
STARTCHAR 0035
ENCODING 53
SWIDTH 826 0
DWIDTH 38 0
BBX 32 42 3 -9
BITMAP
000FF000
00300E00
00C00100
010000C0
03000060
06000070
0E000078
1C000038
3C00003C
3C00003E
7C00003E
7C00001E
7C00001F
FC00001F
F800001F
F800001F
F800001F
F800001F
F800001F
F800001F
FC00001F
7C00001E
7C00003E
7C00003C
3C00003C
3C000038
1E000038
0E000070
0F000060
070000C0
03800100
00C00200
00701C00
000FE000
00030000
0001E000
0000FE00
00007F00
00003F80
00001FC0
00000FE0
000001FE
ENDCHAR
STARTCHAR 0036
ENCODING 54
SWIDTH 717 0
DWIDTH 33 0
BBX 32 33 1 0
BITMAP
FFFFE000
07C07800
07C03E00
07C01F00
07C00F00
07C00F80
07C00F80
07C00F80
07C00F80
07C00F80
07C00F80
07C00F00
07C01E00
07C01C00
07C07000
07FFE000
07C03C00
07C01F00
07C00F80
07C00780
07C007C0
07C007C0
07C007C0
07C007C0
07C007C0
07C007C0
07C003C0
07C003C0
07C003C0
07C003E0
07C001E0
07C001F1
FFFE007E
ENDCHAR
STARTCHAR 0037
ENCODING 55
SWIDTH 673 0
DWIDTH 31 0
BBX 24 33 3 0
BITMAP
01FF88
0600F8
080078
100038
100018
300018
300008
700008
700000
780000
7C0000
7E0000
3FC000
3FF800
1FFF00
0FFFE0
03FFF8
007FFC
000FFE
0001FE
00007E
00001F
00001F
80000F
80000F
C0000E
C0000E
C0000E
E0000C
F00018
F00010
FC0040
87FF80
ENDCHAR
STARTCHAR 0038
ENCODING 56
SWIDTH 673 0
DWIDTH 31 0
BBX 28 33 2 0
BITMAP
FFFFFFF0
F01F01F0
E01F00F0
C01F0070
C01F0030
801F0030
801F0010
801F0010
001F0000
001F0000
001F0000
001F0000
001F0000
001F0000
001F0000
001F0000
001F0000
001F0000
001F0000
001F0000
001F0000
001F0000
001F0000
001F0000
001F0000
001F0000
001F0000
001F0000
001F0000
001F0000
001F0000
001F0000
03FFF800
ENDCHAR
STARTCHAR 0039
ENCODING 57
SWIDTH 760 0
DWIDTH 35 0
BBX 33 33 1 0
BITMAP
FFFE03FF80
07C0001000
07C0001000
07C0001000
07C0001000
07C0001000
07C0001000
07C0001000
07C0001000
07C0001000
07C0001000
07C0001000
07C0001000
07C0001000
07C0001000
07C0001000
07C0001000
07C0001000
07C0001000
07C0001000
07C0001000
07C0001000
07C0001000
07C0001000
07C0001000
07C0001000
03C0002000
03C0002000
01C0004000
01E0004000
00E0008000
0030030000
000FFC0000
ENDCHAR
STARTCHAR 003A
ENCODING 58
SWIDTH 717 0
DWIDTH 33 0
BBX 35 33 -1 0
BITMAP
FFFE007FE0
07C0000400
07C0000400
03E0000400
03E0000800
03E0000800
01F0001000
01F0001000
00F8001000
00F8002000
00F8002000
007C004000
007C004000
003E004000
003E008000
003E008000
001F008000
001F010000
001F010000
000F820000
000F820000
0007C20000
0007C40000
0007C40000
0003E40000
0003E80000
0001F80000
0001F00000
0001F00000
0000F00000
0000E00000
0000600000
0000400000
ENDCHAR
STARTCHAR 003B
ENCODING 59
SWIDTH 1065 0
DWIDTH 49 0
BBX 50 33 0 0
BITMAP
FFF87FFE00FFC0
0F8007C0000800
0F8007C0000800
07C003E0000800
07C003E0001000
07C001E0001000
03E001F0001000
03E001F0002000
01E000F8002000
01F000F8004000
01F000F8004000
00F800FC004000
00F8017C008000
00F8013C008000
007C023E008000
007C023E010000
007C021E010000
003E041F010000
003E041F020000
001E040F820000
001F080F840000
001F080F840000
000F0807C40000
000F9007C80000
000F9003C80000
0007E003E80000
0007E003F00000
0007E001F00000
0003C001E00000
0003C001E00000
0003C000E00000
00018000C00000
00018000C00000
ENDCHAR
STARTCHAR 003C
ENCODING 60
SWIDTH 760 0
DWIDTH 35 0
BBX 33 33 1 0
BITMAP
FFFC0FF800
07C0008000
07E0010000
03E0020000
03F0020000
01F8040000
00F8040000
00FC080000
007C100000
007E100000
003F200000
001F200000
001FC00000
000F800000
000FC00000
0007E00000
0003E00000
0003F00000
0005F00000
0009F80000
0008FC0000
00107C0000
00207E0000
00203E0000
00403F0000
00401F8000
00800F8000
01000FC000
010007C000
020003E000
020003F000
040001F000
FFC01FFF80
ENDCHAR
STARTCHAR 003D
ENCODING 61
SWIDTH 695 0
DWIDTH 32 0
BBX 32 33 0 0
BITMAP
FFFC01FF
07C00010
07C00020
03E00020
03F00040
01F00080
01F80080
00F80100
00FC0100
007C0200
003E0200
003E0400
001F0400
001F8800
000F8800
000FD000
0007D000
0003E000
0003E000
0003E000
0003E000
0003E000
0003E000
0003E000
0003E000
0003E000
0003E000
0003E000
0003E000
0003E000
0003E000
0003E000
007FFF00
ENDCHAR
STARTCHAR 003E
ENCODING 62
SWIDTH 652 0
DWIDTH 30 0
BBX 26 33 2 0
BITMAP
1FFFFF80
1F001F00
1C003E00
18003E00
18007C00
1000FC00
1000F800
2001F000
0001F000
0003E000
0007E000
0007C000
000F8000
000F8000
001F0000
003F0000
003E0000
007C0000
007C0000
00F80000
01F80000
01F00000
03E00000
03E00040
07C00040
0FC000C0
0F8000C0
1F0001C0
1F0001C0
3E0003C0
3E0007C0
7C001FC0
FFFFFFC0
ENDCHAR
STARTCHAR 003F
ENCODING 63
SWIDTH 282 0
DWIDTH 13 0
BBX 5 46 6 -13
BITMAP
F8
80
80
80
80
80
80
80
80
80
80
80
80
80
80
80
80
80
80
80
80
80
80
80
80
80
80
80
80
80
80
80
80
80
80
80
80
80
80
80
80
80
80
80
80
F8
ENDCHAR
STARTCHAR 0040
ENCODING 64
SWIDTH 304 0
DWIDTH 14 0
BBX 13 33 0 0
BITMAP
8000
4000
4000
4000
2000
2000
3000
1000
1000
0800
0800
0800
0400
0400
0200
0200
0200
0100
0100
0100
0080
0080
0040
0040
0040
0020
0020
0030
0010
0010
0008
0008
0008
ENDCHAR
STARTCHAR 0041
ENCODING 65
SWIDTH 282 0
DWIDTH 13 0
BBX 6 46 1 -13
BITMAP
FC
04
04
04
04
04
04
04
04
04
04
04
04
04
04
04
04
04
04
04
04
04
04
04
04
04
04
04
04
04
04
04
04
04
04
04
04
04
04
04
04
04
04
04
04
FC
ENDCHAR
STARTCHAR 0042
ENCODING 66
SWIDTH 586 0
DWIDTH 27 0
BBX 17 19 5 14
BITMAP
008000
008000
014000
014000
012000
022000
021000
041000
041000
080800
080800
080400
100400
100400
200200
200200
600100
400100
C00080
ENDCHAR
STARTCHAR 0043
ENCODING 67
SWIDTH 500 0
DWIDTH 23 0
BBX 23 1 0 -5
BITMAP
FFFFFE
ENDCHAR
STARTCHAR 0044
ENCODING 68
SWIDTH 282 0
DWIDTH 13 0
BBX 9 9 0 25
BITMAP
6000
F000
F000
3800
1C00
0E00
0700
0100
0080
ENDCHAR
STARTCHAR 0045
ENCODING 69
SWIDTH 478 0
DWIDTH 22 0
BBX 20 20 2 0
BITMAP
07F000
180C00
380E00
380E00
780F00
780F00
380F00
000F00
001F00
00EF00
070F00
3C0F00
780F00
F00F00
F00F00
F00F00
F01F00
F02F00
782710
1FC3E0
ENDCHAR
STARTCHAR 0046
ENCODING 70
SWIDTH 586 0
DWIDTH 27 0
BBX 24 33 1 0
BITMAP
FF0000
0F0000
0F0000
0F0000
0F0000
0F0000
0F0000
0F0000
0F0000
0F0000
0F0000
0F0000
0F0000
0F3F80
0F4060
0F8030
0F8018
0F001C
0F001E
0F001E
0F001F
0F001F
0F001F
0F001F
0F001F
0F001F
0F001E
0F001E
0F001C
0F8018
0F8030
0F4020
FF3FC0
ENDCHAR
STARTCHAR 0047
ENCODING 71
SWIDTH 478 0
DWIDTH 22 0
BBX 19 20 2 0
BITMAP
01FC00
060300
0C0380
1C03C0
3803C0
7803C0
7803C0
F80000
F80000
F80000
F80000
F80000
F80000
780000
780000
780060
3C0040
1C0080
060080
01FF00
ENDCHAR
STARTCHAR 0048
ENCODING 72
SWIDTH 586 0
DWIDTH 27 0
BBX 24 33 2 0
BITMAP
0007F0
0000F0
0000F0
0000F0
0000F0
0000F0
0000F0
0000F0
0000F0
0000F0
0000F0
0000F0
0000F0
01F8F0
0606F0
0C01F0
1C00F0
3800F0
7800F0
7800F0
7800F0
F800F0
F800F0
F800F0
7800F0
7800F0
7800F0
3800F0
380170
1C0170
0C0370
060270
01FC7F
ENDCHAR
STARTCHAR 0049
ENCODING 73
SWIDTH 500 0
DWIDTH 23 0
BBX 19 20 2 0
BITMAP
01F800
060700
0C0380
1C03C0
3803C0
7803E0
7803E0
F803E0
FFFC00
F80000
F80000
F80000
F80000
780000
780000
380060
3C0040
1C0080
060080
01FF00
ENDCHAR
STARTCHAR 004A
ENCODING 74
SWIDTH 326 0
DWIDTH 15 0
BBX 18 33 1 0
BITMAP
003E00
00C180
0181C0
0301C0
0703C0
0703C0
0F01C0
0F0000
0F0000
0F0000
0F0000
0F0000
0F0000
FFF800
0F0000
0F0000
0F0000
0F0000
0F0000
0F0000
0F0000
0F0000
0F0000
0F0000
0F0000
0F0000
0F0000
0F0000
0F0000
0F0000
0F0000
0F0000
FFF000
ENDCHAR
STARTCHAR 004B
ENCODING 75
SWIDTH 521 0
DWIDTH 24 0
BBX 22 33 2 -13
BITMAP
01F838
0604DC
0C031C
18038C
3803C0
3803C0
3803C0
3803C0
380380
3C0380
1C0700
0E0E00
11F800
600000
400000
C00000
E00000
FFFE00
FFFF80
7FFFC0
3FFFE0
0401E0
1800E0
300060
700060
700060
700060
700040
7000C0
700080
380100
1E0600
07F800
ENDCHAR
STARTCHAR 004C
ENCODING 76
SWIDTH 608 0
DWIDTH 28 0
BBX 26 33 1 0
BITMAP
FF000000
0F000000
0F000000
0F000000
0F000000
0F000000
0F000000
0F000000
0F000000
0F000000
0F000000
0F000000
0F000000
0F0FE000
0F303800
0F403800
0F803C00
0F803C00
0F003C00
0F003C00
0F003C00
0F003C00
0F003C00
0F003C00
0F003C00
0F003C00
0F003C00
0F003C00
0F003C00
0F003C00
0F003C00
0F003C00
FFE1FFC0
ENDCHAR
STARTCHAR 004D
ENCODING 77
SWIDTH 304 0
DWIDTH 14 0
BBX 11 33 1 0
BITMAP
0E00
1F00
1F00
1F00
0E00
0000
0000
0000
0000
0000
0000
0000
0000
FF00
0F00
0F00
0F00
0F00
0F00
0F00
0F00
0F00
0F00
0F00
0F00
0F00
0F00
0F00
0F00
0F00
0F00
0F00
FFE0
ENDCHAR
STARTCHAR 004E
ENCODING 78
SWIDTH 304 0
DWIDTH 14 0
BBX 12 46 -3 -13
BITMAP
00E0
01F0
01F0
01F0
00E0
0000
0000
0000
0000
0000
0000
0000
0000
0FF0
00F0
00F0
00F0
00F0
00F0
00F0
00F0
00F0
00F0
00F0
00F0
00F0
00F0
00F0
00F0
00F0
00F0
00F0
00F0
00F0
00F0
00F0
00F0
00F0
00F0
00E0
E0E0
E0E0
E0C0
E0C0
6180
3E00
ENDCHAR
STARTCHAR 004F
ENCODING 79
SWIDTH 543 0
DWIDTH 25 0
BBX 24 33 1 0
BITMAP
FF0000
0F0000
0F0000
0F0000
0F0000
0F0000
0F0000
0F0000
0F0000
0F0000
0F0000
0F0000
0F0000
0F03F8
0F0040
0F0080
0F0100
0F0600
0F0800
0F1000
0F3000
0F7800
0FF800
0F7C00
0F3E00
0F1F00
0F0F80
0F07C0
0F07C0
0F03E0
0F01F0
0F00F8
FFC7FF
ENDCHAR
STARTCHAR 0050
ENCODING 80
SWIDTH 304 0
DWIDTH 14 0
BBX 11 33 1 0
BITMAP
FF00
0F00
0F00
0F00
0F00
0F00
0F00
0F00
0F00
0F00
0F00
0F00
0F00
0F00
0F00
0F00
0F00
0F00
0F00
0F00
0F00
0F00
0F00
0F00
0F00
0F00
0F00
0F00
0F00
0F00
0F00
0F00
FFE0
ENDCHAR
STARTCHAR 0051
ENCODING 81
SWIDTH 869 0
DWIDTH 40 0
BBX 38 20 1 0
BITMAP
FE1FC0FE00
1E60730380
1E807401C0
1E807C01C0
1F007801C0
1F007801C0
1F007801E0
1E007801E0
1E007801E0
1E007801E0
1E007801E0
1E007801E0
1E007801E0
1E007801E0
1E007801E0
1E007801E0
1E007801E0
1E007801E0
1E007801E0
FFE7FF9FFC
ENDCHAR
STARTCHAR 0052
ENCODING 82
SWIDTH 608 0
DWIDTH 28 0
BBX 26 20 1 0
BITMAP
FF0FE000
0F303800
0F403800
0F803C00
0F803C00
0F003C00
0F003C00
0F003C00
0F003C00
0F003C00
0F003C00
0F003C00
0F003C00
0F003C00
0F003C00
0F003C00
0F003C00
0F003C00
0F003C00
FFE1FFC0
ENDCHAR
STARTCHAR 0053
ENCODING 83
SWIDTH 565 0
DWIDTH 26 0
BBX 22 20 2 0
BITMAP
01FC00
060300
0C00C0
1C00E0
3800F0
780070
780078
F80078
F80078
F80078
F8007C
F80078
F80078
780078
780070
3800F0
1C00E0
0C00C0
060100
01FE00
ENDCHAR
STARTCHAR 0054
ENCODING 84
SWIDTH 586 0
DWIDTH 27 0
BBX 24 33 1 -13
BITMAP
FF3F80
0F4060
0F8030
0F8018
0F001C
0F001E
0F001E
0F001F
0F001F
0F001F
0F001F
0F001F
0F001F
0F001E
0F001E
0F001C
0F8018
0F8030
0F4020
0F20C0
0F1F00
0F0000
0F0000
0F0000
0F0000
0F0000
0F0000
0F0000
0F0000
0F0000
0F0000
0F0000
FFE000
ENDCHAR
STARTCHAR 0055
ENCODING 85
SWIDTH 586 0
DWIDTH 27 0
BBX 24 33 2 -13
BITMAP
01F87F
060670
0C0170
1C0170
3800F0
7800F0
7800F0
7800F0
F800F0
F800F0
F800F0
7800F0
7800F0
7800F0
3800F0
3800F0
1C00F0
0C01F0
0602F0
010CF0
00F0F0
0000F0
0000F0
0000F0
0000F0
0000F0
0000F0
0000F0
0000F0
0000F0
0000F0
0000F0
0007FF
ENDCHAR
STARTCHAR 0056
ENCODING 86
SWIDTH 413 0
DWIDTH 19 0
BBX 18 20 1 0
BITMAP
FF1F00
0F2380
0F43C0
0F83C0
0F83C0
0F0380
0F0000
0F0000
0F0000
0F0000
0F0000
0F0000
0F0000
0F0000
0F0000
0F0000
0F0000
0F0000
0F0000
FFF000
ENDCHAR
STARTCHAR 0057
ENCODING 87
SWIDTH 434 0
DWIDTH 20 0
BBX 14 20 3 0
BITMAP
1FF0
2030
4030
4010
C010
E010
F000
FE00
FFC0
7FF0
3FF8
07FC
01FC
003C
801C
801C
801C
C018
E010
BFE0
ENDCHAR
STARTCHAR 0058
ENCODING 88
SWIDTH 326 0
DWIDTH 15 0
BBX 15 26 1 0
BITMAP
1200
1E00
1E00
1E00
1E00
1E00
FFFC
1E00
1E00
1E00
1E00
1E00
1E00
1E00
1E00
1E00
1E00
1E00
1E00
1E00
1E00
1E00
1E02
0E04
0F04
03F8
ENDCHAR
STARTCHAR 0059
ENCODING 89
SWIDTH 586 0
DWIDTH 27 0
BBX 25 20 1 0
BITMAP
FF03FC00
0F003C00
0F003C00
0F003C00
0F003C00
0F003C00
0F003C00
0F003C00
0F003C00
0F003C00
0F003C00
0F003C00
0F003C00
0F007C00
0F007C00
0F00BC00
0F00BC00
07013C00
07023C00
01FC3F80
ENDCHAR
STARTCHAR 005A
ENCODING 90
SWIDTH 478 0
DWIDTH 22 0
BBX 23 22 -1 -2
BITMAP
FFE0FE
1F0010
0F0010
0F8020
078020
078020
07C040
03C040
03E080
01E080
01E100
01F100
00F100
00FA00
007A00
007C00
007C00
003C00
003800
001800
001000
001000
ENDCHAR
STARTCHAR 005B
ENCODING 91
SWIDTH 739 0
DWIDTH 34 0
BBX 34 22 0 -2
BITMAP
FFE3FE1FC0
1E00F00100
1F00F80200
0F00780200
0F00780400
0780BC0400
0780BC0400
07813C0800
03C11E0800
03C21E0800
03C21F1000
01E20F1000
01E40F2000
01F407A000
00F807A000
00F807C000
00F803C000
0070038000
0070038000
0060018000
0020010000
0020010000
ENDCHAR
STARTCHAR 005C
ENCODING 92
SWIDTH 478 0
DWIDTH 22 0
BBX 22 20 0 0
BITMAP
FFE7F0
1F0080
0F0080
0F8100
07C200
03C600
03E400
01F800
00F000
00F800
007C00
007C00
009E00
011F00
010F00
020780
0407C0
0803E0
0801E0
7E0FFC
ENDCHAR
STARTCHAR 005D
ENCODING 93
SWIDTH 478 0
DWIDTH 22 0
BBX 24 33 -1 -13
BITMAP
7FF0FF
0F8008
078010
078010
07C010
03C020
03E020
01E040
01E040
01F080
00F080
00F880
00F900
007900
007E00
003E00
003C00
003C00
001C00
001800
000800
001000
001000
002000
002000
002000
004000
004000
708000
F08000
F10000
F10000
3E0000
ENDCHAR
STARTCHAR 005E
ENCODING 94
SWIDTH 434 0
DWIDTH 20 0
BBX 16 20 2 0
BITMAP
7FFF
701E
403C
403C
8078
00F8
00F0
01E0
01E0
03C0
07C0
0780
0F80
0F00
1E01
3E01
3C01
7C03
7803
FFFF
ENDCHAR
STARTCHAR 005F
ENCODING 95
SWIDTH 326 0
DWIDTH 15 0
BBX 14 46 2 -13
BITMAP
001C
0060
0180
0100
0200
0200
0200
0200
0200
0200
0200
0200
0200
0200
0200
0200
0200
0200
0200
0400
0400
0800
7000
E000
1800
0400
0400
0400
0200
0200
0200
0200
0200
0200
0200
0200
0200
0200
0200
0200
0200
0200
0100
0180
0040
001C
ENDCHAR
STARTCHAR 0060
ENCODING 96
SWIDTH 217 0
DWIDTH 10 0
BBX 1 47 5 -12
BITMAP
80
80
80
80
80
80
80
80
80
80
80
80
80
80
80
80
80
80
80
80
80
80
80
80
80
80
80
80
80
80
80
80
80
80
80
80
80
80
80
80
80
80
80
80
80
80
80
ENDCHAR
STARTCHAR 0061
ENCODING 97
SWIDTH 326 0
DWIDTH 15 0
BBX 14 46 0 -13
BITMAP
E000
1800
0400
0400
0200
0200
0200
0200
0200
0200
0200
0100
0100
0100
0100
0100
0100
0100
0100
0100
0080
00C0
0030
003C
00C0
0080
0100
0100
0100
0100
0100
0100
0100
0100
0100
0100
0200
0200
0200
0200
0200
0200
0400
0400
1800
E000
ENDCHAR
STARTCHAR 0062
ENCODING 98
SWIDTH 586 0
DWIDTH 27 0
BBX 26 8 1 7
BITMAP
000000C0
0F000080
30E00080
60380100
40060100
80018600
80007C00
80000000
ENDCHAR
STARTCHAR 0063
ENCODING 99
SWIDTH 739 0
DWIDTH 34 0
BBX 34 41 0 0
BITMAP
001C0E0000
001E1E0000
001E1E0000
001C0E0000
0000000000
0000000000
0000000000
0000000000
0000C00000
0000C00000
0001C00000
0001E00000
0001E00000
0003F00000
0003F00000
0005F00000
0004F80000
0004F80000
00087C0000
00087C0000
00107C0000
00103E0000
00103E0000
00201F0000
00201F0000
00401F0000
00400F8000
007FFF8000
00800F8000
008007C000
008007C000
010003E000
010003E000
020003E000
020001F000
020001F000
040000F800
040000F800
080000F800
0800007C00
FFC00FFFC0
ENDCHAR
STARTCHAR 0064
ENCODING 100
SWIDTH 739 0
DWIDTH 34 0
BBX 34 43 0 0
BITMAP
0001E00000
0002100000
0006180000
0006180000
0006180000
0006180000
0002100000
0001200000
0000C00000
0000000000
0000C00000
0000C00000
0001C00000
0001E00000
0001E00000
0003F00000
0003F00000
0005F00000
0004F80000
0004F80000
00087C0000
00087C0000
00107C0000
00103E0000
00103E0000
00201F0000
00201F0000
00401F0000
00400F8000
007FFF8000
00800F8000
008007C000
008007C000
010003E000
010003E000
020003E000
020001F000
020001F000
040000F800
040000F800
080000F800
0800007C00
FFC00FFFC0
ENDCHAR
STARTCHAR 0065
ENCODING 101
SWIDTH 717 0
DWIDTH 33 0
BBX 27 44 4 -11
BITMAP
001FFC40
006007C0
018001C0
030001C0
060000C0
0E000040
1C000040
3C000040
3C000040
78000000
78000000
F8000000
F8000000
F8000000
F8000000
F8000000
F8000000
F8000000
F8000000
F8000000
F8000000
F8000000
78000000
78000020
3C000020
3C000020
1C000060
0E000060
060000E0
030000E0
018001E0
004003E0
00300C20
000FF000
00040000
00040000
000F8000
0008C000
0000E000
0000E000
0000E000
0000E000
0020C000
001F8000
ENDCHAR
STARTCHAR 0066
ENCODING 102
SWIDTH 695 0
DWIDTH 32 0
BBX 28 43 1 0
BITMAP
00000C00
00001E00
00003C00
00007800
0000E000
0000C000
00018000
00020000
00040000
00000000
FFFFFFE0
07C003E0
07C001E0
07C000E0
07C00060
07C00060
07C00020
07C00020
07C01000
07C01000
07C01000
07C01000
07C03000
07C03000
07C0F000
07FFF000
07C0F000
07C03000
07C03000
07C01000
07C01000
07C01000
07C01000
07C00010
07C00010
07C00010
07C00010
07C00030
07C00030
07C00070
07C000F0
07C001F0
FFFFFFF0
ENDCHAR
STARTCHAR 0067
ENCODING 103
SWIDTH 717 0
DWIDTH 33 0
BBX 31 41 1 0
BITMAP
00000200
001E0400
003F8400
0043F800
0080F000
00000000
00000000
00000000
FFC00FFE
07E00040
07E00040
05F00040
05F80040
04F80040
04FC0040
047C0040
043E0040
043F0040
041F0040
040F8040
040FC040
0407C040
0403E040
0403E040
0401F040
0401F840
0400F840
04007C40
04007E40
04003E40
04001F40
04001F40
04000FC0
04000FC0
040007C0
040003C0
040003C0
040001C0
040000C0
040000C0
FFE00040
ENDCHAR
STARTCHAR 0068
ENCODING 104
SWIDTH 826 0
DWIDTH 38 0
BBX 32 41 3 0
BITMAP
00381C00
003C3C00
003C3E00
00381C00
00000000
00000000
00000000
00000000
000FF000
00300E00
00C00100
010000C0
03000060
06000070
0E000078
1C000038
3C00003C
3C00003E
7C00003E
7C00001E
7C00001F
FC00001F
F800001F
F800001F
F800001F
F800001F
F800001F
F800001F
7C00001F
7C00001E
7C00003E
3C00003C
3C00003C
1C000038
1E000038
0E000070
07000060
030000C0
00800100
00400200
003FFC00
ENDCHAR
STARTCHAR 0069
ENCODING 105
SWIDTH 760 0
DWIDTH 35 0
BBX 33 41 1 0
BITMAP
000C0E0000
001E1F0000
001E1F0000
000C0E0000
0000000000
0000000000
0000000000
0000000000
FFFE03FF80
07C0001000
07C0001000
07C0001000
07C0001000
07C0001000
07C0001000
07C0001000
07C0001000
07C0001000
07C0001000
07C0001000
07C0001000
07C0001000
07C0001000
07C0001000
07C0001000
07C0001000
07C0001000
07C0001000
07C0001000
07C0001000
07C0001000
07C0001000
07C0001000
07C0001000
03C0002000
03C0002000
03C0004000
01E0004000
00E0008000
0030030000
000FFC0000
ENDCHAR
STARTCHAR 006A
ENCODING 106
SWIDTH 478 0
DWIDTH 22 0
BBX 20 34 2 0
BITMAP
000300
000700
000F00
001E00
003800
003000
004000
008000
010000
000000
000000
000000
000000
000000
07F000
180C00
380E00
380E00
780F00
780F00
380F00
000F00
001F00
00EF00
070F00
3C0F00
780F00
F00F00
F00F00
F00F00
F01F00
F02F00
782710
1FC3E0
ENDCHAR
STARTCHAR 006B
ENCODING 107
SWIDTH 478 0
DWIDTH 22 0
BBX 20 34 2 0
BITMAP
1C0000
1C0000
1E0000
070000
038000
01C000
006000
002000
001000
000000
000000
000000
000000
000000
07F000
180C00
380E00
380E00
780F00
780F00
380F00
000F00
001F00
00EF00
070F00
3C0F00
780F00
F00F00
F00F00
F00F00
F01F00
F02F00
782710
1FC3E0
ENDCHAR
STARTCHAR 006C
ENCODING 108
SWIDTH 478 0
DWIDTH 22 0
BBX 20 33 2 0
BITMAP
01E000
01E000
03F000
073800
061800
0C0C00
100200
200100
000000
000000
000000
000000
000000
07F000
180C00
380E00
380E00
780F00
780F00
380F00
000F00
001F00
00EF00
070F00
3C0F00
780F00
F00F00
F00F00
F00F00
F01F00
F02F00
782710
1FC3E0
ENDCHAR
STARTCHAR 006D
ENCODING 109
SWIDTH 478 0
DWIDTH 22 0
BBX 20 32 2 0
BITMAP
1C0E00
1E1E00
1E1E00
1C0E00
000000
000000
000000
000000
000000
000000
000000
000000
07F000
180C00
380E00
380E00
780F00
780F00
380F00
000F00
001F00
00EF00
070F00
3C0F00
780F00
F00F00
F00F00
F00F00
F01F00
F02F00
782710
1FC3E0
ENDCHAR
STARTCHAR 006E
ENCODING 110
SWIDTH 478 0
DWIDTH 22 0
BBX 20 31 2 0
BITMAP
0F0100
1FE300
31FE00
207C00
000000
000000
000000
000000
000000
000000
000000
07F000
180C00
380E00
380E00
780F00
780F00
380F00
000F00
001F00
00EF00
070F00
3C0F00
780F00
F00F00
F00F00
F00F00
F01F00
F02F00
782710
1FC3E0
ENDCHAR
STARTCHAR 006F
ENCODING 111
SWIDTH 478 0
DWIDTH 22 0
BBX 20 34 2 0
BITMAP
01E000
033000
061800
061800
061800
061800
021000
012000
00C000
000000
000000
000000
000000
000000
07F000
1C1C00
380E00
380E00
780F00
780F00
380F00
000F00
001F00
002F00
01CF00
1E0F00
780F00
F00F00
F00F00
F00F00
F01F00
F02F00
782710
1FC3E0
ENDCHAR
STARTCHAR 0070
ENCODING 112
SWIDTH 478 0
DWIDTH 22 0
BBX 19 31 2 -11
BITMAP
01FC00
060300
0C0380
1C03C0
3803C0
7803C0
7803C0
F80000
F80000
F80000
F80000
F80000
F80000
F80000
780000
780060
3C0040
1C0080
0E0080
070300
00FC00
002000
004000
00F800
011C00
000E00
000E00
000E00
000E00
020C00
01F000
ENDCHAR
STARTCHAR 0071
ENCODING 113
SWIDTH 500 0
DWIDTH 23 0
BBX 19 34 2 0
BITMAP
000300
000780
000F00
000E00
001C00
003000
006000
008000
000000
000000
000000
000000
000000
000000
01F800
060700
0C0380
1C03C0
3803C0
7803E0
7803E0
F803E0
FFFC00
F80000
F80000
F80000
F80000
780000
780000
380060
3C0040
1C0080
060080
01FF00
ENDCHAR
STARTCHAR 0072
ENCODING 114
SWIDTH 500 0
DWIDTH 23 0
BBX 19 34 2 0
BITMAP
0C0000
1E0000
0F0000
078000
038000
00C000
006000
001000
000800
000000
000000
000000
000000
000000
01F800
060700
0C0380
1C03C0
3803C0
7803E0
7803E0
F803E0
FFFC00
F80000
F80000
F80000
F80000
780000
780000
380060
3C0040
1C0080
060080
01FF00
ENDCHAR
STARTCHAR 0073
ENCODING 115
SWIDTH 500 0
DWIDTH 23 0
BBX 19 33 2 0
BITMAP
00E000
01F000
03F800
03B800
060C00
0C0600
080200
100100
000000
000000
000000
000000
000000
01F800
060700
0C0380
1C03C0
3803C0
7803E0
7803E0
F803E0
FFFC00
F80000
F80000
F80000
F80000
780000
780000
380060
3C0040
1C0080
060080
01FF00
ENDCHAR
STARTCHAR 0074
ENCODING 116
SWIDTH 500 0
DWIDTH 23 0
BBX 19 32 2 0
BITMAP
0E0E00
1E0F00
1E0F00
0E0E00
000000
000000
000000
000000
000000
000000
000000
000000
01F800
060700
0C0380
1C03C0
3803C0
7803E0
7803E0
F803E0
FFFC00
F80000
F80000
F80000
F80000
780000
780000
380060
3C0040
1C0080
060080
01FF00
ENDCHAR
STARTCHAR 0075
ENCODING 117
SWIDTH 304 0
DWIDTH 14 0
BBX 13 34 1 0
BITMAP
0038
0038
0078
00F0
01C0
0380
0600
0400
0800
0000
0000
0000
0000
0000
FF00
0F00
0F00
0F00
0F00
0F00
0F00
0F00
0F00
0F00
0F00
0F00
0F00
0F00
0F00
0F00
0F00
0F00
0F00
FFE0
ENDCHAR
STARTCHAR 0076
ENCODING 118
SWIDTH 304 0
DWIDTH 14 0
BBX 12 34 0 0
BITMAP
6000
F000
7800
3C00
0E00
0600
0300
0080
0040
0000
0000
0000
0000
0000
7F80
0780
0780
0780
0780
0780
0780
0780
0780
0780
0780
0780
0780
0780
0780
0780
0780
0780
0780
7FF0
ENDCHAR
STARTCHAR 0077
ENCODING 119
SWIDTH 304 0
DWIDTH 14 0
BBX 13 33 0 0
BITMAP
0700
0F80
0FC0
1CC0
3860
3030
4018
8008
0000
0000
0000
0000
0000
7F80
0780
0780
0780
0780
0780
0780
0780
0780
0780
0780
0780
0780
0780
0780
0780
0780
0780
0780
7FF0
ENDCHAR
STARTCHAR 0078
ENCODING 120
SWIDTH 304 0
DWIDTH 14 0
BBX 13 32 0 0
BITMAP
7030
F878
F878
7030
0000
0000
0000
0000
0000
0000
0000
0000
7F80
0780
0780
0780
0780
0780
0780
0780
0780
0780
0780
0780
0780
0780
0780
0780
0780
0780
0780
7FF0
ENDCHAR
STARTCHAR 0079
ENCODING 121
SWIDTH 608 0
DWIDTH 28 0
BBX 26 31 1 0
BITMAP
00F01000
01FE3000
031FE000
0207C000
00000000
00000000
00000000
00000000
00000000
00000000
00000000
FF0FE000
0F303800
0F403800
0F803C00
0F803C00
0F003C00
0F003C00
0F003C00
0F003C00
0F003C00
0F003C00
0F003C00
0F003C00
0F003C00
0F003C00
0F003C00
0F003C00
0F003C00
0F003C00
FFE1FFC0
ENDCHAR
STARTCHAR 007A
ENCODING 122
SWIDTH 565 0
DWIDTH 26 0
BBX 22 34 2 0
BITMAP
0001C0
0001C0
0003C0
000700
000E00
001C00
003000
002000
004000
000000
000000
000000
000000
000000
01FC00
060300
0C00C0
1C00E0
3800F0
780070
780078
F80078
F80078
F80078
F8007C
F80078
F80078
780078
780070
3800F0
1C00E0
0C00C0
060100
01FE00
ENDCHAR
STARTCHAR 007B
ENCODING 123
SWIDTH 565 0
DWIDTH 26 0
BBX 22 34 2 0
BITMAP
060000
0F0000
078000
03C000
00E000
006000
001000
000800
000400
000000
000000
000000
000000
000000
01FC00
060300
0C00C0
1C00E0
3800F0
780070
780078
F80078
F80078
F80078
F8007C
F80078
F80078
780078
780070
3800F0
1C00E0
0C00C0
060100
01FE00
ENDCHAR
STARTCHAR 007C
ENCODING 124
SWIDTH 565 0
DWIDTH 26 0
BBX 22 33 2 0
BITMAP
007000
00F800
00FC00
01CC00
038600
020300
040180
080080
000000
000000
000000
000000
000000
01FC00
060300
0C00C0
1C00E0
3800F0
780070
780078
F80078
F80078
F80078
F8007C
F80078
F80078
780078
780070
3800F0
1C00E0
0C00C0
060100
01FE00
ENDCHAR
STARTCHAR 007D
ENCODING 125
SWIDTH 565 0
DWIDTH 26 0
BBX 22 32 2 0
BITMAP
070300
0F8780
0F8780
070300
000000
000000
000000
000000
000000
000000
000000
000000
01FC00
060300
0C00C0
1C00E0
3800F0
780070
780078
F80078
F80078
F80078
F8007C
F80078
F80078
780078
780070
3800F0
1C00E0
0C00C0
060100
01FE00
ENDCHAR
STARTCHAR 007E
ENCODING 126
SWIDTH 565 0
DWIDTH 26 0
BBX 22 31 2 0
BITMAP
03C040
07F080
087F80
101E00
000000
000000
000000
000000
000000
000000
000000
01FC00
060300
0C00C0
1C00E0
3800F0
780070
780078
F80078
F80078
F80078
F8007C
F80078
F80078
780078
780070
3800F0
1C00E0
0C00C0
060100
01FE00
ENDCHAR
STARTCHAR 007F
ENCODING 127
SWIDTH 586 0
DWIDTH 27 0
BBX 25 34 1 0
BITMAP
00007000
0000F000
0000F000
0001C000
00038000
00060000
000C0000
00180000
00000000
00000000
00000000
00000000
00000000
00000000
FF03FC00
0F003C00
0F003C00
0F003C00
0F003C00
0F003C00
0F003C00
0F003C00
0F003C00
0F003C00
0F003C00
0F003C00
0F003C00
0F007C00
0F007C00
0F00BC00
0F00BC00
07013C00
07023C00
01FC3F80
ENDCHAR
STARTCHAR 0080
ENCODING 128
SWIDTH 586 0
DWIDTH 27 0
BBX 25 34 1 0
BITMAP
01800000
03C00000
01E00000
00F00000
00380000
00180000
000C0000
00020000
00010000
00000000
00000000
00000000
00000000
00000000
FF03FC00
0F003C00
0F003C00
0F003C00
0F003C00
0F003C00
0F003C00
0F003C00
0F003C00
0F003C00
0F003C00
0F003C00
0F003C00
0F007C00
0F007C00
0F00BC00
0F00BC00
07013C00
07023C00
01FC3F80
ENDCHAR
STARTCHAR 0081
ENCODING 129
SWIDTH 586 0
DWIDTH 27 0
BBX 25 33 1 0
BITMAP
001C0000
003E0000
003F0000
00730000
00C18000
0080C000
01004000
02002000
00000000
00000000
00000000
00000000
00000000
FF03FC00
0F003C00
0F003C00
0F003C00
0F003C00
0F003C00
0F003C00
0F003C00
0F003C00
0F003C00
0F003C00
0F003C00
0F003C00
0F007C00
0F007C00
0F00BC00
0F00BC00
07013C00
07023C00
01FC3F80
ENDCHAR
STARTCHAR 0082
ENCODING 130
SWIDTH 586 0
DWIDTH 27 0
BBX 25 32 1 0
BITMAP
01C0C000
03C1E000
03E1E000
01C0C000
00000000
00000000
00000000
00000000
00000000
00000000
00000000
00000000
FF03FC00
0F003C00
0F003C00
0F003C00
0F003C00
0F003C00
0F003C00
0F003C00
0F003C00
0F003C00
0F003C00
0F003C00
0F003C00
0F007C00
0F007C00
0F00BC00
0F00BC00
07013C00
07023C00
01FC3F80
ENDCHAR
STARTCHAR 0083
ENCODING 131
SWIDTH 521 0
DWIDTH 24 0
BBX 22 46 1 -13
BITMAP
003000
007800
007800
007800
003000
003000
003000
003000
002000
002000
702038
FC21F8
FFFEFC
702038
002000
002000
002000
002000
003000
003000
003000
007800
007800
00FC00
007800
007800
003000
003000
003000
002000
002000
002000
002000
002000
002000
002000
002000
002000
002000
002000
002000
002000
002000
002000
002000
002000
ENDCHAR
STARTCHAR 0084
ENCODING 132
SWIDTH 391 0
DWIDTH 18 0
BBX 12 12 3 21
BITMAP
0F80
3040
4020
4010
8010
8010
8010
8010
4010
4020
3040
0F80
ENDCHAR
STARTCHAR 0085
ENCODING 133
SWIDTH 521 0
DWIDTH 24 0
BBX 18 28 3 -4
BITMAP
000200
000400
000400
000800
01FE00
060B00
1C1380
3813C0
3827C0
7827C0
F82380
F04000
F04000
F08000
F08000
F08000
F10000
F10000
FA0000
7A0040
7A0040
3C0080
1C0100
0B0600
08F800
080000
100000
100000
ENDCHAR
STARTCHAR 0086
ENCODING 134
SWIDTH 630 0
DWIDTH 29 0
BBX 23 33 3 0
BITMAP
003F80
00C060
018070
038070
0780F8
0700F0
0F0070
0F0000
0F0000
0F0000
0F0000
0F0000
0F0000
0F0000
070000
FFFF80
078000
038000
038000
018000
018000
018000
008000
008000
008000
008000
008002
008004
3FE00C
41FFF8
817FF8
423FF0
3C0FC0
ENDCHAR
STARTCHAR 0087
ENCODING 135
SWIDTH 521 0
DWIDTH 24 0
BBX 18 46 3 -13
BITMAP
03FC00
040200
080300
180380
300780
300780
700380
700000
780000
7C0000
3E0000
3F0000
1FC000
0FE000
17F800
21FE00
407F00
803F80
800FC0
8003C0
8001C0
C000C0
E000C0
F000C0
F800C0
FC00C0
7F0080
3FC100
1FE200
07FC00
03FC00
00FE00
003F00
001F80
000780
000780
000380
000380
700180
F00380
F00380
F00300
600200
700400
180800
07F000
ENDCHAR
STARTCHAR 0088
ENCODING 136
SWIDTH 500 0
DWIDTH 23 0
BBX 17 17 3 8
BITMAP
03E000
0FF800
1FFC00
3FFE00
7FFF00
7FFF00
7FFF00
FFFF80
FFFF80
FFFF80
7FFF00
7FFF00
7FFF00
3FFE00
1FFC00
0FF800
03E000
ENDCHAR
STARTCHAR 0089
ENCODING 137
SWIDTH 586 0
DWIDTH 27 0
BBX 25 41 1 -8
BITMAP
00FFFF80
07F83C00
1FF83C00
3FF83C00
3FF83C00
7FF83C00
7FF83C00
FFF83C00
FFF83C00
FFF83C00
FFF83C00
FFF83C00
7FF83C00
7FF83C00
7FF83C00
3FF83C00
1FF83C00
0FF83C00
03F83C00
00083C00
00083C00
00083C00
00083C00
00083C00
00083C00
00083C00
00083C00
00083C00
00083800
00087800
00087800
00087800
00087800
00087000
00087000
0E08E000
1E10E000
1E11C000
1E230000
0E4E0000
07F00000
ENDCHAR
STARTCHAR 008A
ENCODING 138
SWIDTH 608 0
DWIDTH 28 0
BBX 24 33 2 0
BITMAP
003F00
01C0C0
030020
070020
0F0010
0E0010
0E0010
1E0030
1E0020
1E0060
1E00C0
1E0180
1E0700
1E0E00
1E0E00
1E0E00
1E0F00
1E0F80
1E07E0
1E03F0
1E01F8
1E00FC
1E007E
1E003E
1E001F
1E000F
1E000F
1E3807
1E7806
1E7806
1E780C
1E3808
FE0FF0
ENDCHAR
STARTCHAR 008B
ENCODING 139
SWIDTH 500 0
DWIDTH 23 0
BBX 17 16 3 17
BITMAP
07E000
181800
600400
400200
8FE100
822100
822080
83C080
822080
823080
823100
821100
4D8A00
400600
300800
0FF000
ENDCHAR
STARTCHAR 008C
ENCODING 140
SWIDTH 826 0
DWIDTH 38 0
BBX 34 33 2 0
BITMAP
0007F80000
0038070000
00C000C000
0100003000
0600000800
0C00000400
0800400200
1007BF0200
2008030100
2010010080
4030010080
4070010080
4060000040
80E0000040
80E0000040
80E0000040
80E0000040
80E0000040
80E0000040
80E0000040
40E0010040
4070010080
4030010080
2030010080
2018030100
100E0F0300
0801F80200
0C00000400
0600000800
0100003000
00C000C000
0038030000
0007FC0000
ENDCHAR
STARTCHAR 008D
ENCODING 141
SWIDTH 978 0
DWIDTH 45 0
BBX 37 18 3 15
BITMAP
FFFF7E00F8
E1830E01E0
C1831701E0
81811702E0
81811702E0
01801382E0
01801384E0
01801184E0
018011C4E0
018011C8E0
018010C8E0
018010E8E0
018010F0E0
01801070E0
01801060E0
01801060E0
01801020E0
0FF07E43F8
ENDCHAR
STARTCHAR 008E
ENCODING 142
SWIDTH 282 0
DWIDTH 13 0
BBX 10 9 4 25
BITMAP
0180
03C0
07C0
0700
0E00
1C00
3000
2000
C000
ENDCHAR
STARTCHAR 008F
ENCODING 143
SWIDTH 282 0
DWIDTH 13 0
BBX 13 4 0 28
BITMAP
7070
F078
F078
7070
ENDCHAR
STARTCHAR 0090
ENCODING 144
SWIDTH 543 0
DWIDTH 25 0
BBX 24 36 1 -6
BITMAP
000030
000060
000060
0000C0
0000C0
0000C0
000180
000180
000300
000300
000300
000600
FFFFFF
FFFFFF
000C00
000C00
001800
001800
003000
003000
003000
006000
FFFFFF
FFFFFF
00C000
00C000
018000
018000
030000
030000
030000
060000
060000
040000
0C0000
0C0000
ENDCHAR
STARTCHAR 0091
ENCODING 145
SWIDTH 934 0
DWIDTH 43 0
BBX 40 33 0 0
BITMAP
0000FFFFFE
00000FC01E
000017C00E
000017C00E
000027C006
000027C002
000047C002
000047C002
000087C000
000107C040
000107C040
000207C0C0
000207C0C0
000407C1C0
000407C3C0
000807FFC0
001007C3C0
001007C1C0
002007C0C0
005FFFC0C0
004007C040
008007C040
008007C000
010007C000
010007C001
020007C001
040007C001
040007C001
080007C003
080007C007
100007C007
100007C00F
FF00FFFFFF
ENDCHAR
STARTCHAR 0092
ENCODING 146
SWIDTH 826 0
DWIDTH 38 0
BBX 32 40 3 -4
BITMAP
00000040
00000040
00000080
000FF080
00300D00
00C00380
010003C0
030002E0
06000470
0E000478
1E00083C
1C00083C
3C00103E
7C00103E
7C00201E
7C00201F
FC00401F
F800401F
F800801F
F800801F
F801001F
F801001F
F802001F
FC02001F
7C04001E
7C04003E
7C08003C
3C08003C
3C100038
1E100038
0E200070
0E200060
074000C0
03C00100
00C00200
01381C00
0107E000
01000000
02000000
02000000
ENDCHAR
STARTCHAR 0093
ENCODING 147
SWIDTH 717 0
DWIDTH 33 0
BBX 31 19 1 2
BITMAP
00003F80
07C0FFE0
1FE0F870
3871E018
601BE008
400BC00C
400FC004
C0078004
80078006
800F0006
C00F0006
C00F0004
401F8004
601E800C
203CC008
38786018
1FF03070
07E01FE0
00000F80
ENDCHAR
STARTCHAR 0094
ENCODING 148
SWIDTH 586 0
DWIDTH 27 0
BBX 22 22 3 0
BITMAP
002000
002000
002000
002000
002000
002000
002000
002000
002000
FFFFFC
002000
002000
002000
002000
002000
002000
002000
002000
002000
000000
000000
FFFFFC
ENDCHAR
STARTCHAR 0095
ENCODING 149
SWIDTH 543 0
DWIDTH 25 0
BBX 24 32 1 -4
BITMAP
000003
00000F
00003E
0001F8
0007C0
001F00
00FC00
03E000
0F8000
7C0000
F00000
E00000
7C0000
1F0000
07C000
00F800
003E00
000FC0
0001F0
00007C
00001F
000003
000000
000000
000000
000000
000000
000000
000000
000000
FFFFFF
FFFFFF
ENDCHAR
STARTCHAR 0096
ENCODING 150
SWIDTH 543 0
DWIDTH 25 0
BBX 24 32 1 -4
BITMAP
800000
E00000
F80000
3F0000
07C000
01F800
003E00
000F80
0003F0
00007C
00001F
00000F
00003E
0001F0
0007C0
003F00
00F800
03E000
1F8000
7C0000
F00000
800000
000000
000000
000000
000000
000000
000000
000000
000000
FFFFFF
FFFFFF
ENDCHAR
STARTCHAR 0097
ENCODING 151
SWIDTH 565 0
DWIDTH 26 0
BBX 26 33 0 0
BITMAP
FFF03FC0
1F000400
0F000400
0F800800
07800800
07C00800
03C01000
03E01000
03E02000
01E02000
01F02000
00F04000
00F84000
1F78BF00
007C8000
003C8000
003D0000
001F0000
1FFFFF00
001E0000
001E0000
001E0000
001E0000
001E0000
001E0000
001E0000
001E0000
001E0000
001E0000
001E0000
001E0000
001E0000
01FFF000
ENDCHAR
STARTCHAR 0098
ENCODING 152
SWIDTH 586 0
DWIDTH 27 0
BBX 25 33 1 -13
BITMAP
FF03FC00
0F003C00
0F003C00
0F003C00
0F003C00
0F003C00
0F003C00
0F003C00
0F003C00
0F003C00
0F003C00
0F003C00
0F003C00
0F007C00
0F007C00
0F007C00
0F00BC00
0F013C00
0F023C00
0FC83F80
0F300000
0F000000
0F000000
0F000000
0F000000
0F000000
0F000000
0F000000
0F000000
0F000000
0F000000
0F000000
0F000000
ENDCHAR
STARTCHAR 0099
ENCODING 153
SWIDTH 500 0
DWIDTH 23 0
BBX 21 32 1 0
BITMAP
003F00
00FFC0
01FFE0
0381E0
020070
040030
040018
000018
000008
000008
000008
000008
003F08
01C0C8
038068
070028
0E0018
1C0018
3C0018
380010
780010
780030
780020
F00020
F00040
F000C0
700080
700100
780300
380600
1C1800
07E000
ENDCHAR
STARTCHAR 009A
ENCODING 154
SWIDTH 717 0
DWIDTH 33 0
BBX 31 42 1 -10
BITMAP
FFFFFFF8
FFFFFFF8
7E000078
3E000018
1F000018
1F800008
0FC00008
07C00008
03E00000
03F00000
01F00000
00F80000
007C0000
007E0000
003E0000
001F0000
000F8000
000FC000
0007C000
0003E000
0001C000
00018000
00030000
00060000
000E0000
000C0000
00180000
00300000
00700000
00600000
00C00000
01C00000
03800004
03000002
06000006
0E000004
1C00000C
1800003C
3FFFFFFC
7FFFFFFC
FFFFFFFC
FFFFFFFC
ENDCHAR
STARTCHAR 009B
ENCODING 155
SWIDTH 826 0
DWIDTH 38 0
BBX 36 42 1 -10
BITMAP
FFFFFFFFF0
1FFFFFFF00
0F80001F00
0F80001E00
0F80001E00
0F80001E00
0F80001E00
0F80001E00
0F80001E00
0F80001E00
0F80001E00
0F80001E00
0F80001E00
0F80001E00
0F80001E00
0F80001E00
0F80001E00
0F80001E00
0F80001E00
0F80001E00
0F80001E00
0F80001E00
0F80001E00
0F80001E00
0F80001E00
0F80001E00
0F80001E00
0F80001E00
0F80001E00
0F80001E00
0F80001E00
0F80001E00
0F80001E00
0F80001E00
0F80001E00
0F80001E00
0F80001E00
0F80001E00
0F80001E00
0F80001F00
1FC0003F00
FFF803FFF0
ENDCHAR
STARTCHAR 009C
ENCODING 156
SWIDTH 500 0
DWIDTH 23 0
BBX 22 20 0 0
BITMAP
0FFFFC
1FFFFC
3FFFFC
618380
418380
818380
018380
018380
018380
038780
038780
038780
070780
070784
0F0784
1F0784
1F07FC
3E07F8
3E03F8
1C01E0
ENDCHAR
STARTCHAR 009D
ENCODING 157
SWIDTH 282 0
DWIDTH 13 0
BBX 13 47 0 -5
BITMAP
00E0
01F0
03F8
03F0
0270
0600
0600
0600
0600
0600
0600
0600
0700
0700
0700
0700
0700
0700
0700
0700
0700
0700
0700
0700
0700
0700
0700
0700
0700
0700
0700
0700
0700
0700
0700
0700
0700
0700
0700
0600
0600
0200
6200
FE00
FC00
FC00
7000
ENDCHAR
STARTCHAR 009E
ENCODING 158
SWIDTH 304 0
DWIDTH 14 0
BBX 13 12 1 21
BITMAP
1F80
30C0
70E0
70E0
00E0
03E0
1CE0
60E0
E0E0
E0E0
61E0
3E78
ENDCHAR
STARTCHAR 009F
ENCODING 159
SWIDTH 369 0
DWIDTH 17 0
BBX 13 12 2 21
BITMAP
1F80
2060
6030
E030
E038
E038
E038
E038
E030
6070
3060
0F80
ENDCHAR
STARTCHAR 00A0
ENCODING 160
SWIDTH 760 0
DWIDTH 35 0
BBX 32 31 2 0
BITMAP
001FF000
00F01E00
03C00780
078003E0
0F0001F0
1F0000F0
3E0000F8
3E00007C
7C00007C
7C00007C
7C00007E
7C00007E
FC00007E
FC00007E
7C00007E
7C00007E
7C00007C
7E00007C
3E0000FC
3E0000F8
1F0000F8
0F0001F0
078003E0
83E00781
80F81E01
80381803
FFF81FFF
FFF81FFF
FFF83FFF
FFF83FFF
FFF83FFF
ENDCHAR
STARTCHAR 00A1
ENCODING 161
SWIDTH 717 0
DWIDTH 33 0
BBX 29 20 2 0
BITMAP
07F03F00
180CC0C0
380D80E0
780F8070
780F8070
780F8078
780F0078
000F0078
003FFF80
00CF0000
070F0000
3C0F0000
780F0000
F00F0000
F00F0000
F0178008
F0138010
F0238010
7041C020
3F803FC0
ENDCHAR
STARTCHAR 00A2
ENCODING 162
SWIDTH 565 0
DWIDTH 26 0
BBX 22 27 2 -4
BITMAP
000040
000080
000080
01FD00
020300
0C03C0
1C02E0
3804F0
3804F0
780878
780878
F81078
F81078
F8207C
F82078
F84078
784078
788070
7880F0
3900E0
1E00C0
0E0100
050600
04F800
080000
080000
080000
ENDCHAR
STARTCHAR 00A3
ENCODING 163
SWIDTH 413 0
DWIDTH 19 0
BBX 12 34 3 -14
BITMAP
00E0
01F0
01F0
01F0
00E0
0000
0000
0000
0040
0040
0040
0040
0040
0040
0040
0040
0040
1F40
30C0
6040
E000
E000
E000
E000
E000
E000
E000
E0E0
E1E0
E0E0
E0E0
60C0
3080
1F00
ENDCHAR
STARTCHAR 00A4
ENCODING 164
SWIDTH 304 0
DWIDTH 14 0
BBX 5 34 5 -14
BITMAP
70
F0
F8
F0
70
00
00
00
20
20
20
60
60
60
60
60
60
60
60
70
70
70
70
70
70
F0
F0
F0
F0
F0
F0
F0
F0
70
ENDCHAR
STARTCHAR 00A5
ENCODING 165
SWIDTH 586 0
DWIDTH 27 0
BBX 22 9 3 7
BITMAP
FFFFFC
000004
000004
000004
000004
000004
000004
000004
000004
ENDCHAR
STARTCHAR 00A6
ENCODING 166
SWIDTH 543 0
DWIDTH 25 0
BBX 23 44 2 -2
BITMAP
000006
000006
000006
000006
000006
000004
00000C
00000C
00000C
00000C
00000C
000008
000008
000018
000018
000018
000018
000010
020010
0E0030
3F0030
F70030
C38030
038020
01C020
01C060
00E060
00E060
007060
007060
003840
003840
001CC0
001CC0
000EC0
000EC0
000780
000780
000380
000380
000180
000180
000100
000100
ENDCHAR
STARTCHAR 00A7
ENCODING 167
SWIDTH 521 0
DWIDTH 24 0
BBX 26 46 -2 -13
BITMAP
00003F00
00004180
0000C1C0
000181C0
000381C0
000381C0
00070000
00070000
00070000
000F0000
000F0000
000F0000
000F0000
001E0000
001E0000
001E0000
001E0000
07FFF800
001E0000
001E0000
003E0000
003C0000
003C0000
003C0000
003C0000
003C0000
003C0000
00380000
00380000
00380000
00380000
00380000
00380000
00700000
00700000
00700000
00700000
00600000
00600000
00600000
00400000
70400000
F0800000
E0800000
61000000
3E000000
ENDCHAR
STARTCHAR 00A8
ENCODING 168
SWIDTH 543 0
DWIDTH 25 0
BBX 24 17 1 6
BITMAP
1F0001
7FE002
60F802
C01F0E
8003FC
800070
000000
000000
000000
000000
000000
1F0001
7FE002
61F802
C03F0E
8007FC
8001F0
ENDCHAR
STARTCHAR 00A9
ENCODING 169
SWIDTH 608 0
DWIDTH 28 0
BBX 27 31 1 0
BITMAP
00040000
00040000
00060000
000E0000
000F0000
001F0000
001F0000
003F8000
00378000
0067C000
0063C000
00C3C000
00C3E000
0081E000
0181F000
0180F000
0300F800
0300F800
06007800
06007C00
0C003C00
0C003E00
18001E00
18001E00
10001F00
30000F00
30000F80
60000780
600007C0
FFFFFFC0
FFFFFFE0
ENDCHAR
STARTCHAR 00AA
ENCODING 170
SWIDTH 413 0
DWIDTH 19 0
BBX 13 13 3 4
BITMAP
0618
38E0
71C0
6180
E380
E380
E380
E380
E380
6180
71C0
38E0
0618
ENDCHAR
STARTCHAR 00AB
ENCODING 171
SWIDTH 413 0
DWIDTH 19 0
BBX 13 13 3 4
BITMAP
C300
30C0
1860
1C30
0E38
0E38
0E38
0E38
0E38
1C30
1860
30C0
C300
ENDCHAR
STARTCHAR 00AC
ENCODING 172
SWIDTH 1000 0
DWIDTH 46 0
BBX 36 5 5 0
BITMAP
70006000E0
F800F001F0
F800F001F0
F800F001F0
70006000E0
ENDCHAR
STARTCHAR 00AD
ENCODING 173
SWIDTH 282 0
DWIDTH 13 0
BBX 0 0 0 0
BITMAP
ENDCHAR
STARTCHAR 00AE
ENCODING 174
SWIDTH 739 0
DWIDTH 34 0
BBX 34 43 0 0
BITMAP
0018000000
001C000000
001E000000
0007000000
0003800000
0001C00000
0000600000
0000200000
0000100000
0000000000
0000C00000
0000C00000
0001C00000
0001E00000
0001E00000
0003F00000
0003F00000
0004F00000
0004F80000
0008F80000
00087C0000
00087C0000
00107C0000
00103E0000
00103E0000
00201F0000
00201F0000
00401F0000
00400F8000
007FFF8000
00800F8000
008007C000
008007C000
010003E000
010003E000
020003E000
020001F000
020001F000
040000F800
040000F800
080000F800
0800007C00
FFC00FFFC0
ENDCHAR
STARTCHAR 00AF
ENCODING 175
SWIDTH 739 0
DWIDTH 34 0
BBX 34 41 0 0
BITMAP
0000010000
000F010000
001FE20000
0031FE0000
0020780000
0000000000
0000000000
0000000000
0000C00000
0000C00000
0001C00000
0001E00000
0001E00000
0003F00000
0005F00000
0004F00000
0004F80000
0008F80000
00087C0000
00087C0000
00103C0000
00103E0000
00103E0000
00201F0000
00201F0000
00401F0000
00400F8000
007FFF8000
00800F8000
008007C000
008007C000
010003E000
010003E000
020003E000
020001F000
020001F000
040000F800
040000F800
080000F800
0800007C00
FFC00FFFC0
ENDCHAR
STARTCHAR 00B0
ENCODING 176
SWIDTH 826 0
DWIDTH 38 0
BBX 32 41 3 0
BITMAP
00000200
000E0200
003FC400
0063FC00
0040F800
00000000
00000000
00000000
000FF000
00300E00
00C00100
010000C0
03000060
06000070
0E000078
1C000038
3C00003C
3C00003E
7C00003E
7C00001E
7C00001F
FC00001F
F800001F
F800001F
F800001F
F800001F
F800001F
F800001F
7C00001F
7C00001E
7C00003E
3C00003C
3C00003C
1C000038
1E000038
0E000070
07000060
030000C0
00800100
00400200
003FFC00
ENDCHAR
STARTCHAR 00B1
ENCODING 177
SWIDTH 1065 0
DWIDTH 49 0
BBX 43 33 3 0
BITMAP
0007FFFFFFC0
003807C007C0
00C007C003C0
018007C001C0
030007C000C0
070007C000C0
0E0007C00040
1E0007C00040
3C0007C01000
3C0007C01000
7C0007C03000
7C0007C03000
7C0007C03000
FC0007C07000
F80007C1F000
F80007FFF000
F80007C1F000
F80007C07000
F80007C03000
F80007C03000
7C0007C03000
7C0007C01000
7C0007C01000
3C0007C00020
3C0007C00020
1C0007C00020
0E0007C00060
0E0007C00060
070007C000E0
030007C000E0
008007C001E0
006007C007E0
001FFFFFFFE0
ENDCHAR
STARTCHAR 00B2
ENCODING 178
SWIDTH 847 0
DWIDTH 39 0
BBX 35 20 2 0
BITMAP
01FC01F800
0603060600
0C008C0380
1C00DC03C0
3800F803C0
78007803E0
78007803E0
F8007803E0
F8007FFFE0
F800780000
F800780000
F800780000
F800780000
7800780000
7800780000
3800F80020
1C00DC0040
0C008C0040
0601060080
01FE01FF00
ENDCHAR
STARTCHAR 00B3
ENCODING 179
SWIDTH 500 0
DWIDTH 23 0
BBX 23 1 0 10
BITMAP
FFFFFE
ENDCHAR
STARTCHAR 00B4
ENCODING 180
SWIDTH 1000 0
DWIDTH 46 0
BBX 34 1 6 10
BITMAP
FFFFFFFFC0
ENDCHAR
STARTCHAR 00B5
ENCODING 181
SWIDTH 434 0
DWIDTH 20 0
BBX 15 12 3 21
BITMAP
0804
1018
2020
4040
8040
8040
80C0
B8DC
FCFE
FC7E
7C7C
383C
ENDCHAR
STARTCHAR 00B6
ENCODING 182
SWIDTH 434 0
DWIDTH 20 0
BBX 15 12 3 21
BITMAP
7078
F87C
FCFC
FCFE
6476
0406
0404
0804
0808
1010
2010
4060
ENDCHAR
STARTCHAR 00B7
ENCODING 183
SWIDTH 282 0
DWIDTH 13 0
BBX 7 12 3 21
BITMAP
04
18
20
40
40
80
80
DC
FE
FE
7C
3C
ENDCHAR
STARTCHAR 00B8
ENCODING 184
SWIDTH 282 0
DWIDTH 13 0
BBX 7 12 3 21
BITMAP
78
FC
FC
FE
76
06
04
04
08
10
20
40
ENDCHAR
STARTCHAR 00B9
ENCODING 185
SWIDTH 586 0
DWIDTH 27 0
BBX 22 20 3 1
BITMAP
007000
00F800
00F800
00F800
007000
000000
000000
000000
000000
000000
FFFFFC
000000
000000
000000
000000
007000
00F800
00F800
00F800
007000
ENDCHAR
STARTCHAR 00BA
ENCODING 186
SWIDTH 500 0
DWIDTH 23 0
BBX 21 32 1 0
BITMAP
007000
00F000
01F800
019800
039C00
030E00
070600
060700
0E0300
0C0380
1C0180
1800C0
3000E0
700060
600070
E00030
E00038
600070
700060
3000E0
1800C0
1C01C0
0C0380
0E0300
060700
070600
030E00
039C00
019800
01F800
00F000
007000
ENDCHAR
STARTCHAR 00BB
ENCODING 187
SWIDTH 478 0
DWIDTH 22 0
BBX 24 45 -1 -13
BITMAP
01C0C0
03E1E0
03E1E0
01C0C0
000000
000000
000000
000000
000000
000000
000000
000000
7FF0FF
0F8008
078010
078010
07C010
03C020
03E020
01E040
01E040
01F080
00F080
00F880
00F900
007900
007E00
003E00
003C00
003C00
001C00
001800
000800
001000
001000
002000
002000
002000
004000
004000
708000
F08000
F10000
F10000
3E0000
ENDCHAR
STARTCHAR 00BC
ENCODING 188
SWIDTH 695 0
DWIDTH 32 0
BBX 32 41 0 0
BITMAP
001C0E00
001E1E00
001E1F00
001C0E00
00000000
00000000
00000000
00000000
FFFC01FF
0FC00010
07C00020
03E00020
03E00040
01F00040
01F80080
00F80080
00FC0100
007C0200
007E0200
003E0400
001F0400
001F8800
000F8800
000FD000
0007D000
0007E000
0003E000
0003E000
0003E000
0003E000
0003E000
0003E000
0003E000
0003E000
0003E000
0003E000
0003E000
0003E000
0003E000
0003E000
007FFF00
ENDCHAR
STARTCHAR 00BD
ENCODING 189
SWIDTH 65 0
DWIDTH 3 0
BBX 18 33 -7 0
BITMAP
000040
000080
000080
000100
000100
000200
000200
000400
000C00
000800
001000
001000
002000
002000
004000
004000
008000
008000
010000
010000
020000
060000
040000
080000
080000
100000
100000
200000
200000
400000
400000
800000
800000
ENDCHAR
STARTCHAR 00BE
ENCODING 190
SWIDTH 521 0
DWIDTH 24 0
BBX 23 33 0 0
BITMAP
001FF6
00601E
01C00E
038006
038006
070002
070002
0F0002
0F0000
0F0000
1F0000
1F0000
1F0000
FFFFF8
1E0000
1E0000
1E0000
1E0000
FFFFE0
1F0000
1F0000
1F0000
1F0000
0F0000
0F0002
0F0002
070002
070002
038006
038006
01C00E
00401E
003FE2
ENDCHAR
STARTCHAR 00BF
ENCODING 191
SWIDTH 282 0
DWIDTH 13 0
BBX 7 13 3 4
BITMAP
06
38
70
60
E0
E0
E0
E0
E0
60
70
38
0E
ENDCHAR
STARTCHAR 00C0
ENCODING 192
SWIDTH 282 0
DWIDTH 13 0
BBX 7 13 3 4
BITMAP
C0
30
18
0C
0E
0E
0E
0E
0E
0C
18
30
C0
ENDCHAR
STARTCHAR 00C1
ENCODING 193
SWIDTH 586 0
DWIDTH 27 0
BBX 25 33 1 0
BITMAP
003F8000
00406000
01807000
03807800
07007800
07007800
0F007800
0F007000
0F000000
0F000000
0F000000
0F000000
0F000000
FFFFFC00
0F003C00
0F003C00
0F003C00
0F003C00
0F003C00
0F003C00
0F003C00
0F003C00
0F003C00
0F003C00
0F003C00
0F003C00
0F003C00
0F003C00
0F003C00
0F003C00
0F003C00
0F003C00
FFE3FF80
ENDCHAR
STARTCHAR 00C2
ENCODING 194
SWIDTH 586 0
DWIDTH 27 0
BBX 24 33 2 0
BITMAP
007FF8
018078
030078
070078
0F0078
0E0078
0E0078
1E0078
1E0078
1E0078
1E0078
1E0078
1E0078
FFF078
1E0078
1E0078
1E0078
1E0078
1E0078
1E0078
1E0078
1E0078
1E0078
1E0078
1E0078
1E0078
1E0078
1E0078
1E0078
1E0078
1E0078
1E0078
FFC7FF
ENDCHAR
STARTCHAR 00C3
ENCODING 195
SWIDTH 521 0
DWIDTH 24 0
BBX 22 46 1 -13
BITMAP
003000
007800
007800
007800
003000
003000
003000
003000
002000
002000
702038
FC21F8
FFFEFC
702038
002000
002000
002000
003000
003000
003000
003000
007800
00FC00
00FC00
007800
003000
003000
003000
002000
002000
002000
002000
782078
FFFFFC
7E21F8
702038
002000
002000
002000
003000
003000
003000
007800
007800
007800
007000
ENDCHAR
STARTCHAR 00C4
ENCODING 196
SWIDTH 282 0
DWIDTH 13 0
BBX 5 5 4 10
BITMAP
70
F8
F8
F8
70
ENDCHAR
STARTCHAR 00C5
ENCODING 197
SWIDTH 282 0
DWIDTH 13 0
BBX 7 13 3 -8
BITMAP
78
FC
FC
FC
76
06
04
04
04
08
10
20
40
ENDCHAR
STARTCHAR 00C6
ENCODING 198
SWIDTH 434 0
DWIDTH 20 0
BBX 15 13 3 -8
BITMAP
7078
F87C
FCFC
FCFE
6C76
0406
0404
0404
0804
0808
1010
2020
4040
ENDCHAR
STARTCHAR 00C7
ENCODING 199
SWIDTH 1000 0
DWIDTH 46 0
BBX 42 33 2 0
BITMAP
0F8004000000
106008000000
203008000000
601810000000
E01810000000
E01C20000000
E01C20000000
E01C40000000
E01840000000
603880000000
303080000000
186100000000
0F8100000000
000200000000
000400000000
000400000000
000800000000
000800000000
001000000000
001000000000
002078007800
002186018600
004303030300
004701870180
008601C60180
008E01CE01C0
010E01CE01C0
010E01CE01C0
020601C601C0
020601860180
040301030100
080102010200
0800F800FC00
ENDCHAR
STARTCHAR 00C8
ENCODING 200
SWIDTH 739 0
DWIDTH 34 0
BBX 34 43 0 0
BITMAP
0001E00000
0001E00000
0003F00000
0007380000
0006180000
000C0C0000
0018060000
0010020000
0000010000
0000000000
0000C00000
0000C00000
0001C00000
0001E00000
0001E00000
0003F00000
0005F00000
0004F00000
0004F80000
0008F80000
00087C0000
00087C0000
00103C0000
00103E0000
00103E0000
00201F0000
00201F0000
00400F0000
00400F8000
007FFF8000
00800F8000
008007C000
008007C000
010003E000
010003E000
020003E000
020001F000
020001F000
040000F800
040000F800
080000F800
0800007C00
FFC00FFFC0
ENDCHAR
STARTCHAR 00C9
ENCODING 201
SWIDTH 695 0
DWIDTH 32 0
BBX 28 43 1 0
BITMAP
00038000
0007C000
000FC000
000EE000
00187000
00303000
00201800
00400C00
00000000
00000000
FFFFFFE0
07C003E0
07C001E0
07C000E0
07C00060
07C00060
07C00020
07C00020
07C01000
07C01000
07C01000
07C01000
07C03000
07C03000
07C0F000
07FFF000
07C0F000
07C03000
07C03000
07C01000
07C01000
07C01000
07C01000
07C00010
07C00010
07C00010
07C00010
07C00030
07C00030
07C00070
07C000F0
07C001F0
FFFFFFF0
ENDCHAR
STARTCHAR 00CA
ENCODING 202
SWIDTH 739 0
DWIDTH 34 0
BBX 34 43 0 0
BITMAP
0000030000
0000070000
00000F0000
00001E0000
0000380000
0000300000
0000400000
0000800000
0001000000
0000000000
0000C00000
0000C00000
0001C00000
0001E00000
0001E00000
0003F00000
0003F00000
0004F00000
0004F80000
0008F80000
00087C0000
00087C0000
00107C0000
00103E0000
00103E0000
00201F0000
00201F0000
00401F0000
00400F8000
007FFF8000
00800F8000
008007C000
008007C000
010003E000
010003E000
020003E000
020001F000
020001F000
040000F800
040000F800
080000F800
0800007C00
FFC00FFFC0
ENDCHAR
STARTCHAR 00CB
ENCODING 203
SWIDTH 695 0
DWIDTH 32 0
BBX 28 41 1 0
BITMAP
00303800
00787C00
00787C00
00703800
00000000
00000000
00000000
00000000
FFFFFFE0
07C007E0
07C001E0
07C000E0
07C000E0
07C00060
07C00060
07C00020
07C01000
07C01000
07C01000
07C01000
07C03000
07C03000
07C0F000
07FFF000
07C0F000
07C03000
07C03000
07C01000
07C01000
07C01000
07C01000
07C00010
07C00010
07C00010
07C00010
07C00030
07C00030
07C00070
07C000F0
07C001F0
FFFFFFF0
ENDCHAR
STARTCHAR 00CC
ENCODING 204
SWIDTH 695 0
DWIDTH 32 0
BBX 28 43 1 0
BITMAP
00700000
00780000
00780000
001C0000
000E0000
00070000
00018000
0000C000
00000000
00000000
FFFFFFE0
07C003E0
07C001E0
07C000E0
07C00060
07C00060
07C00020
07C00020
07C01000
07C01000
07C01000
07C01000
07C03000
07C03000
07C0F000
07FFF000
07C0F000
07C03000
07C03000
07C01000
07C01000
07C01000
07C01000
07C00010
07C00010
07C00010
07C00010
07C00030
07C00030
07C00070
07C000F0
07C001F0
FFFFFFF0
ENDCHAR
STARTCHAR 00CD
ENCODING 205
SWIDTH 391 0
DWIDTH 18 0
BBX 14 43 2 0
BITMAP
000C
001C
003C
0078
00E0
01C0
0100
0200
0400
0000
FFFC
0780
0780
0780
0780
0780
0780
0780
0780
0780
0780
0780
0780
0780
0780
0780
0780
0780
0780
0780
0780
0780
0780
0780
0780
0780
0780
0780
0780
0780
0780
0780
FFFC
ENDCHAR
STARTCHAR 00CE
ENCODING 206
SWIDTH 391 0
DWIDTH 18 0
BBX 14 43 2 0
BITMAP
0780
0780
0FC0
1CE0
1860
3030
6018
8008
0000
0000
FFFC
0780
0780
0780
0780
0780
0780
0780
0780
0780
0780
0780
0780
0780
0780
0780
0780
0780
0780
0780
0780
0780
0780
0780
0780
0780
0780
0780
0780
0780
0780
0780
FFFC
ENDCHAR
STARTCHAR 00CF
ENCODING 207
SWIDTH 391 0
DWIDTH 18 0
BBX 14 41 2 0
BITMAP
7038
7878
7878
7038
0000
0000
0000
0000
FFFC
0780
0780
0780
0780
0780
0780
0780
0780
0780
0780
0780
0780
0780
0780
0780
0780
0780
0780
0780
0780
0780
0780
0780
0780
0780
0780
0780
0780
0780
0780
0780
FFFC
ENDCHAR
STARTCHAR 00D0
ENCODING 208
SWIDTH 391 0
DWIDTH 18 0
BBX 14 43 2 0
BITMAP
6000
7000
7800
3C00
0E00
0700
0100
0080
0040
0000
FFFC
0780
0780
0780
0780
0780
0780
0780
0780
0780
0780
0780
0780
0780
0780
0780
0780
0780
0780
0780
0780
0780
0780
0780
0780
0780
0780
0780
0780
0780
0780
0780
FFFC
ENDCHAR
STARTCHAR 00D1
ENCODING 209
SWIDTH 826 0
DWIDTH 38 0
BBX 32 43 3 0
BITMAP
00000600
00000F00
00001E00
00003C00
00007000
00006000
00008000
00010000
00020000
00000000
000FF000
00300E00
00C00100
010000C0
03000060
06000070
0E000078
1C000038
3C00003C
3C00003E
7C00003E
7C00001E
7C00001F
FC00001F
F800001F
F800001F
F800001F
F800001F
F800001F
F800001F
7C00001F
7C00001E
7C00003E
3C00003C
3C00003C
1C000038
1E000038
0E000070
07000060
030000C0
00800100
00400200
003FFC00
ENDCHAR
STARTCHAR 00D2
ENCODING 210
SWIDTH 826 0
DWIDTH 38 0
BBX 32 43 3 0
BITMAP
0001C000
0003C000
0007E000
000E7000
000C3800
00181800
00300400
00400200
00000000
00000000
000FF000
00300E00
00C00100
010000C0
03000060
06000070
0E000078
1C000038
3C00003C
3C00003E
7C00003E
7C00001E
7C00001F
FC00001F
F800001F
F800001F
F800001F
F800001F
F800001F
F800001F
7C00001F
7C00001E
7C00003E
3C00003C
3C00003C
1C000038
1E000038
0E000070
07000060
030000C0
00800100
00400200
003FFC00
ENDCHAR
STARTCHAR 00D3
ENCODING 211
SWIDTH 782 0
DWIDTH 36 0
BBX 32 38 2 -1
BITMAP
00000300
00000F00
00001F00
00003E00
00007E00
00007C00
0000FC00
0000F800
0000F180
03FC1FF0
0FFFFFFC
1FFFFFFE
1FFFFFFE
3FFFFFFC
7FFFFFF8
7FFFFFF0
7FFFFFF0
7FFFFFF0
FFFFFFE0
FFFFFFE0
FFFFFFE0
FFFFFFE0
FFFFFFF0
7FFFFFF0
7FFFFFF8
7FFFFFF8
7FFFFFFC
3FFFFFFF
3FFFFFFF
3FFFFFFF
1FFFFFFE
1FFFFFFE
0FFFFFFC
07FFFFFC
07FFFFF8
03FFFFF0
01FFFFE0
007807C0
ENDCHAR
STARTCHAR 00D4
ENCODING 212
SWIDTH 826 0
DWIDTH 38 0
BBX 32 43 3 0
BITMAP
00380000
00380000
003C0000
000E0000
00070000
00018000
0000C000
00006000
00000000
00000000
000FF000
00300E00
00C00100
010000C0
03000060
06000070
0E000078
1C000038
3C00003C
3C00003E
7C00003E
7C00001E
7C00001F
FC00001F
F800001F
F800001F
F800001F
F800001F
F800001F
F800001F
7C00001F
7C00001E
7C00003E
3C00003C
3C00003C
1C000038
1E000038
0E000070
07000060
030000C0
00800100
00400200
003FFC00
ENDCHAR
STARTCHAR 00D5
ENCODING 213
SWIDTH 760 0
DWIDTH 35 0
BBX 33 43 1 0
BITMAP
0000030000
0000078000
00000F0000
00001E0000
0000380000
0000300000
0000400000
0000800000
0001000000
0000000000
FFFE03FF80
07C0001000
07C0001000
07C0001000
07C0001000
07C0001000
07C0001000
07C0001000
07C0001000
07C0001000
07C0001000
07C0001000
07C0001000
07C0001000
07C0001000
07C0001000
07C0001000
07C0001000
07C0001000
07C0001000
07C0001000
07C0001000
07C0001000
07C0001000
07C0001000
07C0001000
03C0002000
03C0002000
01C0004000
01E0004000
00E0008000
0030030000
000FFC0000
ENDCHAR
STARTCHAR 00D6
ENCODING 214
SWIDTH 760 0
DWIDTH 35 0
BBX 33 43 1 0
BITMAP
0000E00000
0001F00000
0003F00000
0003380000
00061C0000
000C0C0000
0018020000
0010010000
0000000000
0000000000
FFFE03FF80
07C0001000
07C0001000
07C0001000
07C0001000
07C0001000
07C0001000
07C0001000
07C0001000
07C0001000
07C0001000
07C0001000
07C0001000
07C0001000
07C0001000
07C0001000
07C0001000
07C0001000
07C0001000
07C0001000
07C0001000
07C0001000
07C0001000
07C0001000
07C0001000
07C0001000
03C0002000
03C0002000
01C0004000
01E0004000
00E0008000
0030030000
000FFC0000
ENDCHAR
STARTCHAR 00D7
ENCODING 215
SWIDTH 760 0
DWIDTH 35 0
BBX 33 43 1 0
BITMAP
001C000000
001E000000
001E000000
0007000000
0003800000
0000C00000
0000600000
0000300000
0000000000
0000000000
FFFE03FF80
07C0001000
07C0001000
07C0001000
07C0001000
07C0001000
07C0001000
07C0001000
07C0001000
07C0001000
07C0001000
07C0001000
07C0001000
07C0001000
07C0001000
07C0001000
07C0001000
07C0001000
07C0001000
07C0001000
07C0001000
07C0001000
07C0001000
07C0001000
07C0001000
07C0001000
03C0002000
03C0002000
01C0004000
01E0004000
00E0008000
0030030000
000FFC0000
ENDCHAR
STARTCHAR 00D8
ENCODING 216
SWIDTH 304 0
DWIDTH 14 0
BBX 11 20 1 0
BITMAP
FF00
0F00
0F00
0F00
0F00
0F00
0F00
0F00
0F00
0F00
0F00
0F00
0F00
0F00
0F00
0F00
0F00
0F00
0F00
FFE0
ENDCHAR
STARTCHAR 00D9
ENCODING 217
SWIDTH 282 0
DWIDTH 13 0
BBX 13 8 0 25
BITMAP
0700
0F80
1F80
1DC0
38E0
3060
4030
8008
ENDCHAR
STARTCHAR 00DA
ENCODING 218
SWIDTH 282 0
DWIDTH 13 0
BBX 15 4 -1 27
BITMAP
1E06
7F84
43F8
80F0
ENDCHAR
STARTCHAR 00DB
ENCODING 219
SWIDTH 282 0
DWIDTH 13 0
BBX 13 1 0 28
BITMAP
FFF8
ENDCHAR
STARTCHAR 00DC
ENCODING 220
SWIDTH 282 0
DWIDTH 13 0
BBX 12 7 0 25
BITMAP
8010
8010
4010
6030
7060
3FE0
0F80
ENDCHAR
STARTCHAR 00DD
ENCODING 221
SWIDTH 282 0
DWIDTH 13 0
BBX 5 4 4 28
BITMAP
70
F0
F8
70
ENDCHAR
STARTCHAR 00DE
ENCODING 222
SWIDTH 282 0
DWIDTH 13 0
BBX 9 8 2 26
BITMAP
3C00
6300
C300
C180
C180
C100
4300
3C00
ENDCHAR
STARTCHAR 00DF
ENCODING 223
SWIDTH 282 0
DWIDTH 13 0
BBX 8 11 4 -11
BITMAP
08
10
20
5C
67
03
03
03
03
86
7C
ENDCHAR
STARTCHAR 00E0
ENCODING 224
SWIDTH 282 0
DWIDTH 13 0
BBX 16 8 1 26
BITMAP
0383
0787
078F
0E1C
1C38
3060
60C0
8100
ENDCHAR
STARTCHAR 00E1
ENCODING 225
SWIDTH 282 0
DWIDTH 13 0
BBX 8 9 3 -9
BITMAP
03
0C
18
70
70
E0
F0
71
3E
ENDCHAR
STARTCHAR 00E2
ENCODING 226
SWIDTH 282 0
DWIDTH 13 0
BBX 13 8 0 25
BITMAP
8008
4030
3060
38E0
1DC0
1F80
0F80
0700
ENDCHAR
STARTCHAR 00E3
ENCODING 227
SWIDTH 0 0
DWIDTH 0 0
BBX 0 0 0 0
BITMAP
ENDCHAR
STARTCHAR 00E4
ENCODING 228
SWIDTH 282 0
DWIDTH 13 0
BBX 0 0 0 0
BITMAP
ENDCHAR
STARTCHAR 00E5
ENCODING 229
SWIDTH 282 0
DWIDTH 13 0
BBX 0 0 0 0
BITMAP
ENDCHAR
STARTCHAR 00E6
ENCODING 230
SWIDTH 0 0
DWIDTH 0 0
BBX 0 0 0 0
BITMAP
ENDCHAR
STARTCHAR 00E7
ENCODING 231
SWIDTH 760 0
DWIDTH 35 0
BBX 32 31 2 0
BITMAP
001FF000
00F01E00
03C00780
078003E0
0F0001F0
1F0000F0
3E0000F8
3E00007C
7C00007C
7C00007C
7C00007E
7C00007E
FC00007E
FC00007E
7C00007E
7C00007E
7C00007C
7E00007C
3E0000FC
3E0000F8
1F0000F8
0F0001F0
078003E0
83E00781
80F81E01
80381803
FFF81FFF
FFF81FFF
FFF83FFF
FFF83FFF
FFF83FFF
ENDCHAR
STARTCHAR 00E8
ENCODING 232
SWIDTH 565 0
DWIDTH 26 0
BBX 20 19 3 7
BITMAP
81F830
460660
3801C0
100080
200040
400040
400020
400020
800020
800020
800020
400020
400020
400040
200040
100080
3801C0
460660
81F830
ENDCHAR
STARTCHAR 00E9
ENCODING 233
SWIDTH 695 0
DWIDTH 32 0
BBX 28 33 1 0
BITMAP
FFFE0000
07C00000
07C00000
07C00000
07C00000
07C00000
07C00000
07C00000
07C00000
07C00000
07C04000
07C18000
07C60000
07D80000
07E00000
07C00000
07C00000
0FC00000
37C00000
47C00000
87C00000
07C00000
07C00000
07C00010
07C00010
07C00010
07C00010
07C00030
07C00030
07C00070
07C000F0
07C001F0
FFFFFFF0
ENDCHAR
STARTCHAR 00EA
ENCODING 234
SWIDTH 304 0
DWIDTH 14 0
BBX 11 33 1 0
BITMAP
FF00
0F00
0F00
0F00
0F00
0F00
0F00
0F00
0F00
0F00
0F00
0F00
0F20
0F40
0F80
0F00
1F00
6F00
8F00
0F00
0F00
0F00
0F00
0F00
0F00
0F00
0F00
0F00
0F00
0F00
0F00
0F00
FFE0
ENDCHAR
STARTCHAR 00EB
ENCODING 235
SWIDTH 826 0
DWIDTH 38 0
BBX 32 33 2 0
BITMAP
0FC000C0
10600080
30700100
30700100
30700200
00700200
00E00400
01C00400
0E000800
31C00800
00301000
00302000
00382000
0038401C
00384038
80388070
C0308060
407100C0
30E10180
0F820100
00020238
00040238
00040438
00080838
00080838
00101038
00101038
00203FFF
00400038
00400038
00800038
00800038
010000FF
ENDCHAR
STARTCHAR 00EC
ENCODING 236
SWIDTH 826 0
DWIDTH 38 0
BBX 30 33 4 0
BITMAP
02000300
0E000200
1E000400
6E000400
8E000800
0E000800
0E001000
0E001000
0E002000
0E002000
0E004000
0E004000
0E008000
0E008070
0E0100E0
0E0201C0
0E020180
0E040300
0E040600
7FC80400
000808E0
001008E0
001010E0
002020E0
002020E0
004040E0
004040E0
0080FFFC
008000E0
010000E0
020000E0
020000E0
040003FC
ENDCHAR
STARTCHAR 00ED
ENCODING 237
SWIDTH 326 0
DWIDTH 15 0
BBX 11 20 2 13
BITMAP
0300
0700
0F00
3700
C700
0700
0700
0700
0700
0700
0700
0700
0700
0700
0700
0700
0700
0700
0700
3FE0
ENDCHAR
STARTCHAR 00EE
ENCODING 238
SWIDTH 586 0
DWIDTH 27 0
BBX 21 20 3 1
BITMAP
400008
E00010
300020
180040
0C0080
060100
030200
018400
00C800
007000
007000
00C800
018400
030200
060100
0C0080
180040
300020
600010
C00008
ENDCHAR
STARTCHAR 00EF
ENCODING 239
SWIDTH 652 0
DWIDTH 30 0
BBX 26 33 1 0
BITMAP
FFFE0000
07C00000
07C00000
07C00000
07C00000
07C40000
07FBF000
07C01C00
07C00F00
07C00F80
07C00780
07C007C0
07C007C0
07C007C0
07C007C0
07C007C0
07C007C0
07C007C0
07C00F80
07C00F00
07C01E00
07C03800
07C04000
07FF8000
07C00000
07C00000
07C00000
07C00000
07C00000
07C00000
07C00000
07C00000
FFFE0000
ENDCHAR
STARTCHAR 00F0
ENCODING 240
SWIDTH 217 0
DWIDTH 10 0
BBX 1 39 5 -8
BITMAP
80
80
80
80
80
80
80
80
80
80
80
80
80
80
80
80
00
00
00
00
00
00
00
80
80
80
80
80
80
80
80
80
80
80
80
80
80
80
80
ENDCHAR
STARTCHAR 00F1
ENCODING 241
SWIDTH 804 0
DWIDTH 37 0
BBX 33 33 1 0
BITMAP
FFFFF00000
07C00E0000
07C003C000
07C001E000
07C000F000
07C0007800
07C0003C00
07C0003E00
07C0003E00
07C0001F00
07C0001F00
07C0001F00
07C0001F80
07C0001F80
07C0000F80
FFFF800F80
07C0000F80
07C0000F80
07C0000F80
07C0000F80
07C0001F80
07C0001F00
07C0001F00
07C0001F00
07C0001E00
07C0003E00
07C0003C00
07C0007800
07C0007000
07C000E000
07C001C000
07C0070000
FFFFF80000
ENDCHAR
STARTCHAR 00F2
ENCODING 242
SWIDTH 826 0
DWIDTH 38 0
BBX 30 33 4 0
BITMAP
02000300
0E000200
1E000400
6E000400
8E000800
0E000800
0E001000
0E001000
0E002000
0E002000
0E004000
0E004000
0E008000
0E008FC0
0E011860
0E023030
0E027038
0E043038
0E04001C
7FC8003C
00080038
00100038
00100030
00200070
00200060
004000C0
00400180
00800300
00800604
01000C04
0200180C
02003FFC
04007FFC
ENDCHAR
STARTCHAR 00F3
ENCODING 243
SWIDTH 586 0
DWIDTH 27 0
BBX 22 1 3 11
BITMAP
FFFFFC
ENDCHAR
STARTCHAR 00F4
ENCODING 244
SWIDTH 565 0
DWIDTH 26 0
BBX 22 33 2 0
BITMAP
180100
060200
018C00
00D000
007000
01B800
061C00
080E00
000700
000780
0003C0
0001C0
0001E0
01FDF0
0603F0
0C00F0
1C00F8
3800F8
780078
780078
F80078
F80078
F8007C
F80078
F80078
F80078
780078
780070
3800E0
1C00E0
0C00C0
060100
01FE00
ENDCHAR
STARTCHAR 00F5
ENCODING 245
SWIDTH 586 0
DWIDTH 27 0
BBX 24 46 1 -13
BITMAP
FF0000
0F0000
0F0000
0F0000
0F0000
0F0000
0F0000
0F0000
0F0000
0F0000
0F0000
0F0000
0F0000
0F3F80
0F4060
0F8030
0F8018
0F001C
0F001E
0F001E
0F001F
0F001F
0F001F
0F001F
0F001F
0F001F
0F001E
0F001E
0F001C
0F8018
0F8030
0F4020
0F20C0
0F1F00
0F0000
0F0000
0F0000
0F0000
0F0000
0F0000
0F0000
0F0000
0F0000
0F0000
0F0000
FFE000
ENDCHAR
STARTCHAR 00F6
ENCODING 246
SWIDTH 326 0
DWIDTH 15 0
BBX 14 20 0 13
BITMAP
0FC0
3020
3030
7038
3038
0038
0038
0038
0038
0070
0070
00E0
00C0
0180
0304
0604
0C04
180C
3FFC
FFFC
ENDCHAR
STARTCHAR 00F7
ENCODING 247
SWIDTH 326 0
DWIDTH 15 0
BBX 13 20 1 13
BITMAP
1F80
3060
2070
7070
7070
0070
00E0
01C0
1E00
21C0
0060
0070
0030
0038
0038
8070
8070
4060
20C0
1F00
ENDCHAR
STARTCHAR 00F8
ENCODING 248
SWIDTH 673 0
DWIDTH 31 0
BBX 24 43 3 0
BITMAP
020020
0100C0
00C180
00E300
007700
003E00
003C00
001C00
000000
000000
01FF88
0600F8
080078
100038
100018
300018
300008
700008
700000
780000
7C0000
7E0000
3FC000
3FF800
1FFF00
0FFFE0
03FFF8
007FFC
000FFE
0001FE
00007E
00001F
00001F
80000F
80000F
C0000E
C0000E
C0000E
E0000C
F00018
F00010
FC0040
87FF80
ENDCHAR
STARTCHAR 00F9
ENCODING 249
SWIDTH 695 0
DWIDTH 32 0
BBX 32 43 0 0
BITMAP
00000300
00000780
00000F00
00001E00
00003800
00003000
00006000
00008000
00010000
00000000
FFFC01FF
07C00010
07C00020
03E00020
03E00040
01F00080
01F00080
00F80100
00FC0100
007C0200
003E0200
003E0400
001F0400
001F0800
000F8800
000FD000
0007D000
0003E000
0003E000
0003E000
0003E000
0003E000
0003E000
0003E000
0003E000
0003E000
0003E000
0003E000
0003E000
0003E000
0003E000
0003E000
007FFF00
ENDCHAR
STARTCHAR 00FA
ENCODING 250
SWIDTH 652 0
DWIDTH 30 0
BBX 26 43 2 0
BITMAP
03002000
01804000
00C0C000
00638000
007F0000
003F0000
001E0000
001C0000
00000000
00000000
1FFFFF80
1F001F00
1C003E00
18007E00
18007C00
1000F800
1000F800
2001F000
0001F000
0003E000
0007C000
0007C000
000F8000
000F8000
001F0000
003F0000
003E0000
007C0000
007C0000
00F80000
01F80000
01F00000
03E00000
03E00040
07C00040
0FC000C0
0F8000C0
1F0001C0
1F0001C0
3E0003C0
3E0007C0
7C001FC0
FFFFFFC0
ENDCHAR
STARTCHAR 00FB
ENCODING 251
SWIDTH 434 0
DWIDTH 20 0
BBX 14 33 3 0
BITMAP
C008
6010
3030
18E0
1DC0
0FC0
0780
0700
0000
0000
0000
0000
0000
1FF0
2030
4030
4010
C010
E010
F000
FE00
FFC0
7FF0
3FF8
07FC
01FC
003C
801C
801C
801C
C018
E010
BFE0
ENDCHAR
STARTCHAR 00FC
ENCODING 252
SWIDTH 478 0
DWIDTH 22 0
BBX 24 47 -1 -13
BITMAP
000060
0000E0
0001E0
0003C0
000700
000600
000C00
001000
002000
000000
000000
000000
000000
000000
7FF0FF
0F0008
078010
078010
07C010
03C020
03E020
01E040
01E040
01F080
00F080
00F880
00F900
007900
007E00
003E00
003C00
003C00
001C00
001800
000800
001000
001000
002000
002000
002000
004000
004000
708000
F08000
F10000
F10000
3E0000
ENDCHAR
STARTCHAR 00FD
ENCODING 253
SWIDTH 434 0
DWIDTH 20 0
BBX 16 33 2 0
BITMAP
6004
3008
1818
0C70
0EE0
07E0
03C0
0380
0000
0000
0000
0000
0000
7FFF
701E
403E
403C
8078
00F8
00F0
01F0
01E0
03C0
07C0
0780
0F80
0F00
1E01
3E01
3C01
7C03
7803
FFFF
ENDCHAR
STARTCHAR 00FE
ENCODING 254
SWIDTH 565 0
DWIDTH 26 0
BBX 21 21 2 -1
BITMAP
00FC00
030300
0C0180
1C00C0
3800E0
380070
780078
780078
F80078
F80078
F80078
F80078
F80078
780078
780078
7800F0
3C00E0
1C00E0
0E0180
070700
00FC00
ENDCHAR
STARTCHAR 00FF
ENCODING 255
SWIDTH 326 0
DWIDTH 15 0
BBX 11 20 2 0
BITMAP
FFE0
0F00
0F00
0F00
0F00
0F00
0F00
0F00
0F00
0F00
0F00
0F00
0F00
0F00
0F00
0F00
0F00
0F00
0F00
FFE0
ENDCHAR
STARTCHAR 0100
ENCODING 256
SWIDTH 478 0
DWIDTH 22 0
BBX 19 20 1 0
BITMAP
03F800
0C0F00
180780
3803C0
7803C0
7803C0
7803C0
3803C0
0003C0
000780
000780
000F00
000E00
001C00
003000
006020
018020
060060
1800E0
FFFFE0
ENDCHAR
STARTCHAR 0101
ENCODING 257
SWIDTH 521 0
DWIDTH 24 0
BBX 20 34 1 -1
BITMAP
01FC00
060700
0C0380
1C01C0
1C01E0
3C01E0
3C01E0
1C01E0
0001E0
0001E0
0003C0
000380
000700
001C00
006000
039C00
0C0300
000180
0001C0
0001E0
0000F0
0000F0
0000F0
0000F0
0000F0
0000F0
0000F0
8000F0
8001E0
4001E0
6001C0
200380
180600
07F800
ENDCHAR
STARTCHAR 0102
ENCODING 258
SWIDTH 434 0
DWIDTH 20 0
BBX 21 37 0 -9
BITMAP
0003C0
0007C0
000780
000F00
001E00
001C00
003800
007800
007000
00E000
00C000
018000
018000
030780
020780
060780
040780
0C0780
080780
100780
100780
200780
200780
400780
400780
400780
800780
FFFFF8
000780
000780
000780
000780
000780
000780
000780
000780
000780
ENDCHAR
STARTCHAR 0103
ENCODING 259
SWIDTH 478 0
DWIDTH 22 0
BBX 19 33 1 0
BITMAP
0C0020
0E0040
0F8180
1FFF80
1FFF00
17FE00
10F800
200000
200000
200000
200000
200000
20C000
4F1C00
580700
600780
600380
4003C0
4003E0
0001E0
0001E0
0001E0
0001E0
0001E0
0001E0
0003C0
7003C0
F803C0
F80380
780300
780600
380C00
07F000
ENDCHAR
STARTCHAR 0104
ENCODING 260
SWIDTH 565 0
DWIDTH 26 0
BBX 21 35 2 -1
BITMAP
001F80
0060C0
018060
030070
0700F0
0600F0
0E01F0
1C00E0
1C0000
3C0000
380000
380000
780000
783000
79CF00
7A0180
F401C0
F800E0
F800F0
F00070
F00078
F00078
F00078
F00078
F00078
780078
780078
780078
380078
3800F0
1C00E0
1C00E0
0E0180
030700
00FC00
ENDCHAR
STARTCHAR 0105
ENCODING 261
SWIDTH 478 0
DWIDTH 22 0
BBX 17 34 3 -14
BITMAP
FFFF80
FFFF80
FFFF00
FFFF00
C00100
800100
800100
800100
800100
000200
000200
000200
000600
000400
000400
000C00
000800
000800
001800
001000
003000
006000
006000
00E000
01C000
01C000
038000
078000
0F0000
1F0000
3E0000
7E0000
7C0000
380000
ENDCHAR
STARTCHAR 0106
ENCODING 262
SWIDTH 565 0
DWIDTH 26 0
BBX 20 34 3 -1
BITMAP
01F800
060600
080380
1801C0
3001C0
3001C0
7001E0
7001E0
7801C0
7801C0
7C0180
3E0380
3F8700
1FEC00
0FF800
07FC00
01FF00
063F80
080FC0
3807E0
7001E0
7001F0
F000F0
E000F0
E000F0
E000F0
E000F0
F000E0
F000E0
7001C0
7803C0
3C0780
0E0E00
03F800
ENDCHAR
STARTCHAR 0107
ENCODING 263
SWIDTH 565 0
DWIDTH 26 0
BBX 21 34 2 -14
BITMAP
00FC00
070300
0C0180
1C00C0
3800E0
780060
780070
780070
F80078
F80078
F80078
F80078
F80078
780078
780078
780078
380078
1C00F8
0E0178
070678
00F878
000070
0000F0
0000F0
0000E0
0000E0
3C01C0
7C01C0
7C0380
780300
380600
380C00
1C1800
07E000
ENDCHAR
STARTCHAR 0108
ENCODING 264
SWIDTH 500 0
DWIDTH 23 0
BBX 23 20 0 0
BITMAP
003000
003000
003800
007800
007C00
00BC00
013E00
011E00
011F00
020F00
020F80
03FF80
040780
0803C0
0803C0
0803E0
1001E0
1001F0
2000F0
FC07FE
ENDCHAR
STARTCHAR 0109
ENCODING 265
SWIDTH 500 0
DWIDTH 23 0
BBX 18 20 2 0
BITMAP
FFF800
1E0F00
1E0780
1E0780
1E0780
1E0780
1E0780
1E0700
1E1C00
1FFC00
1E0F00
1E0780
1E03C0
1E03C0
1E03C0
1E03C0
1E03C0
1E0780
1E0700
FFFC00
ENDCHAR
STARTCHAR 010A
ENCODING 266
SWIDTH 478 0
DWIDTH 22 0
BBX 18 21 2 -1
BITMAP
00FE00
0301C0
0E00C0
1C00C0
3C0040
380040
780000
780000
F80000
F80000
F80000
F80000
F80000
780000
780000
380040
3C0040
1C00C0
0E00C0
0303C0
00FC00
ENDCHAR
STARTCHAR 010B
ENCODING 267
SWIDTH 565 0
DWIDTH 26 0
BBX 22 20 2 0
BITMAP
FFFC00
1E0380
1E01C0
1E00F0
1E0070
1E0078
1E007C
1E007C
1E003C
1E003C
1E003C
1E003C
1E007C
1E007C
1E0078
1E0070
1E00F0
1E01C0
1E0380
FFFC00
ENDCHAR
STARTCHAR 010C
ENCODING 268
SWIDTH 500 0
DWIDTH 23 0
BBX 19 20 2 0
BITMAP
FFFFC0
1E01C0
1E00C0
1E0040
1E0040
1E0400
1E0400
1E0C00
1E1C00
1FFC00
1E0C00
1E0C00
1E0400
1E0420
1E0020
1E0020
1E0060
1E0060
1E01E0
FFFFE0
ENDCHAR
STARTCHAR 010D
ENCODING 269
SWIDTH 456 0
DWIDTH 21 0
BBX 18 20 2 0
BITMAP
FFFFC0
1E01C0
1E00C0
1E00C0
1E0040
1E0400
1E0400
1E0C00
1E0C00
1FFC00
1E1C00
1E0C00
1E0400
1E0400
1E0000
1E0000
1E0000
1E0000
1E0000
FFC000
ENDCHAR
STARTCHAR 010E
ENCODING 270
SWIDTH 521 0
DWIDTH 24 0
BBX 21 20 2 0
BITMAP
00FC00
0303C0
0C00C0
1C00C0
380040
780040
780000
F80000
F80000
F80000
F80000
F80000
F80FF8
7801E0
7801E0
3801E0
1C01E0
0C01E0
060320
01FC00
ENDCHAR
STARTCHAR 010F
ENCODING 271
SWIDTH 608 0
DWIDTH 28 0
BBX 24 20 2 0
BITMAP
FFC3FF
1E0078
1E0078
1E0078
1E0078
1E0078
1E0078
1E0078
1E0078
1FFFF8
1E0078
1E0078
1E0078
1E0078
1E0078
1E0078
1E0078
1E0078
1E0078
FFC3FF
ENDCHAR
STARTCHAR 0110
ENCODING 272
SWIDTH 304 0
DWIDTH 14 0
BBX 11 20 2 0
BITMAP
FFE0
1E00
1E00
1E00
1E00
1E00
1E00
1E00
1E00
1E00
1E00
1E00
1E00
1E00
1E00
1E00
1E00
1E00
1E00
FFE0
ENDCHAR
STARTCHAR 0111
ENCODING 273
SWIDTH 347 0
DWIDTH 16 0
BBX 14 20 1 0
BITMAP
1FFC
03C0
03C0
03C0
03C0
03C0
03C0
03C0
03C0
03C0
03C0
03C0
03C0
03C0
03C0
73C0
F3C0
F3C0
F380
3F00
ENDCHAR
STARTCHAR 0112
ENCODING 274
SWIDTH 543 0
DWIDTH 25 0
BBX 23 20 2 0
BITMAP
FFC7F8
1E0080
1E0100
1E0200
1E0C00
1E1000
1E2000
1E4000
1EE000
1FF000
1EF800
1E7C00
1E3E00
1E1F00
1E1F80
1E0FC0
1E07E0
1E03E0
1E01F0
FF87FE
ENDCHAR
STARTCHAR 0113
ENCODING 275
SWIDTH 478 0
DWIDTH 22 0
BBX 19 20 2 0
BITMAP
FFC000
1E0000
1E0000
1E0000
1E0000
1E0000
1E0000
1E0000
1E0000
1E0000
1E0000
1E0000
1E0000
1E0020
1E0020
1E0060
1E0060
1E00E0
1E01E0
FFFFE0
ENDCHAR
STARTCHAR 0114
ENCODING 276
SWIDTH 652 0
DWIDTH 30 0
BBX 27 20 1 0
BITMAP
FF801FE0
17801F00
17C02F00
13C02F00
13C04F00
13E04F00
11E04F00
11E08F00
10F08F00
10F08F00
10F90F00
10790F00
107A0F00
103E0F00
103E0F00
103C0F00
101C0F00
101C0F00
10080F00
FF087FE0
ENDCHAR
STARTCHAR 0115
ENCODING 277
SWIDTH 543 0
DWIDTH 25 0
BBX 21 20 2 0
BITMAP
FE03F8
1F0040
2F8040
278040
27C040
23E040
21F040
20F040
20F840
207C40
203E40
201F40
201F40
200FC0
2007C0
2003C0
2001C0
2001C0
2000C0
FE0040
ENDCHAR
STARTCHAR 0116
ENCODING 278
SWIDTH 565 0
DWIDTH 26 0
BBX 22 21 2 -1
BITMAP
00FC00
030300
0C0180
1C00C0
3800E0
380070
780078
780078
F80078
F80078
F8007C
F80078
F80078
780078
780078
7800F0
3C00E0
1C00E0
0E01C0
070700
00FC00
ENDCHAR
STARTCHAR 0117
ENCODING 279
SWIDTH 456 0
DWIDTH 21 0
BBX 18 20 2 0
BITMAP
FFF800
1E0F00
1E0780
1E0780
1E07C0
1E07C0
1E07C0
1E0780
1E0780
1E0E00
1FF800
1E0000
1E0000
1E0000
1E0000
1E0000
1E0000
1E0000
1E0000
FFC000
ENDCHAR
STARTCHAR 0118
ENCODING 280
SWIDTH 565 0
DWIDTH 26 0
BBX 22 27 2 -7
BITMAP
00FC00
030300
0C0180
1C00E0
3800E0
780070
780078
780078
F80078
F80078
F8007C
F80078
F80078
780078
780078
7800F0
3C00E0
1C00E0
0E0180
030700
00FC00
004000
003C00
001F00
000F80
000F80
0001F0
ENDCHAR
STARTCHAR 0119
ENCODING 281
SWIDTH 521 0
DWIDTH 24 0
BBX 22 20 2 0
BITMAP
FFF800
1E0F00
1E0F80
1E0780
1E0780
1E0780
1E0780
1E0700
1E0E00
1FF800
1E0700
1E0780
1E03C0
1E03C0
1E03C0
1E03C0
1E03C0
1E03C0
1E01E8
FFC0FC
ENDCHAR
STARTCHAR 011A
ENCODING 282
SWIDTH 434 0
DWIDTH 20 0
BBX 14 21 3 -1
BITMAP
0F80
3070
4030
4010
C010
C010
E000
F800
FF00
7FE0
3FF0
0FF8
03FC
007C
803C
801C
801C
C01C
E018
F030
0FC0
ENDCHAR
STARTCHAR 011B
ENCODING 283
SWIDTH 456 0
DWIDTH 21 0
BBX 19 20 1 0
BITMAP
FFFFE0
E0F0E0
C0F060
C0F020
80F020
80F020
00F000
00F000
00F000
00F000
00F000
00F000
00F000
00F000
00F000
00F000
00F000
00F000
00F000
0FFE00
ENDCHAR
STARTCHAR 011C
ENCODING 284
SWIDTH 543 0
DWIDTH 25 0
BBX 23 21 1 -1
BITMAP
FFE0FE
1E0010
1E0010
1E0010
1E0010
1E0010
1E0010
1E0010
1E0010
1E0010
1E0010
1E0010
1E0010
1E0010
0F0020
0F0020
0F0020
0F0020
078040
03F380
00FE00
ENDCHAR
STARTCHAR 011D
ENCODING 285
SWIDTH 478 0
DWIDTH 22 0
BBX 22 21 0 -1
BITMAP
FFE1FC
1E0010
0F0020
0F0020
0F8040
078040
07C040
03C080
03C080
01E100
01E100
01F200
00F200
00F400
007C00
007C00
007800
003800
003000
001000
002000
ENDCHAR
STARTCHAR 011E
ENCODING 286
SWIDTH 739 0
DWIDTH 34 0
BBX 34 21 0 -1
BITMAP
FFE3FE1FC0
1E00F00200
0F00780200
0F00780200
0F00780400
0780BC0400
0780BC0800
07C13E0800
03C11E0800
03C21E1000
01E20F1000
01E40F2000
01E40F2000
00F407A000
00F807C000
00F807C000
0070038000
0070038000
0060018000
0020010000
0020010000
ENDCHAR
STARTCHAR 011F
ENCODING 287
SWIDTH 478 0
DWIDTH 22 0
BBX 22 20 0 0
BITMAP
FFE7F0
1F0080
0F0100
0F8100
07C200
03C400
03E800
01F800
00F000
00F800
007C00
007C00
00BE00
011F00
030F00
020F80
0407C0
0803C0
0801E0
7E1FFC
ENDCHAR
STARTCHAR 0120
ENCODING 288
SWIDTH 456 0
DWIDTH 21 0
BBX 21 20 0 0
BITMAP
FFC1F8
1E0040
1F0040
0F0080
0F8080
07C100
03C100
03E200
01E200
01F400
00F800
007800
007800
007800
007800
007800
007800
007800
007800
03FF00
ENDCHAR
STARTCHAR 0121
ENCODING 289
SWIDTH 434 0
DWIDTH 20 0
BBX 16 20 2 0
BITMAP
7FFF
601E
403C
407C
8078
00F8
00F0
01E0
03E0
03C0
07C0
0780
0F00
1F00
1E01
3E01
3C01
7C03
7807
FFFF
ENDCHAR
STARTCHAR 0122
ENCODING 290
SWIDTH 500 0
DWIDTH 23 0
BBX 23 31 0 0
BITMAP
070000
070000
078000
01C000
00E000
007000
001800
000800
000400
000000
000000
003000
003000
007800
007800
007C00
00BC00
013E00
011E00
021F00
020F00
020F80
03FF80
0407C0
0803C0
0803C0
0803E0
1001E0
1001F0
2000F0
FC07FE
ENDCHAR
STARTCHAR 0123
ENCODING 291
SWIDTH 500 0
DWIDTH 23 0
BBX 23 31 0 0
BITMAP
0000C0
0001E0
0003C0
000780
000E00
000C00
001800
002000
004000
000000
000000
003000
003000
007800
007800
007C00
00BC00
013E00
011E00
021F00
020F00
020F80
03FF80
0407C0
0803C0
0803C0
0803E0
1001E0
1001F0
2000F0
FC07FE
ENDCHAR
STARTCHAR 0124
ENCODING 292
SWIDTH 500 0
DWIDTH 23 0
BBX 23 30 0 0
BITMAP
007800
007800
00FC00
01CE00
018600
030300
060080
080040
000000
000000
003000
003000
007800
007800
007C00
00BC00
013E00
011E00
021F00
020F00
020F80
03FF80
0407C0
0803C0
0803C0
0803E0
1001E0
1001F0
2000F0
FC07FE
ENDCHAR
STARTCHAR 0125
ENCODING 293
SWIDTH 500 0
DWIDTH 23 0
BBX 23 28 0 0
BITMAP
01C040
07F8C0
0C7F80
081F00
000000
000000
000000
000000
003000
003000
007800
007800
007C00
00BC00
013E00
011E00
011F00
020F00
020F80
03FF80
0407C0
0803C0
0803C0
0803E0
1001E0
1001F0
2000F0
FC07FE
ENDCHAR
STARTCHAR 0126
ENCODING 294
SWIDTH 500 0
DWIDTH 23 0
BBX 23 29 0 0
BITMAP
030380
078780
0787C0
070380
000000
000000
000000
000000
000000
003000
003000
007800
007800
007C00
00BC00
013E00
011E00
021F00
020F00
020F80
03FF80
0407C0
0803C0
0803C0
0803E0
1001E0
1001F0
2000F0
FC07FE
ENDCHAR
STARTCHAR 0127
ENCODING 295
SWIDTH 500 0
DWIDTH 23 0
BBX 23 30 0 0
BITMAP
007800
00C400
018600
018600
018600
018600
008400
004800
003000
000000
003000
003000
007800
007800
007C00
00BC00
013E00
011E00
021F00
020F00
020F80
03FF80
0407C0
0803C0
0803C0
0803E0
1001E0
1001F0
2000F0
FC07FE
ENDCHAR
STARTCHAR 0128
ENCODING 296
SWIDTH 652 0
DWIDTH 30 0
BBX 28 20 -1 0
BITMAP
003FFFF0
0007C070
000BC030
000BC010
0013C010
0013C100
0023C100
0043C100
0043C700
00FFFF00
0083C300
0103C100
0303C100
0203C100
0403C010
0403C010
0803C010
1803C010
1003C030
FE1FFFF0
ENDCHAR
STARTCHAR 0129
ENCODING 297
SWIDTH 478 0
DWIDTH 22 0
BBX 18 31 2 -11
BITMAP
00FE00
0301C0
0E00C0
1C00C0
3C0040
380040
780000
780000
F80000
F80000
F80000
F80000
F80000
780000
780040
380040
3C0040
1C00C0
0601C0
030340
00FC00
004000
008000
00F800
011C00
000C00
000E00
000E00
000C00
021C00
01F000
ENDCHAR
STARTCHAR 012A
ENCODING 298
SWIDTH 500 0
DWIDTH 23 0
BBX 19 31 2 0
BITMAP
0C0000
1E0000
0F0000
070000
038000
00C000
006000
003000
000800
000000
000000
FFFFC0
1E01C0
1E00C0
1E00C0
1E0040
1E0400
1E0400
1E0C00
1E1C00
1FFC00
1E0C00
1E0C00
1E0400
1E0420
1E0020
1E0020
1E0060
1E0060
1E01E0
FFFFE0
ENDCHAR
STARTCHAR 012B
ENCODING 299
SWIDTH 500 0
DWIDTH 23 0
BBX 19 31 2 0
BITMAP
000300
000780
000F00
000E00
001C00
003000
006000
00C000
010000
000000
000000
FFFFC0
1E01C0
1E00C0
1E00C0
1E0040
1E0400
1E0400
1E0C00
1E1C00
1FFC00
1E0C00
1E0C00
1E0400
1E0420
1E0020
1E0020
1E0060
1E0060
1E01E0
FFFFE0
ENDCHAR
STARTCHAR 012C
ENCODING 300
SWIDTH 500 0
DWIDTH 23 0
BBX 19 30 2 0
BITMAP
00E000
01F000
01F000
03B800
060C00
0C0600
080200
100100
000000
000000
FFFFC0
1E01C0
1E00C0
1E00C0
1E0040
1E0400
1E0400
1E0C00
1E1C00
1FFC00
1E0C00
1E0C00
1E0400
1E0420
1E0020
1E0020
1E0060
1E0060
1E01E0
FFFFE0
ENDCHAR
STARTCHAR 012D
ENCODING 301
SWIDTH 500 0
DWIDTH 23 0
BBX 19 29 2 0
BITMAP
0E0E00
1E0F00
1E0F00
0E0E00
000000
000000
000000
000000
000000
FFFFC0
1E01C0
1E00C0
1E00C0
1E0040
1E0400
1E0400
1E0C00
1E1C00
1FFC00
1E0C00
1E0C00
1E0400
1E0420
1E0020
1E0020
1E0060
1E0060
1E01E0
FFFFE0
ENDCHAR
STARTCHAR 012E
ENCODING 302
SWIDTH 304 0
DWIDTH 14 0
BBX 12 31 1 0
BITMAP
E000
F000
F000
3800
1C00
0E00
0300
0100
0080
0000
0000
7FF0
0F00
0F00
0F00
0F00
0F00
0F00
0F00
0F00
0F00
0F00
0F00
0F00
0F00
0F00
0F00
0F00
0F00
0F00
7FF0
ENDCHAR
STARTCHAR 012F
ENCODING 303
SWIDTH 304 0
DWIDTH 14 0
BBX 13 31 2 0
BITMAP
0030
0078
00F0
01E0
01C0
0300
0600
0800
1000
0000
0000
FFE0
1E00
1E00
1E00
1E00
1E00
1E00
1E00
1E00
1E00
1E00
1E00
1E00
1E00
1E00
1E00
1E00
1E00
1E00
FFE0
ENDCHAR
STARTCHAR 0130
ENCODING 304
SWIDTH 304 0
DWIDTH 14 0
BBX 13 30 1 0
BITMAP
0700
0F80
1F80
19C0
30E0
6060
4010
8008
0000
0000
7FF0
0F00
0F00
0F00
0F00
0F00
0F00
0F00
0F00
0F00
0F00
0F00
0F00
0F00
0F00
0F00
0F00
0F00
0F00
7FF0
ENDCHAR
STARTCHAR 0131
ENCODING 305
SWIDTH 304 0
DWIDTH 14 0
BBX 13 29 1 0
BITMAP
6070
F0F8
F0F8
6070
0000
0000
0000
0000
0000
7FF0
0F00
0F00
0F00
0F00
0F00
0F00
0F00
0F00
0F00
0F00
0F00
0F00
0F00
0F00
0F00
0F00
0F00
0F00
7FF0
ENDCHAR
STARTCHAR 0132
ENCODING 306
SWIDTH 565 0
DWIDTH 26 0
BBX 22 20 2 0
BITMAP
FFFC00
1E0380
1E01C0
1E00F0
1E0070
1E0078
1E007C
1E007C
1E003C
FE003C
1FF03C
1E003C
1E007C
1E007C
1E0078
1E0070
1E00F0
1E01C0
1E0380
FFFC00
ENDCHAR
STARTCHAR 0133
ENCODING 307
SWIDTH 543 0
DWIDTH 25 0
BBX 21 28 2 0
BITMAP
03C0C0
0FF080
08FF00
101E00
000000
000000
000000
000000
FE03F8
1F0040
1F0040
2F8040
27C040
23E040
21F040
21F040
20F840
207C40
203E40
201E40
201F40
200FC0
2007C0
2003C0
2001C0
2001C0
2000C0
FE0040
ENDCHAR
STARTCHAR 0134
ENCODING 308
SWIDTH 565 0
DWIDTH 26 0
BBX 22 32 2 -1
BITMAP
060000
0F0000
078000
03C000
01E000
006000
003000
000800
000400
000000
000000
00F800
030700
0C0180
1C00C0
3800E0
380070
780078
780078
F80078
F80078
F8007C
F80078
F80078
F80078
780078
7800F0
3C00E0
1C00E0
0E01C0
070700
00FC00
ENDCHAR
STARTCHAR 0135
ENCODING 309
SWIDTH 565 0
DWIDTH 26 0
BBX 22 32 2 -1
BITMAP
0001C0
0001C0
0003C0
000780
000E00
001C00
001000
002000
004000
000000
000000
00F800
030700
0C0180
1C00C0
3800E0
380070
780078
780078
F80078
F80078
F8007C
F80078
F80078
F80078
780078
7800F0
3C00E0
1C00E0
0E01C0
070700
00FC00
ENDCHAR
STARTCHAR 0136
ENCODING 310
SWIDTH 565 0
DWIDTH 26 0
BBX 22 31 2 -1
BITMAP
007000
007800
00FC00
01DC00
038600
030300
060100
080080
000000
000000
00F800
030700
0C0180
1C00C0
3800E0
380070
780078
780078
F80078
F80078
F8007C
F80078
F80078
F80078
780078
7800F0
3C00E0
1C00E0
0E01C0
070700
00FC00
ENDCHAR
STARTCHAR 0137
ENCODING 311
SWIDTH 565 0
DWIDTH 26 0
BBX 22 29 2 -1
BITMAP
01C040
07F8C0
047F80
081F00
000000
000000
000000
000000
01F800
020700
0C0080
1C00C0
3800E0
380070
780078
780078
F80078
F80078
F8007C
F80078
F80078
F80078
7800F8
7800F0
3C00E0
1C01E0
0E01C0
07CF00
00FC00
ENDCHAR
STARTCHAR 0138
ENCODING 312
SWIDTH 565 0
DWIDTH 26 0
BBX 22 30 2 -1
BITMAP
070300
0F8780
0F8780
070300
000000
000000
000000
000000
000000
00F800
030700
0C0180
1C00C0
3800E0
380070
780078
780078
F80078
F80078
F8007C
F80078
F80078
F80078
780078
7800F0
3C00E0
1C00E0
0E01C0
070700
00FC00
ENDCHAR
STARTCHAR 0139
ENCODING 313
SWIDTH 565 0
DWIDTH 26 0
BBX 22 27 2 -4
BITMAP
000040
000080
000080
00FD00
030300
0C0380
1C02C0
3804E0
7804F0
780878
780878
F81078
F81078
F8207C
F82078
F84078
F84078
788078
7880F0
3900E0
1D00E0
0E01C0
070300
04FC00
040000
080000
080000
ENDCHAR
STARTCHAR 013A
ENCODING 314
SWIDTH 543 0
DWIDTH 25 0
BBX 23 32 1 -1
BITMAP
030000
038000
03C000
01E000
007000
003000
001800
000400
000200
000000
000000
000000
FFE0FE
1E0010
1E0010
1E0010
1E0010
1E0010
1E0010
1E0010
1E0010
1E0010
1E0010
1E0010
1E0010
0E0020
0F0020
0F0020
0F0020
078040
03C080
00FF00
ENDCHAR
STARTCHAR 013B
ENCODING 315
SWIDTH 543 0
DWIDTH 25 0
BBX 23 32 1 -1
BITMAP
000060
0000E0
0001E0
0003C0
000700
000E00
000C00
001000
002000
000000
000000
000000
FFE0FE
1E0010
1E0010
1E0010
1E0010
1E0010
1E0010
1E0010
1E0010
1E0010
1E0010
1E0010
1E0010
0E0020
0F0020
0F0020
0F0020
078040
03C080
00FF00
ENDCHAR
STARTCHAR 013C
ENCODING 316
SWIDTH 543 0
DWIDTH 25 0
BBX 23 31 1 -1
BITMAP
003C00
003C00
007E00
00E700
00C300
018180
0300C0
040040
000000
000000
000000
FFE0FE
1E0010
1E0010
1E0010
1E0010
1E0010
1E0010
1E0010
1E0010
1E0010
1E0010
1E0010
1E0010
0E0020
0F0020
0F0020
0F0020
078040
03C080
00FF00
ENDCHAR
STARTCHAR 013D
ENCODING 317
SWIDTH 543 0
DWIDTH 25 0
BBX 23 30 1 -1
BITMAP
0381C0
03C3C0
03C3C0
0381C0
000000
000000
000000
000000
000000
000000
FFE0FE
1E0010
1E0010
1E0010
1E0010
1E0010
1E0010
1E0010
1E0010
1E0010
1E0010
1E0010
1E0010
0E0020
0F0020
0F0020
0F0020
078040
03C080
00FF00
ENDCHAR
STARTCHAR 013E
ENCODING 318
SWIDTH 456 0
DWIDTH 21 0
BBX 21 31 0 0
BITMAP
0001C0
0003C0
0003C0
000700
000E00
001C00
003000
002000
00C000
000000
000000
FFC1F8
3E0020
1F0040
0F0080
0F8080
078100
07C100
03E200
01E200
01F400
00F800
00F800
007800
007800
007800
007800
007800
007800
007800
03FF00
ENDCHAR
STARTCHAR 013F
ENCODING 319
SWIDTH 456 0
DWIDTH 21 0
BBX 18 20 2 0
BITMAP
FFC000
1E0000
1E0000
1E0000
1FF000
1E1E00
1E0700
1E0780
1E07C0
1E07C0
1E07C0
1E0780
1E0780
1E0700
1E1C00
1FE000
1E0000
1E0000
1E0000
FFC000
ENDCHAR
STARTCHAR 0140
ENCODING 320
SWIDTH 456 0
DWIDTH 21 0
BBX 21 29 0 0
BITMAP
038380
0783C0
0783C0
038380
000000
000000
000000
000000
000000
FFC1F8
3E0020
1F0040
0F0080
0F8080
078100
07C100
03E200
01E200
01F400
00F800
00F800
007800
007800
007800
007800
007800
007800
007800
03FF00
ENDCHAR
STARTCHAR 0141
ENCODING 321
SWIDTH 0 0
DWIDTH 0 0
BBX 10 9 -13 25
BITMAP
6000
F000
7800
3C00
1C00
0E00
0300
0180
00C0
ENDCHAR
STARTCHAR 0142
ENCODING 322
SWIDTH 0 0
DWIDTH 0 0
BBX 9 9 -8 25
BITMAP
0380
0380
0780
0F00
1C00
3800
3000
4000
8000
ENDCHAR
STARTCHAR 0143
ENCODING 323
SWIDTH 0 0
DWIDTH 0 0
BBX 13 8 -13 25
BITMAP
0700
0F80
0FC0
1DC0
38E0
3070
6010
8008
ENDCHAR
STARTCHAR 0144
ENCODING 324
SWIDTH 0 0
DWIDTH 0 0
BBX 14 4 -13 27
BITMAP
3C04
7F08
87F8
81E0
ENDCHAR
STARTCHAR 0145
ENCODING 325
SWIDTH 0 0
DWIDTH 0 0
BBX 13 1 -13 28
BITMAP
FFF8
ENDCHAR
STARTCHAR 0146
ENCODING 326
SWIDTH 0 0
DWIDTH 0 0
BBX 12 7 -12 25
BITMAP
8010
8010
8020
C020
60E0
3FC0
1F00
ENDCHAR
STARTCHAR 0147
ENCODING 327
SWIDTH 0 0
DWIDTH 0 0
BBX 4 4 -8 28
BITMAP
E0
F0
F0
E0
ENDCHAR
STARTCHAR 0148
ENCODING 328
SWIDTH 0 0
DWIDTH 0 0
BBX 13 4 -13 28
BITMAP
7030
F078
F878
7030
ENDCHAR
STARTCHAR 0149
ENCODING 329
SWIDTH 0 0
DWIDTH 0 0
BBX 9 8 -11 26
BITMAP
1E00
6300
6180
E180
C180
6180
6100
3E00
ENDCHAR
STARTCHAR 014A
ENCODING 330
SWIDTH 0 0
DWIDTH 0 0
BBX 17 8 -12 26
BITMAP
018300
038780
078F00
0E1E00
1C3800
303000
604000
C18000
ENDCHAR
STARTCHAR 014B
ENCODING 331
SWIDTH 0 0
DWIDTH 0 0
BBX 13 8 -13 25
BITMAP
8008
6010
3070
38E0
1DC0
0FC0
0F80
0700
ENDCHAR
STARTCHAR 014C
ENCODING 332
SWIDTH 0 0
DWIDTH 0 0
BBX 9 11 -9 -11
BITMAP
0C00
1000
1000
3E00
4700
0380
0380
0380
0300
8700
7C00
ENDCHAR
STARTCHAR 014D
ENCODING 333
SWIDTH 0 0
DWIDTH 0 0
BBX 9 9 -10 -9
BITMAP
0180
0600
1800
3800
7000
F000
F000
7900
3E80
ENDCHAR
STARTCHAR 014E
ENCODING 334
SWIDTH 0 0
DWIDTH 0 0
BBX 13 33 -13 0
BITMAP
0008
0018
0010
0010
0020
0020
0020
0040
0040
0080
0080
0080
0100
0100
0100
0200
0200
0400
0400
0400
0800
0800
1800
1000
1000
2000
2000
2000
4000
4000
C000
8000
8000
ENDCHAR
STARTCHAR 014F
ENCODING 335
SWIDTH 391 0
DWIDTH 18 0
BBX 14 42 2 0
BITMAP
8008
4008
4018
6010
3070
1FE0
0F80
0000
0000
FFFC
0780
0780
0780
0780
0780
0780
0780
0780
0780
0780
0780
0780
0780
0780
0780
0780
0780
0780
0780
0780
0780
0780
0780
0780
0780
0780
0780
0780
0780
0780
0780
FFFC
ENDCHAR
STARTCHAR 0150
ENCODING 336
SWIDTH 304 0
DWIDTH 14 0
BBX 12 30 1 0
BITMAP
8010
8010
8020
C020
60E0
3FC0
1F00
0000
0000
0000
FF00
0F00
0F00
0F00
0F00
0F00
0F00
0F00
0F00
0F00
0F00
0F00
0F00
0F00
0F00
0F00
0F00
0F00
0F00
FFE0
ENDCHAR
STARTCHAR 0151
ENCODING 337
SWIDTH 0 0
DWIDTH 0 0
BBX 0 0 0 0
BITMAP
ENDCHAR
STARTCHAR 0152
ENCODING 338
SWIDTH 369 0
DWIDTH 17 0
BBX 9 2 4 10
BITMAP
FF80
FF80
ENDCHAR
STARTCHAR 0153
ENCODING 339
SWIDTH 739 0
DWIDTH 34 0
BBX 34 38 0 0
BITMAP
003FFE0000
0000000000
0000000000
0000000000
0000000000
0000C00000
0000C00000
0001C00000
0001E00000
0001E00000
0003F00000
0003F00000
0005F00000
0004F80000
0004F80000
00087C0000
00087C0000
00107C0000
00103E0000
00103E0000
00201F0000
00201F0000
00401F0000
00400F8000
007FFF8000
00800F8000
008007C000
008007C000
010003E000
010003E000
020003E000
020001F000
020001F000
040000F800
040000F800
080000F800
0800007C00
FFC00FFFC0
ENDCHAR
STARTCHAR 0154
ENCODING 340
SWIDTH 478 0
DWIDTH 22 0
BBX 20 29 2 0
BITMAP
1FFF00
000000
000000
000000
000000
000000
000000
000000
000000
07F000
180C00
380E00
380E00
780F00
780F00
380F00
000F00
001F00
00EF00
070F00
3C0F00
780F00
F00F00
F00F00
F00F00
F01F00
F02F00
782710
1FC3E0
ENDCHAR
STARTCHAR 0155
ENCODING 341
SWIDTH 739 0
DWIDTH 34 0
BBX 34 41 0 0
BITMAP
0020020000
0010020000
0010040000
0018040000
000C1C0000
0007F80000
0003E00000
0000000000
0000C00000
0000C00000
0001C00000
0001E00000
0001E00000
0003F00000
0003F00000
0005F00000
0004F80000
0004F80000
00087C0000
00087C0000
00107C0000
00103E0000
00103E0000
00201F0000
00201F0000
00401F0000
00400F8000
007FFF8000
00800F8000
008007C000
008007C000
010003E000
010003E000
020003E000
020001F000
020001F000
040000F800
040000F800
080000F800
0800007C00
FFC00FFFC0
ENDCHAR
STARTCHAR 0156
ENCODING 342
SWIDTH 478 0
DWIDTH 22 0
BBX 20 32 2 0
BITMAP
100200
100200
100200
080600
0E0C00
07F800
03F000
000000
000000
000000
000000
000000
07F000
180C00
380E00
380E00
780F00
780F00
380F00
000F00
001F00
00EF00
070F00
3C0F00
780F00
F00F00
F00F00
F00F00
F01F00
F02F00
782710
1FC3E0
ENDCHAR
STARTCHAR 0157
ENCODING 343
SWIDTH 739 0
DWIDTH 34 0
BBX 34 42 0 -9
BITMAP
0000C00000
0000C00000
0001C00000
0001E00000
0001E00000
0003F00000
0003F00000
0005F00000
0004F80000
0004F80000
00087C0000
00087C0000
00107C0000
00103E0000
00103E0000
00201F0000
00201F0000
00401F0000
00400F8000
007FFF8000
00800F8000
008007C000
008007C000
010003E000
010003E000
020003E000
020001F000
020001F000
040000F800
040000F800
080000F800
0800007C00
FFC00FFFC0
0000004000
0000018000
0000060000
00000C0000
00001C0000
00003C0000
00003C0000
00001E4000
00000FA000
ENDCHAR
STARTCHAR 0158
ENCODING 344
SWIDTH 478 0
DWIDTH 22 0
BBX 20 29 2 -9
BITMAP
07F000
180C00
380E00
380E00
780F00
780F00
380F00
000F00
001F00
00EF00
070F00
3C0F00
780F00
F00F00
F00F00
F00F00
F01F00
F02F00
782710
1FC3E0
000040
000180
000700
000E00
001C00
001C00
001C00
001E20
0007C0
ENDCHAR
STARTCHAR 0159
ENCODING 345
SWIDTH 717 0
DWIDTH 33 0
BBX 27 43 4 0
BITMAP
00003000
00007000
0000F000
0001E000
0003C000
00030000
00060000
000C0000
00100000
00000000
001FFC40
006007C0
018001C0
030001C0
060000C0
0E000040
1C000040
3C000040
3C000040
78000000
78000000
F8000000
F8000000
F8000000
F8000000
F8000000
F8000000
F8000000
F8000000
F8000000
F8000000
F8000000
78000000
78000020
3C000020
3C000020
1C000060
0E000060
060000E0
030000E0
018001E0
004003E0
003FFC20
ENDCHAR
STARTCHAR 015A
ENCODING 346
SWIDTH 478 0
DWIDTH 22 0
BBX 19 34 2 0
BITMAP
000E00
000E00
001E00
003C00
007000
00E000
00C000
010000
020000
000000
000000
000000
000000
000000
01FC00
060300
0C0380
1C03C0
3803C0
7803C0
7803C0
F80000
F80000
F80000
F80000
F80000
F80000
780000
780000
780060
3C0040
1C0080
060080
01FF00
ENDCHAR
STARTCHAR 015B
ENCODING 347
SWIDTH 717 0
DWIDTH 33 0
BBX 27 42 4 0
BITMAP
00038000
0007C000
0007E000
000EE000
001C7000
00183800
00300800
00400400
00000000
001FFC40
006007C0
018001C0
030001C0
060000C0
0E000040
1C000040
3C000040
3C000040
78000000
78000000
F8000000
F8000000
F8000000
F8000000
F8000000
F8000000
F8000000
F8000000
F8000000
F8000000
F8000000
78000000
78000020
3C000020
3C000020
1C000060
0E000060
060000E0
030000E0
018001E0
004003E0
003FFC20
ENDCHAR
STARTCHAR 015C
ENCODING 348
SWIDTH 478 0
DWIDTH 22 0
BBX 19 33 2 0
BITMAP
007000
00F800
00F800
01DC00
038E00
030600
040300
080080
000000
000000
000000
000000
000000
01FC00
060300
0C0380
1C03C0
3803C0
7803C0
7803C0
F80000
F80000
F80000
F80000
F80000
F80000
780000
780000
780060
3C0040
1C0080
060080
01FF00
ENDCHAR
STARTCHAR 015D
ENCODING 349
SWIDTH 717 0
DWIDTH 33 0
BBX 27 41 4 0
BITMAP
00030000
00078000
00078000
00070000
00000000
00000000
00000000
00000000
001FFC40
006007C0
018001C0
030001C0
060000C0
0E000040
1C000040
3C000040
3C000040
78000000
78000000
F8000000
F8000000
F8000000
F8000000
F8000000
F8000000
F8000000
F8000000
F8000000
F8000000
F8000000
78000000
78000020
3C000020
3C000020
1C000060
0E000060
060000E0
030000E0
018001E0
004003E0
003FFC20
ENDCHAR
STARTCHAR 015E
ENCODING 350
SWIDTH 478 0
DWIDTH 22 0
BBX 19 32 2 0
BITMAP
006000
00F000
00F000
006000
000000
000000
000000
000000
000000
000000
000000
000000
01FC00
060300
0C0380
1C03C0
3803C0
7803C0
7803C0
F80000
F80000
F80000
F80000
F80000
F80000
780000
780000
780060
3C0040
1C0080
060080
01FF00
ENDCHAR
STARTCHAR 015F
ENCODING 351
SWIDTH 717 0
DWIDTH 33 0
BBX 27 42 4 0
BITMAP
00600400
00300800
00181800
000C7000
000EE000
0007E000
0003C000
00038000
00000000
001FFC40
006007C0
018001C0
030001C0
060000C0
0E000040
1C000040
3C000040
3C000040
78000000
78000000
F8000000
F8000000
F8000000
F8000000
F8000000
F8000000
F8000000
F8000000
F8000000
F8000000
F8000000
78000000
78000020
3C000020
3C000020
1C000060
0E000060
060000E0
030000E0
018001E0
004003E0
003FFC20
ENDCHAR
STARTCHAR 0160
ENCODING 352
SWIDTH 478 0
DWIDTH 22 0
BBX 19 33 2 0
BITMAP
0C0080
060100
030300
018E00
01DC00
00FC00
007800
007000
000000
000000
000000
000000
000000
01FC00
060300
0C0380
1C03C0
3803C0
7803C0
7803C0
F80000
F80000
F80000
F80000
F80000
F80000
780000
780000
780060
3C0040
1C0080
060080
01FF00
ENDCHAR
STARTCHAR 0161
ENCODING 353
SWIDTH 804 0
DWIDTH 37 0
BBX 33 42 1 0
BITMAP
0060040000
0030080000
0018180000
000C700000
000EE00000
0007E00000
0003C00000
0003800000
0000000000
FFFFF00000
07C01E0000
07C003C000
07C001E000
07C000F000
07C0007800
07C0003C00
07C0003E00
07C0003E00
07C0001F00
07C0001F00
07C0001F00
07C0001F80
07C0001F80
07C0000F80
07C0000F80
07C0000F80
07C0000F80
07C0000F80
07C0000F80
07C0001F80
07C0001F00
07C0001F00
07C0001F00
07C0003E00
07C0003E00
07C0003C00
07C0007800
07C000F000
07C000E000
07C003C000
07C0070000
FFFFF80000
ENDCHAR
STARTCHAR 0162
ENCODING 354
SWIDTH 760 0
DWIDTH 35 0
BBX 32 33 2 0
BITMAP
0007F01C
0000F03E
0000F07F
0000F03F
0000F01B
0000F001
0000F001
0000F002
0000F002
0000F004
0000F008
0000F030
0000F000
01F8F000
0606F000
0C01F000
1C00F000
3800F000
7800F000
7800F000
7800F000
F800F000
F800F000
F800F000
7800F000
7800F000
7800F000
3800F000
38017000
1C017000
0C037000
06027000
01FC7F00
ENDCHAR
STARTCHAR 0163
ENCODING 355
SWIDTH 804 0
DWIDTH 37 0
BBX 33 33 1 0
BITMAP
FFFFF00000
07C00E0000
07C003C000
07C001E000
07C000F000
07C0007800
07C0003C00
07C0003E00
07C0003E00
07C0001F00
07C0001F00
07C0001F00
07C0001F80
07C0001F80
07C0000F80
FFFF800F80
07C0000F80
07C0000F80
07C0000F80
07C0000F80
07C0001F80
07C0001F00
07C0001F00
07C0001F00
07C0001E00
07C0003E00
07C0003C00
07C0007800
07C0007000
07C000E000
07C001C000
07C0070000
FFFFF80000
ENDCHAR
STARTCHAR 0164
ENCODING 356
SWIDTH 652 0
DWIDTH 30 0
BBX 26 33 2 0
BITMAP
0007F000
0000F000
0000F000
0000F000
0000F000
007FFFC0
0000F000
0000F000
0000F000
0000F000
0000F000
0000F000
0000F000
01F8F000
0606F000
0C01F000
1C00F000
3800F000
7800F000
7800F000
7800F000
F800F000
F800F000
F800F000
7800F000
7800F000
7800F000
3800F000
38017000
1C017000
0C037000
06027000
01FC7F00
ENDCHAR
STARTCHAR 0165
ENCODING 357
SWIDTH 695 0
DWIDTH 32 0
BBX 28 38 1 0
BITMAP
003FFE00
00000000
00000000
00000000
00000000
FFFFFFE0
07C003E0
07C001E0
07C000E0
07C00060
07C00060
07C00020
07C00020
07C01000
07C01000
07C01000
07C01000
07C03000
07C03000
07C0F000
07FFF000
07C0F000
07C03000
07C03000
07C01000
07C01000
07C01000
07C01000
07C00010
07C00010
07C00010
07C00010
07C00030
07C00030
07C00070
07C000F0
07C001F0
FFFFFFF0
ENDCHAR
STARTCHAR 0166
ENCODING 358
SWIDTH 500 0
DWIDTH 23 0
BBX 19 29 2 0
BITMAP
0FFF80
000000
000000
000000
000000
000000
000000
000000
000000
01F800
060700
0C0380
1C03C0
3803C0
7803E0
7803E0
F803E0
FFFC00
F80000
F80000
F80000
F80000
780000
780000
380060
3C0040
1C0080
060080
01FF00
ENDCHAR
STARTCHAR 0167
ENCODING 359
SWIDTH 695 0
DWIDTH 32 0
BBX 28 41 1 0
BITMAP
00400800
00400800
00200800
00301800
00383000
001FE000
0007C000
00000000
FFFFFFE0
07C003E0
07C001E0
07C000E0
07C00060
07C00060
07C00020
07C00020
07C01000
07C01000
07C01000
07C01000
07C03000
07C03000
07C0F000
07FFF000
07C0F000
07C03000
07C03000
07C01000
07C01000
07C01000
07C01000
07C00010
07C00010
07C00010
07C00010
07C00030
07C00030
07C00070
07C000F0
07C001F0
FFFFFFF0
ENDCHAR
STARTCHAR 0168
ENCODING 360
SWIDTH 500 0
DWIDTH 23 0
BBX 19 32 2 0
BITMAP
080080
080100
040100
060300
030600
03FE00
00F800
000000
000000
000000
000000
000000
01F800
060700
0C0380
1C03C0
3803C0
7803E0
7803E0
F803E0
FFFC00
F80000
F80000
F80000
F80000
780000
780000
380060
3C0040
1C0080
060080
01FF00
ENDCHAR
STARTCHAR 0169
ENCODING 361
SWIDTH 695 0
DWIDTH 32 0
BBX 28 41 1 0
BITMAP
00038000
00078000
0007C000
00038000
00000000
00000000
00000000
00000000
FFFFFFE0
07C003E0
07C001E0
07C000E0
07C00060
07C00060
07C00020
07C00020
07C01000
07C01000
07C01000
07C01000
07C03000
07C03000
07C0F000
07FFF000
07C0F000
07C03000
07C03000
07C01000
07C01000
07C01000
07C01000
07C00010
07C00010
07C00010
07C00010
07C00030
07C00030
07C00070
07C000F0
07C001F0
FFFFFFF0
ENDCHAR
STARTCHAR 016A
ENCODING 362
SWIDTH 500 0
DWIDTH 23 0
BBX 19 32 2 0
BITMAP
007000
00F000
00F000
007000
000000
000000
000000
000000
000000
000000
000000
000000
01F800
060700
0C0380
1C03C0
3803C0
7803E0
7803E0
F803E0
FFFC00
F80000
F80000
F80000
F80000
780000
780000
380060
3C0040
1C0080
060080
01FF00
ENDCHAR
STARTCHAR 016B
ENCODING 363
SWIDTH 695 0
DWIDTH 32 0
BBX 28 42 1 -9
BITMAP
FFFFFFE0
07C003E0
07C001E0
07C000E0
07C00060
07C00060
07C00020
07C00020
07C01000
07C01000
07C01000
07C01000
07C03000
07C03000
07C0F000
07FFF000
07C0F000
07C03000
07C03000
07C01000
07C01000
07C01000
07C01000
07C00010
07C00010
07C00010
07C00010
07C00030
07C00030
07C00070
07C000F0
07C001F0
FFFFFFF0
00000200
00000C00
00003000
00007000
0000E000
0001E000
0001E000
0000F200
00007D00
ENDCHAR
STARTCHAR 016C
ENCODING 364
SWIDTH 500 0
DWIDTH 23 0
BBX 19 29 2 -9
BITMAP
01F800
060700
0C0380
1C03C0
3803C0
7803E0
7803E0
F803E0
FFFC00
F80000
F80000
F80000
F80000
780000
780000
380060
3C0040
1C0080
060080
010300
00FC00
003000
00E000
01C000
038000
038000
038000
03C400
00F800
ENDCHAR
STARTCHAR 016D
ENCODING 365
SWIDTH 695 0
DWIDTH 32 0
BBX 28 42 1 0
BITMAP
00200600
00100C00
00181800
000E3000
00077000
0007E000
0003C000
0001C000
00000000
FFFFFFE0
07C003E0
07C001E0
07C000E0
07C00060
07C00060
07C00020
07C00020
07C01000
07C01000
07C01000
07C01000
07C03000
07C03000
07C0F000
07FFF000
07C0F000
07C03000
07C03000
07C01000
07C01000
07C01000
07C01000
07C00010
07C00010
07C00010
07C00010
07C00030
07C00030
07C00070
07C000F0
07C001F0
FFFFFFF0
ENDCHAR
STARTCHAR 016E
ENCODING 366
SWIDTH 500 0
DWIDTH 23 0
BBX 19 33 2 0
BITMAP
080180
040300
070600
038E00
01DC00
01F800
00F800
007000
000000
000000
000000
000000
000000
01F800
060700
0C0380
1C03C0
3803C0
7803E0
7803E0
F803E0
FFFC00
F80000
F80000
F80000
F80000
780000
780000
380060
3C0040
1C0080
060080
01FF00
ENDCHAR
STARTCHAR 016F
ENCODING 367
SWIDTH 804 0
DWIDTH 37 0
BBX 32 42 4 0
BITMAP
00038000
00078000
000FC000
000EE000
001C6000
00303000
00201800
00400800
00000400
001FF840
006007C0
018001C0
030001C0
060000C0
0E000040
1C000040
3C000040
3C000040
78000000
78000000
F8000000
F8000000
F8000000
F8000000
F8000000
F8000000
F8000000
F8000000
F8000000
F8000000
F8003FFF
780000F0
780000F0
3C0000F0
3C0001F0
1C0001F0
0E0001F0
060001F0
030003F0
01800790
00400C00
003FF000
ENDCHAR
STARTCHAR 0170
ENCODING 368
SWIDTH 521 0
DWIDTH 24 0
BBX 22 46 2 -13
BITMAP
007000
00F000
01F800
01DC00
038C00
060600
040300
080100
000080
000000
000000
000000
000000
01F838
0604DC
0C031C
18038C
3803C0
3803C0
3803C0
3803C0
380380
3C0380
1C0700
0E0E00
11F800
600000
400000
C00000
E00000
FFFE00
FFFF80
7FFFC0
3FFFE0
0401E0
1800E0
300060
700060
700060
700060
700040
7000C0
700080
380100
1E0600
07F800
ENDCHAR
STARTCHAR 0171
ENCODING 369
SWIDTH 804 0
DWIDTH 37 0
BBX 32 41 4 0
BITMAP
00400400
00400800
00200800
00301800
00183000
001FF000
0007C000
00000000
001FF840
006007C0
018001C0
030001C0
060000C0
0E000040
1C000040
3C000040
3C000040
78000000
78000000
F8000000
F8000000
F8000000
F8000000
F8000000
F8000000
F8000000
F8000000
F8000000
F8000000
F8003FFF
780000F0
780000F0
3C0000F0
3C0001F0
1C0001F0
0E0001F0
060001F0
030003F0
01800790
00400C00
003FF000
ENDCHAR
STARTCHAR 0172
ENCODING 370
SWIDTH 521 0
DWIDTH 24 0
BBX 22 45 2 -13
BITMAP
100100
080100
080300
0C0200
060E00
03FC00
01F800
000000
000000
000000
000000
000000
01F838
0604DC
0C031C
18038C
3803C0
3803C0
3803C0
3803C0
380380
3C0380
1C0700
0E0E00
11F800
600000
400000
C00000
E00000
FFFE00
FFFF80
7FFFC0
3FFFE0
0401E0
1800E0
300060
700060
700060
700060
700040
7000C0
700080
380100
1E0600
07F800
ENDCHAR
STARTCHAR 0173
ENCODING 371
SWIDTH 804 0
DWIDTH 37 0
BBX 32 41 4 0
BITMAP
00038000
0007C000
0007C000
00038000
00000000
00000000
00000000
00000000
001FF840
006007C0
018001C0
030001C0
060000C0
0E000040
1C000040
3C000040
3C000040
78000000
78000000
F8000000
F8000000
F8000000
F8000000
F8000000
F8000000
F8000000
F8000000
F8000000
F8000000
F8003FFF
780000F0
780000F0
3C0000F0
3C0001F0
1C0001F0
0E0001F0
060001F0
030003F0
01800790
00400C00
003FF000
ENDCHAR
STARTCHAR 0174
ENCODING 372
SWIDTH 521 0
DWIDTH 24 0
BBX 22 47 2 -13
BITMAP
006000
00F000
00F000
006000
000000
000000
000000
000000
000000
000000
000000
000000
000000
000000
01F838
0604DC
0C031C
18038C
3803C0
3803C0
3803C0
3803C0
380380
3C0380
1C0700
0E0E00
11F800
600000
400000
C00000
E00000
FFFE00
FFFF80
7FFFC0
3FFFE0
0401E0
1800E0
300060
700060
700060
700060
700040
7000C0
700080
380100
1E0600
07F800
ENDCHAR
STARTCHAR 0175
ENCODING 373
SWIDTH 804 0
DWIDTH 37 0
BBX 32 44 4 -11
BITMAP
001FF840
006007C0
018001C0
030001C0
060000C0
0E000040
1C000040
3C000040
3C000040
78000000
78000000
F8000000
F8000000
F8000000
F8000000
F8000000
F8000000
F8000000
F8000000
F8000000
F8000000
F8003FFF
780000F0
780000F0
3C0000F0
3C0001F0
1C0001F0
0E0001F0
060001F0
030003F0
01800790
00400C00
00303000
000FC000
00010000
00020000
0007C000
00046000
00007000
00003000
00007000
00007000
00086000
0007C000
ENDCHAR
STARTCHAR 0176
ENCODING 374
SWIDTH 521 0
DWIDTH 24 0
BBX 22 49 2 -13
BITMAP
001000
006000
008000
010000
010000
010000
030000
037000
03F800
01F800
01F800
00F000
000000
000000
000000
000000
01F838
0604DC
0C031C
18038C
3803C0
3803C0
3803C0
3803C0
380380
3C0380
1C0700
0E0E00
11F800
600000
400000
C00000
E00000
FFFE00
FFFF80
7FFFC0
3FFFE0
0401E0
1800E0
300060
700060
700060
700060
700040
7000C0
700080
380100
1E0600
07F800
ENDCHAR
STARTCHAR 0177
ENCODING 375
SWIDTH 804 0
DWIDTH 37 0
BBX 35 42 1 0
BITMAP
0000700000
0000F00000
0001F80000
0001DC0000
00038C0000
0006060000
0004030000
0008010000
0000008000
FFFE0FFFE0
07C0007C00
07C0007C00
07C0007C00
07C0007C00
07C0007C00
07C0007C00
07C0007C00
07C0007C00
07C0007C00
07C0007C00
07C0007C00
07C0007C00
07C0007C00
07C0007C00
07C0007C00
07FFFFFC00
07C0007C00
07C0007C00
07C0007C00
07C0007C00
07C0007C00
07C0007C00
07C0007C00
07C0007C00
07C0007C00
07C0007C00
07C0007C00
07C0007C00
07C0007C00
07C0007C00
07C0007C00
FFFE0FFFE0
ENDCHAR
STARTCHAR 0178
ENCODING 376
SWIDTH 608 0
DWIDTH 28 0
BBX 27 42 0 0
BITMAP
07000000
0F800000
1F800000
1DC00000
38E00000
30600000
40300000
80080000
00000000
7F800000
07800000
07800000
07800000
07800000
07800000
07800000
07800000
07800000
07800000
07800000
07800000
07800000
0787F000
07981C00
07A01C00
07C01E00
07C01E00
07801E00
07801E00
07801E00
07801E00
07801E00
07801E00
07801E00
07801E00
07801E00
07801E00
07801E00
07801E00
07801E00
07801E00
7FF0FFE0
ENDCHAR
STARTCHAR 0179
ENCODING 377
SWIDTH 804 0
DWIDTH 37 0
BBX 41 33 -2 0
BITMAP
1FFFC1FFFC00
00F8000F8000
00F8000F8000
00F8000F8000
00F8000F8000
00F8000F8000
00F8000F8000
00F8000F8000
FFFFFFFFFF80
00F8000F8000
00F8000F8000
00F8000F8000
00F8000F8000
00F8000F8000
00F8000F8000
00F8000F8000
00FFFFFF8000
00F8000F8000
00F8000F8000
00F8000F8000
00F8000F8000
00F8000F8000
00F8000F8000
00F8000F8000
00F8000F8000
00F8000F8000
00F8000F8000
00F8000F8000
00F8000F8000
00F8000F8000
00F8000F8000
00F8000F8000
1FFFC1FFFC00
ENDCHAR
STARTCHAR 017A
ENCODING 378
SWIDTH 608 0
DWIDTH 28 0
BBX 29 33 -2 0
BITMAP
1FE00000
01E00000
01E00000
01E00000
01E00000
01E00000
FFFF8000
01E00000
01E00000
01E00000
01E00000
01E00000
01E00000
01E1FC00
01E60700
01E80700
01F00780
01F00780
01E00780
01E00780
01E00780
01E00780
01E00780
01E00780
01E00780
01E00780
01E00780
01E00780
01E00780
01E00780
01E00780
01E00780
1FFC3FF8
ENDCHAR
STARTCHAR 017B
ENCODING 379
SWIDTH 391 0
DWIDTH 18 0
BBX 14 40 2 0
BITMAP
3C04
7F8C
C7F8
81F0
0000
0000
0000
FFFC
0780
0780
0780
0780
0780
0780
0780
0780
0780
0780
0780
0780
0780
0780
0780
0780
0780
0780
0780
0780
0780
0780
0780
0780
0780
0780
0780
0780
0780
0780
0780
FFFC
ENDCHAR
STARTCHAR 017C
ENCODING 380
SWIDTH 304 0
DWIDTH 14 0
BBX 15 31 -1 0
BITMAP
1E06
7F84
43F8
80F0
0000
0000
0000
0000
0000
0000
0000
3FC0
03C0
03C0
03C0
03C0
03C0
03C0
03C0
03C0
03C0
03C0
03C0
03C0
03C0
03C0
03C0
03C0
03C0
03C0
3FF8
ENDCHAR
STARTCHAR 017D
ENCODING 381
SWIDTH 391 0
DWIDTH 18 0
BBX 14 38 2 0
BITMAP
7FFC
0000
0000
0000
0000
FFFC
0780
0780
0780
0780
0780
0780
0780
0780
0780
0780
0780
0780
0780
0780
0780
0780
0780
0780
0780
0780
0780
0780
0780
0780
0780
0780
0780
0780
0780
0780
0780
FFFC
ENDCHAR
STARTCHAR 017E
ENCODING 382
SWIDTH 304 0
DWIDTH 14 0
BBX 13 29 0 0
BITMAP
FFF8
0000
0000
0000
0000
0000
0000
0000
0000
7F80
0780
0780
0780
0780
0780
0780
0780
0780
0780
0780
0780
0780
0780
0780
0780
0780
0780
0780
7FF0
ENDCHAR
STARTCHAR 017F
ENCODING 383
SWIDTH 391 0
DWIDTH 18 0
BBX 14 42 2 -9
BITMAP
FFFC
0780
0780
0780
0780
0780
0780
0780
0780
0780
0780
0780
0780
0780
0780
0780
0780
0780
0780
0780
0780
0780
0780
0780
0780
0780
0780
0780
0780
0780
0780
0780
FFFC
0180
0600
0C00
3800
3800
7000
7800
3880
1F00
ENDCHAR
STARTCHAR 0180
ENCODING 384
SWIDTH 304 0
DWIDTH 14 0
BBX 11 42 1 -9
BITMAP
0E00
1F00
1F00
1F00
0E00
0000
0000
0000
0000
0000
0000
0000
0000
FF00
0F00
0F00
0F00
0F00
0F00
0F00
0F00
0F00
0F00
0F00
0F00
0F00
0F00
0F00
0F00
0F00
0F00
0F00
FFE0
00C0
0300
0600
1C00
1C00
3800
3C00
1C40
0F80
ENDCHAR
STARTCHAR 0181
ENCODING 385
SWIDTH 391 0
DWIDTH 18 0
BBX 14 41 2 0
BITMAP
0700
0780
0780
0700
0000
0000
0000
0000
FFFC
0780
0780
0780
0780
0780
0780
0780
0780
0780
0780
0780
0780
0780
0780
0780
0780
0780
0780
0780
0780
0780
0780
0780
0780
0780
0780
0780
0780
0780
0780
0780
FFFC
ENDCHAR
STARTCHAR 0182
ENCODING 386
SWIDTH 804 0
DWIDTH 37 0
BBX 34 33 2 0
BITMAP
FFFC1FFFC0
078000F800
078000F800
078000F800
078000F800
078000F800
078000F800
078000F800
078000F800
078000F800
078000F800
078000F800
078000F800
078000F800
078000F800
078000F800
078000F800
078000F800
078000F800
078000F800
078000F800
078000F800
078000F800
078000F800
078000F800
0780E0F800
0781F0F800
0781F0F800
0781F0F000
0781E0F000
0781E0E000
0780E0C000
FFFC3F8000
ENDCHAR
STARTCHAR 0183
ENCODING 387
SWIDTH 586 0
DWIDTH 27 0
BBX 24 46 1 -13
BITMAP
0E000E
1F001F
1F001F
1F001F
0E000E
000000
000000
000000
000000
000000
000000
000000
000000
FF00FE
0F001E
0F001E
0F001E
0F001E
0F001E
0F001E
0F001E
0F001E
0F001E
0F001E
0F001E
0F001E
0F001E
0F001E
0F001E
0F001E
0F001E
0F001E
FFE01E
00001E
00001E
00001E
00001E
00001E
00001E
00001E
000E1E
001E1C
001E1C
000E18
000E10
0003E0
ENDCHAR
STARTCHAR 0184
ENCODING 388
SWIDTH 456 0
DWIDTH 21 0
BBX 19 42 1 0
BITMAP
003800
003C00
007E00
00EE00
00C700
018180
030080
020040
040000
0FFFE0
003C00
003C00
003C00
003C00
003C00
003C00
003C00
003C00
003C00
003C00
003C00
003C00
003C00
003C00
003C00
003C00
003C00
003C00
003C00
003C00
003C00
003C00
003C00
003C00
703C00
F83C00
F83C00
F83800
F07800
F07000
706000
1FC000
ENDCHAR
STARTCHAR 0185
ENCODING 389
SWIDTH 304 0
DWIDTH 14 0
BBX 12 33 -3 -13
BITMAP
0FF0
00F0
00F0
00F0
00F0
00F0
00F0
00F0
00F0
00F0
00F0
00F0
00F0
00F0
00F0
00F0
00F0
00F0
00F0
00F0
00F0
00F0
00F0
00F0
00F0
00F0
00E0
E0E0
E0E0
E0C0
E1C0
6180
3E00
ENDCHAR
STARTCHAR 0186
ENCODING 390
SWIDTH 304 0
DWIDTH 14 0
BBX 16 46 -3 -13
BITMAP
00E0
01F0
03F0
03B8
071C
060C
0806
1001
0000
0000
0000
0000
0000
0FF0
00F0
00F0
00F0
00F0
00F0
00F0
00F0
00F0
00F0
00F0
00F0
00F0
00F0
00F0
00F0
00F0
00F0
00F0
00F0
00F0
00F0
00F0
00F0
00F0
00F0
00E0
E0E0
E0E0
E0C0
E1C0
6180
3E00
ENDCHAR
STARTCHAR 0187
ENCODING 391
SWIDTH 739 0
DWIDTH 34 0
BBX 33 44 1 -11
BITMAP
FFFE0FF800
07C0008000
07C0010000
07C0020000
07C0040000
07C0080000
07C0100000
07C0200000
07C0400000
07C0800000
07C1000000
07C2000000
07C4000000
07C4000000
07CE000000
07DF000000
07FF800000
07CF800000
07C7C00000
07C7E00000
07C3F00000
07C1F80000
07C0FC0000
07C07E0000
07C03F0000
07C03F0000
07C01F8000
07C00FC000
07C007E000
07C003F000
07C001F800
07C000FC00
FFFE0FFF80
0000001000
0000002000
0000004000
000000F800
0000010C00
0000000E00
0000000E00
0000000E00
0000000E00
0000020C00
000001F000
ENDCHAR
STARTCHAR 0188
ENCODING 392
SWIDTH 543 0
DWIDTH 25 0
BBX 24 44 1 -11
BITMAP
FF0000
0F0000
0F0000
0F0000
0F0000
0F0000
0F0000
0F0000
0F0000
0F0000
0F0000
0F0000
0F0000
0F03F8
0F0040
0F0080
0F0100
0F0600
0F0800
0F1000
0F3000
0F7800
0FF800
0F7C00
0F3E00
0F1F00
0F0F80
0F07C0
0F07C0
0F03E0
0F01F0
0F00F8
FFC7FF
000010
000020
000040
00007C
00008E
000006
000007
000007
000006
00010E
0000F8
ENDCHAR
STARTCHAR 0189
ENCODING 393
SWIDTH 543 0
DWIDTH 25 0
BBX 24 20 1 0
BITMAP
FF03F8
0F0040
0F0080
0F0300
0F0400
0F0800
0F1000
0F3000
0F7800
0FF800
0F7C00
0F3E00
0F1F00
0F0F80
0F0FC0
0F07C0
0F03E0
0F01F0
0F00F8
FFC7FF
ENDCHAR
STARTCHAR 018A
ENCODING 394
SWIDTH 695 0
DWIDTH 32 0
BBX 28 43 1 0
BITMAP
00300000
00780000
00F80000
00E00000
01C00000
03800000
06000000
04000000
08000000
10000000
FFFE0000
07C00000
07C00000
07C00000
07C00000
07C00000
07C00000
07C00000
07C00000
07C00000
07C00000
07C00000
07C00000
07C00000
07C00000
07C00000
07C00000
07C00000
07C00000
07C00000
07C00000
07C00000
07C00000
07C00010
07C00010
07C00010
07C00010
07C00030
07C00030
07C00070
07C000F0
07C001F0
FFFFFFF0
ENDCHAR
STARTCHAR 018B
ENCODING 395
SWIDTH 304 0
DWIDTH 14 0
BBX 11 43 1 0
BITMAP
00C0
01E0
03C0
0380
0700
0E00
1800
1000
2000
4000
FF00
0F00
0F00
0F00
0F00
0F00
0F00
0F00
0F00
0F00
0F00
0F00
0F00
0F00
0F00
0F00
0F00
0F00
0F00
0F00
0F00
0F00
0F00
0F00
0F00
0F00
0F00
0F00
0F00
0F00
0F00
0F00
FFE0
ENDCHAR
STARTCHAR 018C
ENCODING 396
SWIDTH 695 0
DWIDTH 32 0
BBX 28 44 1 -11
BITMAP
FFFE0000
07C00000
07C00000
07C00000
07C00000
07C00000
07C00000
07C00000
07C00000
07C00000
07C00000
07C00000
07C00000
07C00000
07C00000
07C00000
07C00000
07C00000
07C00000
07C00000
07C00000
07C00000
07C00000
07C00010
07C00010
07C00010
07C00010
07C00030
07C00030
07C00070
07C000F0
07C001F0
FFFFFFF0
00008000
00010000
00020000
0003E000
00047000
00003000
00003800
00003800
00003000
00087000
0007C000
ENDCHAR
STARTCHAR 018D
ENCODING 397
SWIDTH 304 0
DWIDTH 14 0
BBX 11 44 1 -11
BITMAP
FF00
0F00
0F00
0F00
0F00
0F00
0F00
0F00
0F00
0F00
0F00
0F00
0F00
0F00
0F00
0F00
0F00
0F00
0F00
0F00
0F00
0F00
0F00
0F00
0F00
0F00
0F00
0F00
0F00
0F00
0F00
0F00
FFE0
0100
0200
0400
0B80
0CE0
0060
0060
0060
0060
10C0
0F80
ENDCHAR
STARTCHAR 018E
ENCODING 398
SWIDTH 695 0
DWIDTH 32 0
BBX 28 33 1 0
BITMAP
FFFE0700
07C00FC0
07C00FC0
07C00FC0
07C00760
07C00040
07C00040
07C00040
07C00080
07C00100
07C00200
07C00400
07C00000
07C00000
07C00000
07C00000
07C00000
07C00000
07C00000
07C00000
07C00000
07C00000
07C00000
07C00010
07C00010
07C00010
07C00010
07C00030
07C00030
07C00070
07C000F0
07C001F0
FFFFFFF0
ENDCHAR
STARTCHAR 018F
ENCODING 399
SWIDTH 456 0
DWIDTH 21 0
BBX 18 33 1 0
BITMAP
FF0700
0F0F80
0F0FC0
0F0FC0
0F0740
0F0040
0F0040
0F0080
0F0080
0F0100
0F0200
0F0400
0F0000
0F0000
0F0000
0F0000
0F0000
0F0000
0F0000
0F0000
0F0000
0F0000
0F0000
0F0000
0F0000
0F0000
0F0000
0F0000
0F0000
0F0000
0F0000
0F0000
FFE000
ENDCHAR
STARTCHAR 0190
ENCODING 400
SWIDTH 695 0
DWIDTH 32 0
BBX 28 33 1 0
BITMAP
FFFE0000
07C00000
07C00000
07C00000
07C00000
07C00000
07C00000
07C00000
07C00000
07C00000
07C00700
07C00F00
07C00F00
07C00700
07C00000
07C00000
07C00000
07C00000
07C00000
07C00000
07C00000
07C00000
07C00000
07C00010
07C00010
07C00010
07C00010
07C00030
07C00030
07C00070
07C000F0
07C001F0
FFFFFFF0
ENDCHAR
STARTCHAR 0191
ENCODING 401
SWIDTH 369 0
DWIDTH 17 0
BBX 15 33 1 0
BITMAP
FF00
0F00
0F00
0F00
0F00
0F00
0F00
0F00
0F00
0F0E
0F1E
0F1E
0F0E
0F00
0F00
0F00
0F00
0F00
0F00
0F00
0F00
0F00
0F00
0F00
0F00
0F00
0F00
0F00
0F00
0F00
0F00
0F00
FFE0
ENDCHAR
STARTCHAR 0192
ENCODING 402
SWIDTH 717 0
DWIDTH 33 0
BBX 31 43 1 0
BITMAP
00003000
00007800
00007800
0000F000
0001C000
00038000
00030000
00040000
00080000
00000000
FFC00FFE
07E00040
07E00040
07F00040
05F80040
04F80040
04FC0040
047C0040
043E0040
043F0040
041F0040
040F8040
040FC040
0407C040
0407E040
0403E040
0401F040
0401F840
0400F840
04007C40
04007E40
04003E40
04001F40
04001F40
04000FC0
04000FC0
040007C0
040003C0
040003C0
040001C0
040000C0
040000C0
FFE00040
ENDCHAR
STARTCHAR 0193
ENCODING 403
SWIDTH 608 0
DWIDTH 28 0
BBX 26 34 1 0
BITMAP
00006000
0000F000
0001F000
0001C000
00038000
00070000
000C0000
00080000
00100000
00200000
00000000
00000000
00000000
00000000
FF0FE000
0F303800
0F403800
0F803C00
0F803C00
0F003C00
0F003C00
0F003C00
0F003C00
0F003C00
0F003C00
0F003C00
0F003C00
0F003C00
0F003C00
0F003C00
0F003C00
0F003C00
0F003C00
FFE1FFC0
ENDCHAR
STARTCHAR 0194
ENCODING 404
SWIDTH 717 0
DWIDTH 33 0
BBX 31 44 1 -11
BITMAP
FFC00FFE
07E00040
07E00040
07F00040
05F80040
04F80040
04FC0040
047C0040
043E0040
043F0040
041F0040
040F8040
040FC040
0407C040
0407E040
0403E040
0401F040
0401F840
0400F840
04007C40
04007E40
04003E40
04001F40
04001F40
04000FC0
04000FC0
040007C0
040003C0
040003C0
040001C0
040000C0
040000C0
FFE00040
01000000
02000000
04000000
0B800000
0CE00000
00600000
00600000
00600000
00600000
10C00000
0F800000
ENDCHAR
STARTCHAR 0195
ENCODING 405
SWIDTH 608 0
DWIDTH 28 0
BBX 26 31 1 -11
BITMAP
FF0FE000
0F303800
0F403800
0F803C00
0F803C00
0F003C00
0F003C00
0F003C00
0F003C00
0F003C00
0F003C00
0F003C00
0F003C00
0F003C00
0F003C00
0F003C00
0F003C00
0F003C00
0F003C00
FFE1FFC0
00000800
00000800
00001000
00003E00
00004300
00000380
00000380
00000380
00000380
00008300
00007C00
ENDCHAR
STARTCHAR 0196
ENCODING 406
SWIDTH 717 0
DWIDTH 33 0
BBX 31 42 1 0
BITMAP
00400400
00300800
00183800
001C7000
000EE000
0007E000
0007C000
00038000
00000000
FFC00FFE
07E00040
07E00040
07F00040
05F80040
04F80040
04FC0040
047C0040
043E0040
043F0040
041F0040
040F8040
040FC040
0407C040
0407E040
0403E040
0401F040
0401F840
0400F840
04007C40
04007E40
04003E40
04001F40
04001F40
04000FC0
04000FC0
040007C0
040003C0
040003C0
040001C0
040000C0
040000C0
FFE00040
ENDCHAR
STARTCHAR 0197
ENCODING 407
SWIDTH 608 0
DWIDTH 28 0
BBX 26 33 1 0
BITMAP
00C00800
00601000
00303000
0018E000
001FC000
000FC000
00078000
00078000
00000000
00000000
00000000
00000000
00000000
FF0FE000
0F303800
0F403800
0F803C00
0F803C00
0F003C00
0F003C00
0F003C00
0F003C00
0F003C00
0F003C00
0F003C00
0F003C00
0F003C00
0F003C00
0F003C00
0F003C00
0F003C00
0F003C00
FFE1FFC0
ENDCHAR
STARTCHAR 0198
ENCODING 408
SWIDTH 608 0
DWIDTH 28 0
BBX 26 35 1 0
BITMAP
00070000
000F8000
000FC000
000FC000
00074000
00004000
00004000
00008000
00008000
00010000
00020000
00040000
00000000
00000000
00000000
FF0FE000
0F303800
0F403800
0F803C00
0F803C00
0F003C00
0F003C00
0F003C00
0F003C00
0F003C00
0F003C00
0F003C00
0F003C00
0F003C00
0F003C00
0F003C00
0F003C00
0F003C00
0F003C00
FFE1FFC0
ENDCHAR
STARTCHAR 0199
ENCODING 409
SWIDTH 826 0
DWIDTH 38 0
BBX 32 38 3 0
BITMAP
003FFE00
00000000
00000000
00000000
00000000
000FF000
00300E00
00C00100
010000C0
03000060
06000070
0E000078
1C000038
3C00003C
3C00003E
7C00003E
7C00001E
7C00001F
FC00001F
F800001F
F800001F
F800001F
F800001F
F800001F
F800001F
7C00001F
7C00001E
7C00003E
3C00003C
3C00003C
1C000038
1E000038
0E000070
07000060
030000C0
00800100
00400200
003FFC00
ENDCHAR
STARTCHAR 019A
ENCODING 410
SWIDTH 565 0
DWIDTH 26 0
BBX 22 29 2 0
BITMAP
07FFC0
000000
000000
000000
000000
000000
000000
000000
000000
01FC00
060300
0C00C0
1C00E0
3800F0
780070
780078
F80078
F80078
F80078
F8007C
F80078
F80078
780078
780070
3800F0
1C00E0
0C00C0
060100
01FE00
ENDCHAR
STARTCHAR 019B
ENCODING 411
SWIDTH 826 0
DWIDTH 38 0
BBX 32 41 3 0
BITMAP
00100200
00100200
00100200
00080400
000E1C00
0007F800
0003F000
00000000
000FF000
00300E00
00C00100
010000C0
03000060
06000070
0E000078
1C000038
3C00003C
3C00003E
7C00003E
7C00001E
7C00001F
FC00001F
F800001F
F800001F
F800001F
F800001F
F800001F
F800001F
7C00001F
7C00001E
7C00003E
3C00003C
3C00003C
1C000038
1E000038
0E000070
07000060
030000C0
00800100
00400200
003FFC00
ENDCHAR
STARTCHAR 019C
ENCODING 412
SWIDTH 565 0
DWIDTH 26 0
BBX 22 32 2 0
BITMAP
040040
020040
0200C0
030080
018380
00FF00
007C00
000000
000000
000000
000000
000000
01FC00
060300
0C00C0
1C00E0
3800F0
780070
780078
F80078
F80078
F80078
F8007C
F80078
F80078
780078
780070
3800F0
1C00E0
0C00C0
060100
01FE00
ENDCHAR
STARTCHAR 019D
ENCODING 413
SWIDTH 826 0
DWIDTH 38 0
BBX 32 43 3 0
BITMAP
0000C180
0001C3C0
0003C780
00070F00
000E1C00
00183800
00302000
00404000
00008000
00000000
000FF000
00300E00
00C00100
010000C0
03000060
06000070
0E000078
1C000038
3C00003C
3C00003E
7C00003E
7C00001E
7C00001F
FC00001F
F800001F
F800001F
F800001F
F800001F
F800001F
F800001F
7C00001F
7C00001E
7C00003E
3C00003C
3C00003C
1C000038
1E000038
0E000070
07000060
030000C0
00800100
00400200
003FFC00
ENDCHAR
STARTCHAR 019E
ENCODING 414
SWIDTH 565 0
DWIDTH 26 0
BBX 22 34 2 0
BITMAP
007060
0070F0
00F1E0
01C3C0
038700
060E00
0C1800
101000
002000
000000
000000
000000
000000
000000
01FC00
060300
0C00C0
1C00E0
3800F0
780070
780078
F80078
F80078
F80078
F8007C
F80078
F80078
780078
780070
3800F0
1C00E0
0C00C0
060100
01FE00
ENDCHAR
STARTCHAR 019F
ENCODING 415
SWIDTH 717 0
DWIDTH 33 0
BBX 32 43 1 0
BITMAP
00006000
0000E000
0001E000
0003C000
00078000
00060000
000C0000
00180000
00200000
00000000
FFFFE000
07C07800
07C03E00
07C01F00
07C00F00
07C00F80
07C00F80
07C00F80
07C00F80
07C00F80
07C00F80
07C00F00
07C01E00
07C01C00
07C07000
07FFE000
07C03C00
07C01F00
07C00F80
07C00780
07C007C0
07C007C0
07C007C0
07C007C0
07C007C0
07C007C0
07C003C0
07C003C0
07C003C0
07C003E0
07C001E0
07C001F1
FFFE007E
ENDCHAR
STARTCHAR 01A0
ENCODING 416
SWIDTH 413 0
DWIDTH 19 0
BBX 18 34 1 0
BITMAP
003000
007800
00F800
00E000
01C000
038000
060000
040000
080000
100000
000000
000000
000000
000000
FF1F00
0F2380
0F43C0
0F83C0
0F83C0
0F0380
0F0000
0F0000
0F0000
0F0000
0F0000
0F0000
0F0000
0F0000
0F0000
0F0000
0F0000
0F0000
0F0000
FFF000
ENDCHAR
STARTCHAR 01A1
ENCODING 417
SWIDTH 717 0
DWIDTH 33 0
BBX 32 44 1 -11
BITMAP
FFFFE000
07C07800
07C03E00
07C01F00
07C00F00
07C00F80
07C00F80
07C00F80
07C00F80
07C00F80
07C00F80
07C00F00
07C01E00
07C01C00
07C07000
07FFE000
07C03C00
07C01F00
07C00F80
07C00780
07C007C0
07C007C0
07C007C0
07C007C0
07C007C0
07C007C0
07C003C0
07C003C0
07C003C0
07C003E0
07C001E0
07C001F1
FFFE007E
00000010
00000020
00000020
0000007C
0000008E
00000007
00000007
00000007
00000006
0000010E
000000F8
ENDCHAR
STARTCHAR 01A2
ENCODING 418
SWIDTH 413 0
DWIDTH 19 0
BBX 18 31 1 -11
BITMAP
FF1F00
0F2380
0F43C0
0F83C0
0F83C0
0F0380
0F0000
0F0000
0F0000
0F0000
0F0000
0F0000
0F0000
0F0000
0F0000
0F0000
0F0000
0F0000
0F0000
FFF000
010000
020000
040000
0B8000
0CE000
006000
006000
006000
006000
10C000
0F8000
ENDCHAR
STARTCHAR 01A3
ENCODING 419
SWIDTH 717 0
DWIDTH 33 0
BBX 32 42 1 0
BITMAP
01001000
00C02000
0060E000
0071C000
003B8000
001F8000
001F0000
000E0000
00000000
FFFFE000
07C07800
07C03E00
07C01F00
07C00F00
07C00F80
07C00F80
07C00F80
07C00F80
07C00F80
07C00F80
07C00F00
07C01E00
07C01C00
07C07000
07FFE000
07C03C00
07C01F00
07C00F80
07C00780
07C007C0
07C007C0
07C007C0
07C007C0
07C007C0
07C007C0
07C003C0
07C003C0
07C003C0
07C003E0
07C001E0
07C001F1
FFFE007E
ENDCHAR
STARTCHAR 01A4
ENCODING 420
SWIDTH 413 0
DWIDTH 19 0
BBX 19 33 0 0
BITMAP
800800
403000
306000
38E000
1DC000
1F8000
0F8000
070000
000000
000000
000000
000000
000000
7F8F80
0791C0
07A1E0
07C1E0
07C1E0
0781C0
078000
078000
078000
078000
078000
078000
078000
078000
078000
078000
078000
078000
078000
7FF800
ENDCHAR
STARTCHAR 01A5
ENCODING 421
SWIDTH 673 0
DWIDTH 31 0
BBX 24 43 3 0
BITMAP
000600
000E00
001E00
003C00
003800
006000
00C000
018000
020000
000000
01FF88
0600F8
080078
100038
100018
300018
300008
700008
700000
780000
7C0000
7E0000
3FC000
3FF800
1FFF00
0FFFE0
03FFF8
007FFC
000FFE
0001FE
00007E
00001F
00001F
80000F
80000F
C0000E
C0000E
C0000E
E0000C
F00018
F00010
FC0040
87FF80
ENDCHAR
STARTCHAR 01A6
ENCODING 422
SWIDTH 434 0
DWIDTH 20 0
BBX 14 34 3 0
BITMAP
00C0
01E0
03E0
0380
0700
0E00
1800
1000
2000
4000
0000
0000
0000
0000
1FF0
2030
4030
4010
C010
E010
F000
FE00
FFC0
7FF0
3FF8
07FC
01FC
003C
801C
801C
801C
C018
E010
BFE0
ENDCHAR
STARTCHAR 01A7
ENCODING 423
SWIDTH 673 0
DWIDTH 31 0
BBX 24 42 3 0
BITMAP
003800
007C00
007C00
00EE00
01C700
018300
030080
040040
000000
01FF88
0600F8
080078
100038
100018
300018
300008
700008
700000
780000
7C0000
7E0000
3FC000
3FF800
1FFF00
0FFFE0
03FFF8
007FFC
000FFE
0001FE
00007E
00001F
00001F
80000F
80000F
C0000E
C0000E
C0000E
E0000C
F00018
F00010
FC0040
87FF80
ENDCHAR
STARTCHAR 01A8
ENCODING 424
SWIDTH 434 0
DWIDTH 20 0
BBX 14 33 3 0
BITMAP
0700
0F80
1F80
1DC0
38E0
3060
4030
8008
0000
0000
0000
0000
0000
1FF0
2030
4030
4010
C010
E010
F000
FE00
FFC0
7FF0
3FF8
07FC
01FC
003C
801C
801C
801C
C018
E010
BFE0
ENDCHAR
STARTCHAR 01A9
ENCODING 425
SWIDTH 673 0
DWIDTH 31 0
BBX 24 44 3 -11
BITMAP
01FF88
0600F8
080078
100038
100018
300018
300008
700008
700000
780000
7C0000
7E0000
3FC000
3FF800
1FFF00
0FFFE0
03FFF8
007FFC
000FFE
0001FE
00007E
00001F
00001F
80000F
80000F
C0000E
C0000E
C0000E
E0000C
F00018
F00010
FC0040
870180
04FE00
080000
100000
2E0000
338000
018000
018000
018000
018000
430000
3E0000
ENDCHAR
STARTCHAR 01AA
ENCODING 426
SWIDTH 434 0
DWIDTH 20 0
BBX 14 31 3 -11
BITMAP
1FF0
2030
4030
4010
C010
E010
F000
FE00
FFC0
7FF0
3FF8
07FC
01FC
003C
801C
801C
801C
C018
E010
B860
0780
0800
1000
2E00
3380
0180
0180
0180
0180
4300
3E00
ENDCHAR
STARTCHAR 01AB
ENCODING 427
SWIDTH 673 0
DWIDTH 31 0
BBX 28 44 2 -11
BITMAP
FFFFFFF0
F01F01F0
E01F00F0
C01F0070
C01F0030
801F0030
801F0010
801F0010
001F0000
001F0000
001F0000
001F0000
001F0000
001F0000
001F0000
001F0000
001F0000
001F0000
001F0000
001F0000
001F0000
001F0000
001F0000
001F0000
001F0000
001F0000
001F0000
001F0000
001F0000
001F0000
001F0000
001F0000
03FFF800
00020000
00040000
00080000
001F0000
00118000
0001C000
0001C000
0001C000
0001C000
00218000
001F0000
ENDCHAR
STARTCHAR 01AC
ENCODING 428
SWIDTH 326 0
DWIDTH 15 0
BBX 15 37 1 -11
BITMAP
1200
1E00
1E00
1E00
1E00
1E00
FFFC
1E00
1E00
1E00
1E00
1E00
1E00
1E00
1E00
1E00
1E00
1E00
1E00
1E00
1E00
1E00
1E02
0E04
0F04
0308
01F0
0200
0400
0B80
0CE0
0060
0060
0060
0060
10C0
0F80
ENDCHAR
STARTCHAR 01AD
ENCODING 429
SWIDTH 673 0
DWIDTH 31 0
BBX 28 42 2 0
BITMAP
01801000
00C02000
00606000
0031C000
003B8000
001F8000
000F0000
000E0000
00000000
FFFFFFF0
F01F01F0
E01F00F0
C01F0070
C01F0030
801F0030
801F0010
801F0010
001F0000
001F0000
001F0000
001F0000
001F0000
001F0000
001F0000
001F0000
001F0000
001F0000
001F0000
001F0000
001F0000
001F0000
001F0000
001F0000
001F0000
001F0000
001F0000
001F0000
001F0000
001F0000
001F0000
001F0000
03FFF800
ENDCHAR
STARTCHAR 01AE
ENCODING 430
SWIDTH 456 0
DWIDTH 21 0
BBX 18 33 1 0
BITMAP
000700
000F80
000FC0
000FC0
000740
000040
000040
120080
1E0080
1E0100
1E0200
1E0400
1E0000
FFFC00
1E0000
1E0000
1E0000
1E0000
1E0000
1E0000
1E0000
1E0000
1E0000
1E0000
1E0000
1E0000
1E0000
1E0000
1E0000
1E0200
0E0400
0F0400
03F800
ENDCHAR
STARTCHAR 01AF
ENCODING 431
SWIDTH 673 0
DWIDTH 31 0
BBX 28 33 2 0
BITMAP
FFFFFFF0
F01F01F0
E01F00F0
C01F0070
C01F0030
801F0030
801F0010
801F0010
001F0000
001F0000
001F0000
001F0000
001F0000
001F0000
07FFFE00
001F0000
001F0000
001F0000
001F0000
001F0000
001F0000
001F0000
001F0000
001F0000
001F0000
001F0000
001F0000
001F0000
001F0000
001F0000
001F0000
001F0000
03FFF800
ENDCHAR
STARTCHAR 01B0
ENCODING 432
SWIDTH 326 0
DWIDTH 15 0
BBX 18 26 -2 0
BITMAP
024000
03C000
03C000
03C000
03C000
03C000
1FFF80
03C000
03C000
03C000
03C000
03C000
03C000
03C000
FFFF80
03C000
03C000
03C000
03C000
03C000
03C000
03C000
03C040
01C080
01E080
007F00
ENDCHAR
STARTCHAR 01B1
ENCODING 433
SWIDTH 760 0
DWIDTH 35 0
BBX 33 40 1 0
BITMAP
0007810000
001FE10000
0011FE0000
00203C0000
0000000000
0000000000
0000000000
FFFE03FF80
07C0001000
07C0001000
07C0001000
07C0001000
07C0001000
07C0001000
07C0001000
07C0001000
07C0001000
07C0001000
07C0001000
07C0001000
07C0001000
07C0001000
07C0001000
07C0001000
07C0001000
07C0001000
07C0001000
07C0001000
07C0001000
07C0001000
07C0001000
07C0001000
07C0001000
03C0002000
03C0002000
01C0004000
01E0004000
00E0008000
0030030000
000FFC0000
ENDCHAR
STARTCHAR 01B2
ENCODING 434
SWIDTH 586 0
DWIDTH 27 0
BBX 25 31 1 0
BITMAP
00F02000
03FC2000
023FC000
04078000
00000000
00000000
00000000
00000000
00000000
00000000
00000000
FF03FC00
0F003C00
0F003C00
0F003C00
0F003C00
0F003C00
0F003C00
0F003C00
0F003C00
0F003C00
0F003C00
0F003C00
0F003C00
0F007C00
0F007C00
0F00BC00
0F00BC00
07013C00
07023C00
01FC3F80
ENDCHAR
STARTCHAR 01B3
ENCODING 435
SWIDTH 760 0
DWIDTH 35 0
BBX 33 38 1 0
BITMAP
003FFE0000
0000000000
0000000000
0000000000
0000000000
FFFE03FF80
07C0001000
07C0001000
07C0001000
07C0001000
07C0001000
07C0001000
07C0001000
07C0001000
07C0001000
07C0001000
07C0001000
07C0001000
07C0001000
07C0001000
07C0001000
07C0001000
07C0001000
07C0001000
07C0001000
07C0001000
07C0001000
07C0001000
07C0001000
07C0001000
07C0001000
03C0002000
03C0002000
01C0004000
01E0004000
00E0008000
0030030000
000FFC0000
ENDCHAR
STARTCHAR 01B4
ENCODING 436
SWIDTH 586 0
DWIDTH 27 0
BBX 25 29 1 0
BITMAP
07FFC000
00000000
00000000
00000000
00000000
00000000
00000000
00000000
00000000
FF03FC00
0F003C00
0F003C00
0F003C00
0F003C00
0F003C00
0F003C00
0F003C00
0F003C00
0F003C00
0F003C00
0F003C00
0F003C00
0F007C00
0F007C00
0F00BC00
0F00BC00
07013C00
07023C00
01FC3F80
ENDCHAR
STARTCHAR 01B5
ENCODING 437
SWIDTH 760 0
DWIDTH 35 0
BBX 33 41 1 0
BITMAP
0010010000
0008010000
0008020000
000C020000
00060E0000
0003FC0000
0001F00000
0000000000
FFFE03FF80
07C0001000
07C0001000
07C0001000
07C0001000
07C0001000
07C0001000
07C0001000
07C0001000
07C0001000
07C0001000
07C0001000
07C0001000
07C0001000
07C0001000
07C0001000
07C0001000
07C0001000
07C0001000
07C0001000
07C0001000
07C0001000
07C0001000
07C0001000
07C0001000
07C0001000
03C0002000
03C0002000
01C0004000
01E0004000
00E0008000
0030030000
000FFC0000
ENDCHAR
STARTCHAR 01B6
ENCODING 438
SWIDTH 586 0
DWIDTH 27 0
BBX 25 32 1 0
BITMAP
04008000
04008000
04008000
02010000
03870000
01FE0000
00FC0000
00000000
00000000
00000000
00000000
00000000
FF03FC00
0F003C00
0F003C00
0F003C00
0F003C00
0F003C00
0F003C00
0F003C00
0F003C00
0F003C00
0F003C00
0F003C00
0F003C00
0F007C00
0F007C00
0F00BC00
0F00BC00
07013C00
07023C00
01FC3F80
ENDCHAR
STARTCHAR 01B7
ENCODING 439
SWIDTH 760 0
DWIDTH 35 0
BBX 33 43 1 0
BITMAP
0000700000
00018C0000
00018C0000
0003060000
0003060000
0001040000
0001040000
0000980000
0000600000
0000000000
FFFE03FF80
07C0001000
07C0001000
07C0001000
07C0001000
07C0001000
07C0001000
07C0001000
07C0001000
07C0001000
07C0001000
07C0001000
07C0001000
07C0001000
07C0001000
07C0001000
07C0001000
07C0001000
07C0001000
07C0001000
07C0001000
07C0001000
07C0001000
07C0001000
07C0001000
07C0001000
03C0002000
03C0002000
01C0004000
01E0004000
00E0008000
0030030000
000FFC0000
ENDCHAR
STARTCHAR 01B8
ENCODING 440
SWIDTH 586 0
DWIDTH 27 0
BBX 25 34 1 0
BITMAP
00780000
00CC0000
01860000
01860000
01860000
01860000
00840000
00880000
00700000
00000000
00000000
00000000
00000000
00000000
FF03FC00
0F003C00
0F003C00
0F003C00
0F003C00
0F003C00
0F003C00
0F003C00
0F003C00
0F003C00
0F003C00
0F003C00
0F003C00
0F007C00
0F007C00
0F00BC00
0F00BC00
07013C00
07023C00
01FC3F80
ENDCHAR
STARTCHAR 01B9
ENCODING 441
SWIDTH 760 0
DWIDTH 35 0
BBX 33 43 1 0
BITMAP
000060C000
0000E1E000
0001E3C000
0003878000
00070E0000
000C0C0000
0018100000
0010200000
0020400000
0000000000
FFFE03FF80
07C0001000
07C0001000
07C0001000
07C0001000
07C0001000
07C0001000
07C0001000
07C0001000
07C0001000
07C0001000
07C0001000
07C0001000
07C0001000
07C0001000
07C0001000
07C0001000
07C0001000
07C0001000
07C0001000
07C0001000
07C0001000
07C0001000
07C0001000
07C0001000
07C0001000
03C0002000
03C0002000
01C0004000
01E0004000
00E0008000
0030030000
000FFC0000
ENDCHAR
STARTCHAR 01BA
ENCODING 442
SWIDTH 586 0
DWIDTH 27 0
BBX 25 34 1 0
BITMAP
001C1800
003C3800
003C7800
0070E000
00E1C000
01830000
03060000
04040000
00080000
00000000
00000000
00000000
00000000
00000000
FF03FC00
0F003C00
0F003C00
0F003C00
0F003C00
0F003C00
0F003C00
0F003C00
0F003C00
0F003C00
0F003C00
0F003C00
0F003C00
0F007C00
0F007C00
0F00BC00
0F00BC00
07013C00
07023C00
01FC3F80
ENDCHAR
STARTCHAR 01BB
ENCODING 443
SWIDTH 760 0
DWIDTH 35 0
BBX 33 42 1 -9
BITMAP
FFFE03FF80
07C0001000
07C0001000
07C0001000
07C0001000
07C0001000
07C0001000
07C0001000
07C0001000
07C0001000
07C0001000
07C0001000
07C0001000
07C0001000
07C0001000
07C0001000
07C0001000
07C0001000
07C0001000
07C0001000
07C0001000
07C0001000
07C0001000
07C0001000
07C0001000
07C0001000
03C0002000
03C0002000
01C0004000
01E0004000
00E0008000
0030030000
000C0C0000
0003F80000
0000700000
0000C00000
0001800000
0003800000
0007800000
0007800000
0003880000
0001F00000
ENDCHAR
STARTCHAR 01BC
ENCODING 444
SWIDTH 586 0
DWIDTH 27 0
BBX 25 29 1 -9
BITMAP
FF03FC00
0F003C00
0F003C00
0F003C00
0F003C00
0F003C00
0F003C00
0F003C00
0F003C00
0F003C00
0F003C00
0F003C00
0F003C00
0F007C00
0F007C00
0F00BC00
0F00BC00
07013C00
07023C00
01CC3F80
00300C00
00003800
00006000
0000C000
0001C000
0003C000
0003C000
0001C400
0000F800
ENDCHAR
STARTCHAR 01BD
ENCODING 445
SWIDTH 1065 0
DWIDTH 49 0
BBX 50 42 0 0
BITMAP
000001C0000000
000001E0000000
000003F0000000
00000770000000
00000638000000
00000C0C000000
00001804000000
00001002000000
00002000000000
FFF87FFE00FFC0
0F8007C0000800
0F8007C0000800
07C003E0000800
07C003E0001000
07C001E0001000
03E001F0001000
03E001F0002000
01E000F8002000
01F000F8004000
01F000F8004000
00F800FC004000
00F8017C008000
00F8013C008000
007C023E008000
007C023E010000
007C021E010000
003E041F010000
003E041F020000
001E040F820000
001F080F840000
001F080F840000
000F0807C40000
000F9007C80000
000F9003C80000
0007E003E80000
0007E003F00000
0007E001F00000
0003C001E00000
0003C001E00000
0003C000E00000
00018000C00000
00018000C00000
ENDCHAR
STARTCHAR 01BE
ENCODING 446
SWIDTH 739 0
DWIDTH 34 0
BBX 34 35 0 -2
BITMAP
0000700000
0000F80000
0000FC0000
0001DC0000
00038E0000
0003030000
0006010000
0004008000
0008000000
0000000000
0000000000
0000000000
0000000000
FFE3FE1FC0
1E00F00100
1F00F80200
0F00780200
0F00780400
0780BC0400
0780BC0400
07813C0800
03C11E0800
03C21E0800
03C21F1000
01E20F1000
01E40F2000
01F407A000
00F807A000
00F807C000
00F803C000
0070038000
0070038000
0060018000
0020010000
0020010000
ENDCHAR
STARTCHAR 01BF
ENCODING 447
SWIDTH 695 0
DWIDTH 32 0
BBX 32 42 0 0
BITMAP
0000E000
0001E000
0003F000
0003B800
00071800
000C0C00
00080600
00100200
00000100
FFFC01FF
07C00010
07C00020
03E00020
03F00040
01F00080
01F80080
00F80100
00FC0100
007C0200
003E0200
003E0400
001F0400
001F8800
000F8800
000FD000
0007D000
0003E000
0003E000
0003E000
0003E000
0003E000
0003E000
0003E000
0003E000
0003E000
0003E000
0003E000
0003E000
0003E000
0003E000
0003E000
007FFF00
ENDCHAR
STARTCHAR 01C0
ENCODING 448
SWIDTH 478 0
DWIDTH 22 0
BBX 24 46 -1 -13
BITMAP
001C00
001E00
003F00
007700
006380
00C0C0
018040
010020
020000
000000
000000
000000
000000
7FF0FF
0F8008
078010
078010
07C010
03C020
03E020
01E040
01E040
01F080
00F080
00F880
00F900
007900
007E00
003E00
003C00
003C00
001C00
001800
000800
001000
001000
002000
002000
002000
004000
004000
708000
F08000
F10000
F10000
3E0000
ENDCHAR
STARTCHAR 01C1
ENCODING 449
SWIDTH 652 0
DWIDTH 30 0
BBX 26 43 2 0
BITMAP
00006000
0000E000
0001E000
0003C000
00038000
00060000
000C0000
00180000
00200000
00000000
1FFFFF80
1F001F00
1C003E00
18003E00
18007C00
1000FC00
1000F800
2001F000
0001F000
0003E000
0007E000
0007C000
000F8000
000F8000
001F0000
003F0000
003E0000
007C0000
007C0000
00F80000
01F80000
01F00000
03E00000
03E00040
07C00040
0FC000C0
0F8000C0
1F0001C0
1F0001C0
3E0003C0
3E0007C0
7C001FC0
FFFFFFC0
ENDCHAR
STARTCHAR 01C2
ENCODING 450
SWIDTH 434 0
DWIDTH 20 0
BBX 16 34 2 0
BITMAP
0060
00F0
01F0
01C0
0380
0700
0C00
0800
1000
2000
0000
0000
0000
0000
7FFF
701E
403C
403C
8078
00F8
00F0
01E0
01E0
03C0
07C0
0780
0F80
0F00
1E01
3E01
3C01
7C03
7803
FFFF
ENDCHAR
STARTCHAR 01C3
ENCODING 451
SWIDTH 652 0
DWIDTH 30 0
BBX 26 41 2 0
BITMAP
000E0000
001F0000
001F0000
000E0000
00000000
00000000
00000000
00000000
1FFFFF80
1F001F00
1C003E00
18003E00
18007C00
1000FC00
1000F800
2001F000
0001F000
0003E000
0007E000
0007C000
000F8000
000F8000
001F0000
003F0000
003E0000
007C0000
007C0000
00F80000
01F80000
01F00000
03E00000
03E00040
07C00040
0FC000C0
0F8000C0
1F0001C0
1F0001C0
3E0003C0
3E0007C0
7C001FC0
FFFFFFC0
ENDCHAR
STARTCHAR 01C4
ENCODING 452
SWIDTH 434 0
DWIDTH 20 0
BBX 16 32 2 0
BITMAP
01C0
03C0
03C0
01C0
0000
0000
0000
0000
0000
0000
0000
0000
7FFF
701E
403C
403C
8078
00F8
00F0
01E0
01E0
03C0
07C0
0780
0F80
0F00
1E01
3E01
3C01
7C03
7803
FFFF
ENDCHAR
STARTCHAR 01C5
ENCODING 453
SWIDTH 282 0
DWIDTH 13 0
BBX 7 12 3 21
BITMAP
04
18
20
40
40
80
80
DC
FE
FE
7C
3C
ENDCHAR
STARTCHAR 01C6
ENCODING 454
SWIDTH 282 0
DWIDTH 13 0
BBX 7 12 3 21
BITMAP
78
FC
FC
FE
76
06
04
04
08
10
20
40
ENDCHAR
STARTCHAR 01C7
ENCODING 455
SWIDTH 0 0
DWIDTH 0 0
BBX 0 0 0 0
BITMAP
ENDCHAR
STARTCHAR 01C8
ENCODING 456
SWIDTH 0 0
DWIDTH 0 0
BBX 0 0 0 0
BITMAP
ENDCHAR
STARTCHAR 01C9
ENCODING 457
SWIDTH 0 0
DWIDTH 0 0
BBX 0 0 0 0
BITMAP
ENDCHAR
STARTCHAR 01CA
ENCODING 458
SWIDTH 0 0
DWIDTH 0 0
BBX 0 0 0 0
BITMAP
ENDCHAR
STARTCHAR 01CB
ENCODING 459
SWIDTH 586 0
DWIDTH 27 0
BBX 25 41 1 -8
BITMAP
00FFFF80
07F83C00
1FF83C00
3FF83C00
3FF83C00
7FF83C00
7FF83C00
FFF83C00
FFF83C00
FFF83C00
FFF83C00
FFF83C00
7FF83C00
7FF83C00
7FF83C00
3FF83C00
1FF83C00
0FF83C00
03F83C00
00083C00
00083C00
00083C00
00083C00
00083C00
00083C00
00083C00
00083C00
00083C00
00083800
00087800
00087800
00087800
00087800
00087000
00087000
0E08E000
1E10E000
1E11C000
1E230000
0E4E0000
07F00000
ENDCHAR
STARTCHAR 01CC
ENCODING 460
SWIDTH 586 0
DWIDTH 27 0
BBX 18 33 4 0
BITMAP
1F8380
20C3C0
60E3C0
7063C0
F073C0
7073C0
0073C0
0073C0
0073C0
0073C0
007380
007380
006380
20E180
20C180
318180
2E0180
200180
200180
200180
200180
200180
200180
200100
200100
000000
000000
000000
700380
F803C0
F807C0
F803C0
700380
ENDCHAR
STARTCHAR 01CD
ENCODING 461
SWIDTH 586 0
DWIDTH 27 0
BBX 20 33 5 0
BITMAP
703F00
F060C0
F0E0C0
F0E0E0
F0F0E0
F0E0E0
F000E0
F000F0
7000F0
7000E0
7000E0
7000E0
7000E0
7040C0
706080
605100
604E00
604000
604000
604000
604000
604000
204000
204000
204000
000000
000000
000000
70E000
F1F000
F9F000
F1F000
70E000
ENDCHAR
STARTCHAR 01CE
ENCODING 462
SWIDTH 0 0
DWIDTH 0 0
BBX 0 0 0 0
BITMAP
ENDCHAR
STARTCHAR 01CF
ENCODING 463
SWIDTH 369 0
DWIDTH 17 0
BBX 9 2 4 10
BITMAP
FF80
FF80
ENDCHAR
STARTCHAR 01D0
ENCODING 464
SWIDTH 500 0
DWIDTH 23 0
BBX 23 1 0 10
BITMAP
FFFFFE
ENDCHAR
STARTCHAR 01D1
ENCODING 465
SWIDTH 369 0
DWIDTH 17 0
BBX 9 2 4 10
BITMAP
FF80
FF80
ENDCHAR
STARTCHAR 01D2
ENCODING 466
SWIDTH 1000 0
DWIDTH 46 0
BBX 34 1 6 10
BITMAP
FFFFFFFFC0
ENDCHAR
STARTCHAR 01D3
ENCODING 467
SWIDTH 282 0
DWIDTH 13 0
BBX 7 12 3 21
BITMAP
78
FC
FC
FE
76
06
04
04
08
10
20
40
ENDCHAR
STARTCHAR 01D4
ENCODING 468
SWIDTH 434 0
DWIDTH 20 0
BBX 15 12 3 21
BITMAP
7078
F87C
FCFC
FCFE
6476
0406
0404
0804
0808
1010
2010
4060
ENDCHAR
STARTCHAR 01D5
ENCODING 469
SWIDTH 673 0
DWIDTH 31 0
BBX 20 4 5 0
BITMAP
7800F0
F800F0
F800F0
7800F0
ENDCHAR
STARTCHAR 01D6
ENCODING 470
SWIDTH 326 0
DWIDTH 15 0
BBX 5 4 5 0
BITMAP
78
F8
F8
78
ENDCHAR
STARTCHAR 01D7
ENCODING 471
SWIDTH 521 0
DWIDTH 24 0
BBX 14 33 5 0
BITMAP
7038
F07C
F07C
F03C
F03C
F03C
F038
F038
7038
7038
7038
7038
7038
7038
7038
6038
6018
6018
6018
6018
6010
6010
2010
2010
2010
0000
0000
0000
7038
F07C
F87C
F07C
7038
ENDCHAR
STARTCHAR 01D8
ENCODING 472
SWIDTH 1347 0
DWIDTH 62 0
BBX 58 34 2 -1
BITMAP
0FC0040000000000
3020080000000000
6030080000000000
6018100000000000
E018100000000000
E01C200000000000
E01C200000000000
E01C400000000000
E018400000000000
6038800000000000
3030800000000000
1061000000000000
0F81000000000000
0002000000000000
0002000000000000
0004000000000000
0004000000000000
0008000000000000
0018000000000000
0010000000000000
0020780078007800
0021860186018600
0043030303030300
0047018701860380
0086018601860180
008E01CE01CE01C0
010E01CE01CE01C0
010E01CE01CE01C0
020601CE01CE01C0
0206018601860180
0407018701860380
0403030303030300
0800860186018600
0800580078007800
ENDCHAR
STARTCHAR 01D9
ENCODING 473
SWIDTH 369 0
DWIDTH 17 0
BBX 9 2 4 10
BITMAP
FF80
FF80
ENDCHAR
ENDFONT
